<?xml version="1.0" standalone="no"?>
<svg xmlns="http://www.w3.org/2000/svg" width="500" height="500"><defs><clipPath id="clip-path-dot-color"><path d="M 18 162v 16h 16v -8a 8 8, 0, 0, 0, -8 -8" transform="rotate(-90,26,170)"/><path d="M 18 178v 16h 8a 8 8, 0, 0, 0, 0 -16" transform="rotate(90,26,186)"/><path d="M 18 210v 16h 16v -8a 8 8, 0, 0, 0, -8 -8" transform="rotate(-90,26,218)"/><path d="M 18 226v 16h 16v -8a 8 8, 0, 0, 0, -8 -8" transform="rotate(180,26,234)"/><circle cx="26" cy="266" r="8" transform="rotate(0,26,266)"/><path d="M 18 290v 16h 16v -8a 8 8, 0, 0, 0, -8 -8" transform="rotate(-90,26,298)"/><rect x="18" y="306" width="16" height="16" transform="rotate(0,26,314)"/><rect x="18" y="322" width="16" height="16" transform="rotate(0,26,330)"/><path d="M 18 338v 16h 8a 8 8, 0, 0, 0, 0 -16" transform="rotate(90,26,346)"/><path d="M 34 146v 16h 16v -8a 8 8, 0, 0, 0, -8 -8" transform="rotate(-90,42,154)"/><rect x="34" y="162" width="16" height="16" transform="rotate(0,42,170)"/><path d="M 34 194v 16h 16v -8a 8 8, 0, 0, 0, -8 -8" transform="rotate(-90,42,202)"/><rect x="34" y="210" width="16" height="16" transform="rotate(0,42,218)"/><rect x="34" y="226" width="16" height="16" transform="rotate(0,42,234)"/><path d="M 34 242v 16h 8a 8 8, 0, 0, 0, 0 -16" transform="rotate(90,42,250)"/><path d="M 34 274v 16h 16v -8a 8 8, 0, 0, 0, -8 -8" transform="rotate(-90,42,282)"/><path d="M 34 290v 16h 16v -8a 8 8, 0, 0, 0, -8 -8" transform="rotate(90,42,298)"/><path d="M 50 146v 16h 16v -8a 8 8, 0, 0, 0, -8 -8" transform="rotate(0,58,154)"/><rect x="50" y="162" width="16" height="16" transform="rotate(0,58,170)"/><rect x="50" y="194" width="16" height="16" transform="rotate(0,58,202)"/><path d="M 50 226v 16h 8a 8 8, 0, 0, 0, 0 -16" transform="rotate(0,58,234)"/><path d="M 50 274v 16h 8a 8 8, 0, 0, 0, 0 -16" transform="rotate(0,58,282)"/><circle cx="58" cy="314" r="8" transform="rotate(0,58,314)"/><circle cx="58" cy="346" r="8" transform="rotate(0,58,346)"/><rect x="66" y="162" width="16" height="16" transform="rotate(0,74,170)"/><rect x="66" y="194" width="16" height="16" transform="rotate(0,74,202)"/><path d="M 66 242v 16h 16v -8a 8 8, 0, 0, 0, -8 -8" transform="rotate(-90,74,250)"/><path d="M 66 258v 16h 8a 8 8, 0, 0, 0, 0 -16" transform="rotate(90,74,266)"/><path d="M 66 290v 16h 8a 8 8, 0, 0, 0, 0 -16" transform="rotate(180,74,298)"/><path d="M 66 322v 16h 8a 8 8, 0, 0, 0, 0 -16" transform="rotate(180,74,330)"/><path d="M 82 162v 16h 8a 8 8, 0, 0, 0, 0 -16" transform="rotate(0,90,170)"/><path d="M 82 194v 16h 16v -8a 8 8, 0, 0, 0, -8 -8" transform="rotate(0,90,202)"/><path d="M 82 210v 16h 8a 8 8, 0, 0, 0, 0 -16" transform="rotate(90,90,218)"/><path d="M 82 242v 16h 8a 8 8, 0, 0, 0, 0 -16" transform="rotate(0,90,250)"/><path d="M 82 274v 16h 8a 8 8, 0, 0, 0, 0 -16" transform="rotate(-90,90,282)"/><rect x="82" y="290" width="16" height="16" transform="rotate(0,90,298)"/><rect x="82" y="322" width="16" height="16" transform="rotate(0,90,330)"/><circle cx="106" cy="266" r="8" transform="rotate(0,106,266)"/><path d="M 98 290v 16h 16v -8a 8 8, 0, 0, 0, -8 -8" transform="rotate(0,106,298)"/><rect x="98" y="306" width="16" height="16" transform="rotate(0,106,314)"/><path d="M 98 322v 16h 16v -8a 8 8, 0, 0, 0, -8 -8" transform="rotate(90,106,330)"/><circle cx="122" cy="154" r="8" transform="rotate(0,122,154)"/><path d="M 114 178v 16h 8a 8 8, 0, 0, 0, 0 -16" transform="rotate(180,122,186)"/><circle cx="122" cy="218" r="8" transform="rotate(0,122,218)"/><circle cx="122" cy="250" r="8" transform="rotate(0,122,250)"/><path d="M 114 274v 16h 8a 8 8, 0, 0, 0, 0 -16" transform="rotate(180,122,282)"/><path d="M 114 306v 16h 8a 8 8, 0, 0, 0, 0 -16" transform="rotate(0,122,314)"/><circle cx="122" cy="346" r="8" transform="rotate(0,122,346)"/><path d="M 130 178v 16h 16v -8a 8 8, 0, 0, 0, -8 -8" transform="rotate(0,138,186)"/><path d="M 130 194v 16h 16v -8a 8 8, 0, 0, 0, -8 -8" transform="rotate(180,138,202)"/><path d="M 130 258v 16h 8a 8 8, 0, 0, 0, 0 -16" transform="rotate(-90,138,266)"/><rect x="130" y="274" width="16" height="16" transform="rotate(0,138,282)"/><path d="M 130 290v 16h 8a 8 8, 0, 0, 0, 0 -16" transform="rotate(90,138,298)"/><circle cx="138" cy="330" r="8" transform="rotate(0,138,330)"/><path d="M 146 34v 16h 16v -8a 8 8, 0, 0, 0, -8 -8" transform="rotate(-90,154,42)"/><rect x="146" y="50" width="16" height="16" transform="rotate(0,154,58)"/><path d="M 146 66v 16h 16v -8a 8 8, 0, 0, 0, -8 -8" transform="rotate(180,154,74)"/><path d="M 146 98v 16h 16v -8a 8 8, 0, 0, 0, -8 -8" transform="rotate(-90,154,106)"/><path d="M 146 114v 16h 8a 8 8, 0, 0, 0, 0 -16" transform="rotate(90,154,122)"/><path d="M 146 194v 16h 8a 8 8, 0, 0, 0, 0 -16" transform="rotate(0,154,202)"/><path d="M 146 226v 16h 16v -8a 8 8, 0, 0, 0, -8 -8" transform="rotate(-90,154,234)"/><path d="M 146 242v 16h 16v -8a 8 8, 0, 0, 0, -8 -8" transform="rotate(180,154,250)"/><circle cx="154" cy="314" r="8" transform="rotate(0,154,314)"/><path d="M 146 434v 16h 16v -8a 8 8, 0, 0, 0, -8 -8" transform="rotate(-90,154,442)"/><path d="M 146 450v 16h 8a 8 8, 0, 0, 0, 0 -16" transform="rotate(90,154,458)"/><rect x="162" y="34" width="16" height="16" transform="rotate(0,170,42)"/><rect x="162" y="66" width="16" height="16" transform="rotate(0,170,74)"/><rect x="162" y="82" width="16" height="16" transform="rotate(0,170,90)"/><rect x="162" y="98" width="16" height="16" transform="rotate(0,170,106)"/><path d="M 162 130v 16h 8a 8 8, 0, 0, 0, 0 -16" transform="rotate(180,170,138)"/><path d="M 162 162v 16h 8a 8 8, 0, 0, 0, 0 -16" transform="rotate(180,170,170)"/><path d="M 162 210v 16h 8a 8 8, 0, 0, 0, 0 -16" transform="rotate(-90,170,218)"/><rect x="162" y="226" width="16" height="16" transform="rotate(0,170,234)"/><rect x="162" y="242" width="16" height="16" transform="rotate(0,170,250)"/><rect x="162" y="258" width="16" height="16" transform="rotate(0,170,266)"/><path d="M 162 274v 16h 8a 8 8, 0, 0, 0, 0 -16" transform="rotate(90,170,282)"/><path d="M 162 338v 16h 8a 8 8, 0, 0, 0, 0 -16" transform="rotate(-90,170,346)"/><rect x="162" y="354" width="16" height="16" transform="rotate(0,170,362)"/><path d="M 162 370v 16h 16v -8a 8 8, 0, 0, 0, -8 -8" transform="rotate(180,170,378)"/><path d="M 162 402v 16h 16v -8a 8 8, 0, 0, 0, -8 -8" transform="rotate(-90,170,410)"/><rect x="162" y="418" width="16" height="16" transform="rotate(0,170,426)"/><path d="M 162 434v 16h 16v -8a 8 8, 0, 0, 0, -8 -8" transform="rotate(90,170,442)"/><circle cx="170" cy="474" r="8" transform="rotate(0,170,474)"/><path d="M 178 34v 16h 8a 8 8, 0, 0, 0, 0 -16" transform="rotate(0,186,42)"/><path d="M 178 66v 16h 16v -8a 8 8, 0, 0, 0, -8 -8" transform="rotate(0,186,74)"/><rect x="178" y="82" width="16" height="16" transform="rotate(0,186,90)"/><rect x="178" y="98" width="16" height="16" transform="rotate(0,186,106)"/><rect x="178" y="114" width="16" height="16" transform="rotate(0,186,122)"/><path d="M 178 130v 16h 16v -8a 8 8, 0, 0, 0, -8 -8" transform="rotate(90,186,138)"/><path d="M 178 162v 16h 16v -8a 8 8, 0, 0, 0, -8 -8" transform="rotate(0,186,170)"/><path d="M 178 178v 16h 16v -8a 8 8, 0, 0, 0, -8 -8" transform="rotate(180,186,186)"/><rect x="178" y="242" width="16" height="16" transform="rotate(0,186,250)"/><path d="M 178 290v 16h 8a 8 8, 0, 0, 0, 0 -16" transform="rotate(-90,186,298)"/><path d="M 178 306v 16h 8a 8 8, 0, 0, 0, 0 -16" transform="rotate(90,186,314)"/><path d="M 178 370v 16h 8a 8 8, 0, 0, 0, 0 -16" transform="rotate(0,186,378)"/><path d="M 178 402v 16h 16v -8a 8 8, 0, 0, 0, -8 -8" transform="rotate(0,186,410)"/><path d="M 178 418v 16h 16v -8a 8 8, 0, 0, 0, -8 -8" transform="rotate(90,186,426)"/><circle cx="186" cy="458" r="8" transform="rotate(0,186,458)"/><circle cx="202" cy="26" r="8" transform="rotate(0,202,26)"/><circle cx="202" cy="58" r="8" transform="rotate(0,202,58)"/><rect x="194" y="82" width="16" height="16" transform="rotate(0,202,90)"/><rect x="194" y="178" width="16" height="16" transform="rotate(0,202,186)"/><circle cx="202" cy="218" r="8" transform="rotate(0,202,218)"/><rect x="194" y="242" width="16" height="16" transform="rotate(0,202,250)"/><path d="M 194 274v 16h 8a 8 8, 0, 0, 0, 0 -16" transform="rotate(180,202,282)"/><circle cx="202" cy="346" r="8" transform="rotate(0,202,346)"/><path d="M 194 466v 16h 8a 8 8, 0, 0, 0, 0 -16" transform="rotate(180,202,474)"/><path d="M 210 34v 16h 8a 8 8, 0, 0, 0, 0 -16" transform="rotate(180,218,42)"/><rect x="210" y="82" width="16" height="16" transform="rotate(0,218,90)"/><path d="M 210 114v 16h 8a 8 8, 0, 0, 0, 0 -16" transform="rotate(-90,218,122)"/><rect x="210" y="130" width="16" height="16" transform="rotate(0,218,138)"/><rect x="210" y="146" width="16" height="16" transform="rotate(0,218,154)"/><rect x="210" y="162" width="16" height="16" transform="rotate(0,218,170)"/><rect x="210" y="178" width="16" height="16" transform="rotate(0,218,186)"/><path d="M 210 194v 16h 8a 8 8, 0, 0, 0, 0 -16" transform="rotate(90,218,202)"/><path d="M 210 242v 16h 8a 8 8, 0, 0, 0, 0 -16" transform="rotate(0,218,250)"/><path d="M 210 274v 16h 16v -8a 8 8, 0, 0, 0, -8 -8" transform="rotate(0,218,282)"/><path d="M 210 290v 16h 16v -8a 8 8, 0, 0, 0, -8 -8" transform="rotate(180,218,298)"/><path d="M 210 322v 16h 8a 8 8, 0, 0, 0, 0 -16" transform="rotate(180,218,330)"/><circle cx="218" cy="362" r="8" transform="rotate(0,218,362)"/><path d="M 210 386v 16h 8a 8 8, 0, 0, 0, 0 -16" transform="rotate(180,218,394)"/><path d="M 210 434v 16h 16v -8a 8 8, 0, 0, 0, -8 -8" transform="rotate(-90,218,442)"/><rect x="210" y="450" width="16" height="16" transform="rotate(0,218,458)"/><rect x="210" y="466" width="16" height="16" transform="rotate(0,218,474)"/><path d="M 226 18v 16h 8a 8 8, 0, 0, 0, 0 -16" transform="rotate(-90,234,26)"/><rect x="226" y="34" width="16" height="16" transform="rotate(0,234,42)"/><rect x="226" y="50" width="16" height="16" transform="rotate(0,234,58)"/><rect x="226" y="66" width="16" height="16" transform="rotate(0,234,74)"/><rect x="226" y="82" width="16" height="16" transform="rotate(0,234,90)"/><rect x="226" y="146" width="16" height="16" transform="rotate(0,234,154)"/><circle cx="234" cy="234" r="8" transform="rotate(0,234,234)"/><path d="M 226 290v 16h 8a 8 8, 0, 0, 0, 0 -16" transform="rotate(0,234,298)"/><rect x="226" y="322" width="16" height="16" transform="rotate(0,234,330)"/><path d="M 226 370v 16h 8a 8 8, 0, 0, 0, 0 -16" transform="rotate(-90,234,378)"/><rect x="226" y="386" width="16" height="16" transform="rotate(0,234,394)"/><path d="M 226 418v 16h 16v -8a 8 8, 0, 0, 0, -8 -8" transform="rotate(-90,234,426)"/><path d="M 226 434v 16h 16v -8a 8 8, 0, 0, 0, -8 -8" transform="rotate(90,234,442)"/><rect x="226" y="466" width="16" height="16" transform="rotate(0,234,474)"/><rect x="242" y="34" width="16" height="16" transform="rotate(0,250,42)"/><rect x="242" y="50" width="16" height="16" transform="rotate(0,250,58)"/><rect x="242" y="82" width="16" height="16" transform="rotate(0,250,90)"/><path d="M 242 114v 16h 8a 8 8, 0, 0, 0, 0 -16" transform="rotate(-90,250,122)"/><rect x="242" y="130" width="16" height="16" transform="rotate(0,250,138)"/><rect x="242" y="146" width="16" height="16" transform="rotate(0,250,154)"/><rect x="242" y="162" width="16" height="16" transform="rotate(0,250,170)"/><path d="M 242 178v 16h 8a 8 8, 0, 0, 0, 0 -16" transform="rotate(90,250,186)"/><path d="M 242 242v 16h 8a 8 8, 0, 0, 0, 0 -16" transform="rotate(180,250,250)"/><path d="M 242 306v 16h 8a 8 8, 0, 0, 0, 0 -16" transform="rotate(-90,250,314)"/><rect x="242" y="322" width="16" height="16" transform="rotate(0,250,330)"/><rect x="242" y="338" width="16" height="16" transform="rotate(0,250,346)"/><path d="M 242 354v 16h 16v -8a 8 8, 0, 0, 0, -8 -8" transform="rotate(180,250,362)"/><path d="M 242 386v 16h 16v -8a 8 8, 0, 0, 0, -8 -8" transform="rotate(0,250,394)"/><rect x="242" y="402" width="16" height="16" transform="rotate(0,250,410)"/><rect x="242" y="418" width="16" height="16" transform="rotate(0,250,426)"/><path d="M 242 450v 16h 16v -8a 8 8, 0, 0, 0, -8 -8" transform="rotate(-90,250,458)"/><path d="M 242 466v 16h 16v -8a 8 8, 0, 0, 0, -8 -8" transform="rotate(90,250,474)"/><path d="M 258 18v 16h 16v -8a 8 8, 0, 0, 0, -8 -8" transform="rotate(-90,266,26)"/><rect x="258" y="34" width="16" height="16" transform="rotate(0,266,42)"/><rect x="258" y="50" width="16" height="16" transform="rotate(0,266,58)"/><rect x="258" y="66" width="16" height="16" transform="rotate(0,266,74)"/><rect x="258" y="82" width="16" height="16" transform="rotate(0,266,90)"/><path d="M 258 130v 16h 16v -8a 8 8, 0, 0, 0, -8 -8" transform="rotate(0,266,138)"/><rect x="258" y="146" width="16" height="16" transform="rotate(0,266,154)"/><path d="M 258 162v 16h 16v -8a 8 8, 0, 0, 0, -8 -8" transform="rotate(90,266,170)"/><path d="M 258 210v 16h 8a 8 8, 0, 0, 0, 0 -16" transform="rotate(-90,266,218)"/><rect x="258" y="226" width="16" height="16" transform="rotate(0,266,234)"/><path d="M 258 242v 16h 16v -8a 8 8, 0, 0, 0, -8 -8" transform="rotate(90,266,250)"/><circle cx="266" cy="282" r="8" transform="rotate(0,266,282)"/><rect x="258" y="338" width="16" height="16" transform="rotate(0,266,346)"/><rect x="258" y="354" width="16" height="16" transform="rotate(0,266,362)"/><path d="M 258 370v 16h 8a 8 8, 0, 0, 0, 0 -16" transform="rotate(90,266,378)"/><rect x="258" y="402" width="16" height="16" transform="rotate(0,266,410)"/><rect x="258" y="418" width="16" height="16" transform="rotate(0,266,426)"/><path d="M 258 450v 16h 8a 8 8, 0, 0, 0, 0 -16" transform="rotate(0,266,458)"/><path d="M 274 18v 16h 8a 8 8, 0, 0, 0, 0 -16" transform="rotate(0,282,26)"/><rect x="274" y="50" width="16" height="16" transform="rotate(0,282,58)"/><rect x="274" y="82" width="16" height="16" transform="rotate(0,282,90)"/><rect x="274" y="98" width="16" height="16" transform="rotate(0,282,106)"/><path d="M 274 114v 16h 8a 8 8, 0, 0, 0, 0 -16" transform="rotate(90,282,122)"/><path d="M 274 194v 16h 8a 8 8, 0, 0, 0, 0 -16" transform="rotate(180,282,202)"/><rect x="274" y="226" width="16" height="16" transform="rotate(0,282,234)"/><path d="M 274 290v 16h 8a 8 8, 0, 0, 0, 0 -16" transform="rotate(-90,282,298)"/><path d="M 274 306v 16h 16v -8a 8 8, 0, 0, 0, -8 -8" transform="rotate(180,282,314)"/><path d="M 274 338v 16h 16v -8a 8 8, 0, 0, 0, -8 -8" transform="rotate(0,282,346)"/><path d="M 274 354v 16h 16v -8a 8 8, 0, 0, 0, -8 -8" transform="rotate(90,282,362)"/><path d="M 274 402v 16h 16v -8a 8 8, 0, 0, 0, -8 -8" transform="rotate(0,282,410)"/><path d="M 274 418v 16h 16v -8a 8 8, 0, 0, 0, -8 -8" transform="rotate(90,282,426)"/><circle cx="282" cy="474" r="8" transform="rotate(0,282,474)"/><path d="M 290 50v 16h 8a 8 8, 0, 0, 0, 0 -16" transform="rotate(0,298,58)"/><rect x="290" y="82" width="16" height="16" transform="rotate(0,298,90)"/><path d="M 290 162v 16h 16v -8a 8 8, 0, 0, 0, -8 -8" transform="rotate(-90,298,170)"/><rect x="290" y="178" width="16" height="16" transform="rotate(0,298,186)"/><path d="M 290 194v 16h 16v -8a 8 8, 0, 0, 0, -8 -8" transform="rotate(90,298,202)"/><rect x="290" y="226" width="16" height="16" transform="rotate(0,298,234)"/><path d="M 290 242v 16h 16v -8a 8 8, 0, 0, 0, -8 -8" transform="rotate(180,298,250)"/><path d="M 290 274v 16h 8a 8 8, 0, 0, 0, 0 -16" transform="rotate(180,298,282)"/><path d="M 290 306v 16h 8a 8 8, 0, 0, 0, 0 -16" transform="rotate(0,298,314)"/><circle cx="298" cy="394" r="8" transform="rotate(0,298,394)"/><path d="M 290 434v 16h 8a 8 8, 0, 0, 0, 0 -16" transform="rotate(180,298,442)"/><circle cx="314" cy="26" r="8" transform="rotate(0,314,26)"/><path d="M 306 66v 16h 8a 8 8, 0, 0, 0, 0 -16" transform="rotate(-90,314,74)"/><rect x="306" y="82" width="16" height="16" transform="rotate(0,314,90)"/><path d="M 306 114v 16h 8a 8 8, 0, 0, 0, 0 -16" transform="rotate(-90,314,122)"/><rect x="306" y="130" width="16" height="16" transform="rotate(0,314,138)"/><rect x="306" y="146" width="16" height="16" transform="rotate(0,314,154)"/><rect x="306" y="162" width="16" height="16" transform="rotate(0,314,170)"/><rect x="306" y="178" width="16" height="16" transform="rotate(0,314,186)"/><path d="M 306 210v 16h 16v -8a 8 8, 0, 0, 0, -8 -8" transform="rotate(-90,314,218)"/><rect x="306" y="226" width="16" height="16" transform="rotate(0,314,234)"/><rect x="306" y="242" width="16" height="16" transform="rotate(0,314,250)"/><rect x="306" y="258" width="16" height="16" transform="rotate(0,314,266)"/><rect x="306" y="274" width="16" height="16" transform="rotate(0,314,282)"/><path d="M 306 338v 16h 8a 8 8, 0, 0, 0, 0 -16" transform="rotate(180,314,346)"/><path d="M 306 370v 16h 8a 8 8, 0, 0, 0, 0 -16" transform="rotate(180,314,378)"/><path d="M 306 418v 16h 16v -8a 8 8, 0, 0, 0, -8 -8" transform="rotate(-90,314,426)"/><rect x="306" y="434" width="16" height="16" transform="rotate(0,314,442)"/><circle cx="330" cy="58" r="8" transform="rotate(0,330,58)"/><path d="M 322 82v 16h 8a 8 8, 0, 0, 0, 0 -16" transform="rotate(0,330,90)"/><rect x="322" y="130" width="16" height="16" transform="rotate(0,330,138)"/><rect x="322" y="162" width="16" height="16" transform="rotate(0,330,170)"/><rect x="322" y="178" width="16" height="16" transform="rotate(0,330,186)"/><rect x="322" y="194" width="16" height="16" transform="rotate(0,330,202)"/><path d="M 322 210v 16h 16v -8a 8 8, 0, 0, 0, -8 -8" transform="rotate(90,330,218)"/><rect x="322" y="274" width="16" height="16" transform="rotate(0,330,282)"/><rect x="322" y="290" width="16" height="16" transform="rotate(0,330,298)"/><path d="M 322 306v 16h 16v -8a 8 8, 0, 0, 0, -8 -8" transform="rotate(180,330,314)"/><rect x="322" y="338" width="16" height="16" transform="rotate(0,330,346)"/><rect x="322" y="354" width="16" height="16" transform="rotate(0,330,362)"/><rect x="322" y="370" width="16" height="16" transform="rotate(0,330,378)"/><path d="M 322 402v 16h 16v -8a 8 8, 0, 0, 0, -8 -8" transform="rotate(-90,330,410)"/><rect x="322" y="418" width="16" height="16" transform="rotate(0,330,426)"/><rect x="322" y="434" width="16" height="16" transform="rotate(0,330,442)"/><circle cx="346" cy="42" r="8" transform="rotate(0,346,42)"/><path d="M 338 98v 16h 8a 8 8, 0, 0, 0, 0 -16" transform="rotate(-90,346,106)"/><rect x="338" y="114" width="16" height="16" transform="rotate(0,346,122)"/><path d="M 338 130v 16h 16v -8a 8 8, 0, 0, 0, -8 -8" transform="rotate(90,346,138)"/><path d="M 338 162v 16h 16v -8a 8 8, 0, 0, 0, -8 -8" transform="rotate(0,346,170)"/><rect x="338" y="178" width="16" height="16" transform="rotate(0,346,186)"/><path d="M 338 226v 16h 8a 8 8, 0, 0, 0, 0 -16" transform="rotate(-90,346,234)"/><rect x="338" y="242" width="16" height="16" transform="rotate(0,346,250)"/><rect x="338" y="258" width="16" height="16" transform="rotate(0,346,266)"/><rect x="338" y="274" width="16" height="16" transform="rotate(0,346,282)"/><rect x="338" y="290" width="16" height="16" transform="rotate(0,346,298)"/><path d="M 338 306v 16h 16v -8a 8 8, 0, 0, 0, -8 -8" transform="rotate(90,346,314)"/><rect x="338" y="338" width="16" height="16" transform="rotate(0,346,346)"/><rect x="338" y="354" width="16" height="16" transform="rotate(0,346,362)"/><rect x="338" y="370" width="16" height="16" transform="rotate(0,346,378)"/><rect x="338" y="386" width="16" height="16" transform="rotate(0,346,394)"/><rect x="338" y="402" width="16" height="16" transform="rotate(0,346,410)"/><rect x="338" y="418" width="16" height="16" transform="rotate(0,346,426)"/><path d="M 338 434v 16h 16v -8a 8 8, 0, 0, 0, -8 -8" transform="rotate(90,346,442)"/><path d="M 338 466v 16h 8a 8 8, 0, 0, 0, 0 -16" transform="rotate(180,346,474)"/><circle cx="362" cy="154" r="8" transform="rotate(0,362,154)"/><rect x="354" y="178" width="16" height="16" transform="rotate(0,362,186)"/><rect x="354" y="194" width="16" height="16" transform="rotate(0,362,202)"/><path d="M 354 210v 16h 8a 8 8, 0, 0, 0, 0 -16" transform="rotate(90,362,218)"/><rect x="354" y="274" width="16" height="16" transform="rotate(0,362,282)"/><path d="M 354 322v 16h 16v -8a 8 8, 0, 0, 0, -8 -8" transform="rotate(-90,362,330)"/><rect x="354" y="338" width="16" height="16" transform="rotate(0,362,346)"/><rect x="354" y="402" width="16" height="16" transform="rotate(0,362,410)"/><path d="M 354 418v 16h 16v -8a 8 8, 0, 0, 0, -8 -8" transform="rotate(90,362,426)"/><path d="M 354 450v 16h 16v -8a 8 8, 0, 0, 0, -8 -8" transform="rotate(-90,362,458)"/><path d="M 354 466v 16h 16v -8a 8 8, 0, 0, 0, -8 -8" transform="rotate(90,362,474)"/><path d="M 370 162v 16h 16v -8a 8 8, 0, 0, 0, -8 -8" transform="rotate(-90,378,170)"/><rect x="370" y="178" width="16" height="16" transform="rotate(0,378,186)"/><path d="M 370 242v 16h 8a 8 8, 0, 0, 0, 0 -16" transform="rotate(180,378,250)"/><rect x="370" y="274" width="16" height="16" transform="rotate(0,378,282)"/><rect x="370" y="290" width="16" height="16" transform="rotate(0,378,298)"/><rect x="370" y="306" width="16" height="16" transform="rotate(0,378,314)"/><rect x="370" y="322" width="16" height="16" transform="rotate(0,378,330)"/><rect x="370" y="338" width="16" height="16" transform="rotate(0,378,346)"/><circle cx="378" cy="378" r="8" transform="rotate(0,378,378)"/><rect x="370" y="402" width="16" height="16" transform="rotate(0,378,410)"/><path d="M 370 434v 16h 8a 8 8, 0, 0, 0, 0 -16" transform="rotate(-90,378,442)"/><rect x="370" y="450" width="16" height="16" transform="rotate(0,378,458)"/><path d="M 386 146v 16h 8a 8 8, 0, 0, 0, 0 -16" transform="rotate(-90,394,154)"/><rect x="386" y="162" width="16" height="16" transform="rotate(0,394,170)"/><rect x="386" y="178" width="16" height="16" transform="rotate(0,394,186)"/><path d="M 386 194v 16h 8a 8 8, 0, 0, 0, 0 -16" transform="rotate(90,394,202)"/><path d="M 386 226v 16h 16v -8a 8 8, 0, 0, 0, -8 -8" transform="rotate(-90,394,234)"/><rect x="386" y="242" width="16" height="16" transform="rotate(0,394,250)"/><rect x="386" y="258" width="16" height="16" transform="rotate(0,394,266)"/><path d="M 386 274v 16h 16v -8a 8 8, 0, 0, 0, -8 -8" transform="rotate(90,394,282)"/><rect x="386" y="306" width="16" height="16" transform="rotate(0,394,314)"/><rect x="386" y="338" width="16" height="16" transform="rotate(0,394,346)"/><rect x="386" y="402" width="16" height="16" transform="rotate(0,394,410)"/><rect x="386" y="450" width="16" height="16" transform="rotate(0,394,458)"/><rect x="402" y="162" width="16" height="16" transform="rotate(0,410,170)"/><rect x="402" y="178" width="16" height="16" transform="rotate(0,410,186)"/><rect x="402" y="226" width="16" height="16" transform="rotate(0,410,234)"/><rect x="402" y="258" width="16" height="16" transform="rotate(0,410,266)"/><path d="M 402 290v 16h 16v -8a 8 8, 0, 0, 0, -8 -8" transform="rotate(-90,410,298)"/><rect x="402" y="306" width="16" height="16" transform="rotate(0,410,314)"/><path d="M 402 338v 16h 16v -8a 8 8, 0, 0, 0, -8 -8" transform="rotate(0,410,346)"/><rect x="402" y="354" width="16" height="16" transform="rotate(0,410,362)"/><rect x="402" y="370" width="16" height="16" transform="rotate(0,410,378)"/><rect x="402" y="386" width="16" height="16" transform="rotate(0,410,394)"/><rect x="402" y="402" width="16" height="16" transform="rotate(0,410,410)"/><rect x="402" y="418" width="16" height="16" transform="rotate(0,410,426)"/><rect x="402" y="434" width="16" height="16" transform="rotate(0,410,442)"/><path d="M 402 450v 16h 16v -8a 8 8, 0, 0, 0, -8 -8" transform="rotate(90,410,458)"/><path d="M 418 146v 16h 16v -8a 8 8, 0, 0, 0, -8 -8" transform="rotate(-90,426,154)"/><rect x="418" y="162" width="16" height="16" transform="rotate(0,426,170)"/><path d="M 418 178v 16h 16v -8a 8 8, 0, 0, 0, -8 -8" transform="rotate(90,426,186)"/><path d="M 418 210v 16h 16v -8a 8 8, 0, 0, 0, -8 -8" transform="rotate(-90,426,218)"/><rect x="418" y="226" width="16" height="16" transform="rotate(0,426,234)"/><path d="M 418 258v 16h 16v -8a 8 8, 0, 0, 0, -8 -8" transform="rotate(0,426,266)"/><rect x="418" y="274" width="16" height="16" transform="rotate(0,426,282)"/><rect x="418" y="290" width="16" height="16" transform="rotate(0,426,298)"/><rect x="418" y="306" width="16" height="16" transform="rotate(0,426,314)"/><path d="M 418 322v 16h 8a 8 8, 0, 0, 0, 0 -16" transform="rotate(90,426,330)"/><path d="M 418 402v 16h 16v -8a 8 8, 0, 0, 0, -8 -8" transform="rotate(0,426,410)"/><rect x="418" y="418" width="16" height="16" transform="rotate(0,426,426)"/><path d="M 418 466v 16h 8a 8 8, 0, 0, 0, 0 -16" transform="rotate(180,426,474)"/><rect x="434" y="146" width="16" height="16" transform="rotate(0,442,154)"/><path d="M 434 194v 16h 16v -8a 8 8, 0, 0, 0, -8 -8" transform="rotate(-90,442,202)"/><rect x="434" y="210" width="16" height="16" transform="rotate(0,442,218)"/><path d="M 434 226v 16h 16v -8a 8 8, 0, 0, 0, -8 -8" transform="rotate(90,442,234)"/><rect x="434" y="274" width="16" height="16" transform="rotate(0,442,282)"/><rect x="434" y="290" width="16" height="16" transform="rotate(0,442,298)"/><rect x="434" y="306" width="16" height="16" transform="rotate(0,442,314)"/><path d="M 434 338v 16h 8a 8 8, 0, 0, 0, 0 -16" transform="rotate(180,442,346)"/><circle cx="442" cy="394" r="8" transform="rotate(0,442,394)"/><path d="M 434 418v 16h 8a 8 8, 0, 0, 0, 0 -16" transform="rotate(0,442,426)"/><path d="M 434 466v 16h 8a 8 8, 0, 0, 0, 0 -16" transform="rotate(0,442,474)"/><path d="M 450 146v 16h 16v -8a 8 8, 0, 0, 0, -8 -8" transform="rotate(0,458,154)"/><rect x="450" y="162" width="16" height="16" transform="rotate(0,458,170)"/><rect x="450" y="178" width="16" height="16" transform="rotate(0,458,186)"/><path d="M 450 194v 16h 16v -8a 8 8, 0, 0, 0, -8 -8" transform="rotate(90,458,202)"/><path d="M 450 242v 16h 8a 8 8, 0, 0, 0, 0 -16" transform="rotate(180,458,250)"/><rect x="450" y="274" width="16" height="16" transform="rotate(0,458,282)"/><rect x="450" y="306" width="16" height="16" transform="rotate(0,458,314)"/><rect x="450" y="322" width="16" height="16" transform="rotate(0,458,330)"/><rect x="450" y="338" width="16" height="16" transform="rotate(0,458,346)"/><circle cx="458" cy="410" r="8" transform="rotate(0,458,410)"/><path d="M 450 450v 16h 8a 8 8, 0, 0, 0, 0 -16" transform="rotate(180,458,458)"/><path d="M 466 210v 16h 8a 8 8, 0, 0, 0, 0 -16" transform="rotate(-90,474,218)"/><rect x="466" y="226" width="16" height="16" transform="rotate(0,474,234)"/><path d="M 466 242v 16h 16v -8a 8 8, 0, 0, 0, -8 -8" transform="rotate(90,474,250)"/><path d="M 466 274v 16h 8a 8 8, 0, 0, 0, 0 -16" transform="rotate(0,474,282)"/><path d="M 466 306v 16h 16v -8a 8 8, 0, 0, 0, -8 -8" transform="rotate(0,474,314)"/><rect x="466" y="322" width="16" height="16" transform="rotate(0,474,330)"/><rect x="466" y="338" width="16" height="16" transform="rotate(0,474,346)"/><rect x="466" y="354" width="16" height="16" transform="rotate(0,474,362)"/><rect x="466" y="370" width="16" height="16" transform="rotate(0,474,378)"/><path d="M 466 386v 16h 8a 8 8, 0, 0, 0, 0 -16" transform="rotate(90,474,394)"/><path d="M 466 450v 16h 8a 8 8, 0, 0, 0, 0 -16" transform="rotate(0,474,458)"/></clipPath><clipPath id="clip-path-corners-square-color-0-0"><path clip-rule="evenodd" d="M 18 58v 32a 40 40, 0, 0, 0, 40 40h 32a 40 40, 0, 0, 0, 40 -40v -32a 40 40, 0, 0, 0, -40 -40h -32a 40 40, 0, 0, 0, -40 40M 58 34h 32a 24 24, 0, 0, 1, 24 24v 32a 24 24, 0, 0, 1, -24 24h -32a 24 24, 0, 0, 1, -24 -24v -32a 24 24, 0, 0, 1, 24 -24" transform="rotate(0,74,74)"/></clipPath><clipPath id="clip-path-corners-dot-color-0-0"><rect x="50" y="50" width="48" height="48" transform="rotate(0,74,74)"/></clipPath><clipPath id="clip-path-corners-square-color-1-0"><path clip-rule="evenodd" d="M 370 58v 32a 40 40, 0, 0, 0, 40 40h 32a 40 40, 0, 0, 0, 40 -40v -32a 40 40, 0, 0, 0, -40 -40h -32a 40 40, 0, 0, 0, -40 40M 410 34h 32a 24 24, 0, 0, 1, 24 24v 32a 24 24, 0, 0, 1, -24 24h -32a 24 24, 0, 0, 1, -24 -24v -32a 24 24, 0, 0, 1, 24 -24" transform="rotate(90,426,74)"/></clipPath><clipPath id="clip-path-corners-dot-color-1-0"><rect x="402" y="50" width="48" height="48" transform="rotate(90,426,74)"/></clipPath><clipPath id="clip-path-corners-square-color-0-1"><path clip-rule="evenodd" d="M 18 410v 32a 40 40, 0, 0, 0, 40 40h 32a 40 40, 0, 0, 0, 40 -40v -32a 40 40, 0, 0, 0, -40 -40h -32a 40 40, 0, 0, 0, -40 40M 58 386h 32a 24 24, 0, 0, 1, 24 24v 32a 24 24, 0, 0, 1, -24 24h -32a 24 24, 0, 0, 1, -24 -24v -32a 24 24, 0, 0, 1, 24 -24" transform="rotate(-90,74,426)"/></clipPath><clipPath id="clip-path-corners-dot-color-0-1"><rect x="50" y="402" width="48" height="48" transform="rotate(-90,74,426)"/></clipPath></defs><rect x="0" y="0" height="500" width="500" clip-path="url('#clip-path-background-color')" fill="#fff"/><rect x="0" y="0" height="500" width="500" clip-path="url('#clip-path-dot-color')" fill="#000000"/><rect x="18" y="18" height="112" width="112" clip-path="url('#clip-path-corners-square-color-0-0')" fill="#000000"/><rect x="50" y="50" height="48" width="48" clip-path="url('#clip-path-corners-dot-color-0-0')" fill="#000000"/><rect x="370" y="18" height="112" width="112" clip-path="url('#clip-path-corners-square-color-1-0')" fill="#000000"/><rect x="402" y="50" height="48" width="48" clip-path="url('#clip-path-corners-dot-color-1-0')" fill="#000000"/><rect x="18" y="370" height="112" width="112" clip-path="url('#clip-path-corners-square-color-0-1')" fill="#000000"/><rect x="50" y="402" height="48" width="48" clip-path="url('#clip-path-corners-dot-color-0-1')" fill="#000000"/></svg>