<?xml version="1.0" encoding="utf-8"?>
<!-- Generator: Adobe Illustrator 26.4.1, SVG Export Plug-In . SVG Version: 6.00 Build 0)  -->
<svg version="1.1" id="Capa_1" xmlns="http://www.w3.org/2000/svg" xmlns:xlink="http://www.w3.org/1999/xlink" x="0px" y="0px"
	 viewBox="0 0 1024 186.9" style="enable-background:new 0 0 1024 186.9;" xml:space="preserve">
<style type="text/css">
	.st0{fill:url(#SVGID_1_);}
	.st1{fill:#FFFFFF;}
	.st2{fill:#00E39D;}
	.st3{fill:#3F5FEA;}
</style>
<g>
	<linearGradient id="SVGID_1_" gradientUnits="userSpaceOnUse" x1="225.5754" y1="227.3334" x2="743.5638" y2="-74.7526">
		<stop  offset="0" style="stop-color:#3F5FEA"/>
		<stop  offset="1" style="stop-color:#00E39D"/>
	</linearGradient>
	<path class="st0" d="M164.6,99.4h-10.5V88.9h10.5V99.4z M164.6,88.9V78.4V67.9V57.3V46.8h10.5v10.5v10.5v10.5v10.5H164.6z
		 M175.1,141.5h-10.5V131v-10.5v-10.5V99.4h10.5v10.5v10.5V131V141.5z M185.7,36.3h10.5v10.5h-10.5h-10.5V36.3H185.7z M185.7,141.5
		h10.5V152h-10.5h-10.5v-10.5H185.7z M227.7,120.5h-10.5v-10.5V99.4V88.9V78.4V67.9V57.3V46.8V36.3h10.5v10.5v10.5v10.5v10.5v10.5
		v10.5v10.5V120.5z M259.3,120.5h10.5V131h-10.5h-10.5h-10.5h-10.5v-10.5h10.5h10.5H259.3z M269.8,120.5v-10.5V99.4V88.9V78.4V67.9
		V57.3V46.8V36.3h10.5v10.5v10.5v10.5v10.5v10.5v10.5v10.5v10.5H269.8z M301.4,131v-10.5v-10.5V99.4V88.9V78.4V67.9V57.3h10.5v10.5
		h10.5v10.5h-10.5v10.5v10.5v10.5v10.5V131H301.4z M343.5,67.9h-10.5h-10.5V57.3h10.5h10.5V67.9z M343.5,131v-10.5v-10.5V99.4V88.9
		V78.4V67.9H354v10.5v10.5v10.5v10.5v10.5V131H343.5z M375,57.3V46.8h10.5v10.5H375z M375,131v-10.5v-10.5V99.4V88.9V78.4V67.9h10.5
		v10.5v10.5v10.5v10.5v10.5V131H375z M417.1,120.5h-10.5v-10.5V99.4V88.9V78.4V67.9V57.3V46.8h10.5v10.5v10.5v10.5v10.5v10.5v10.5
		V120.5z M459.2,46.8h-10.5h-10.5h-10.5h-10.5V36.3h10.5h10.5h10.5h10.5V46.8z M448.7,120.5h10.5V131h-10.5h-10.5h-10.5h-10.5v-10.5
		h10.5h10.5H448.7z M459.2,57.3V46.8h10.5v10.5H459.2z M459.2,120.5v-10.5h10.5v10.5H459.2z M501.3,120.5h-10.5v-10.5V99.4V88.9
		V78.4V67.9h10.5v10.5v10.5v10.5v10.5V120.5z M532.8,67.9h-10.5h-10.5h-10.5V57.3h10.5h10.5h10.5V67.9z M522.3,120.5h10.5V131h-10.5
		h-10.5h-10.5v-10.5h10.5H522.3z M532.8,120.5v-10.5V99.4V88.9V78.4V67.9h10.5v10.5v10.5v10.5v10.5v10.5H532.8z M574.9,120.5h-10.5
		v-10.5V99.4V88.9V78.4V67.9h10.5v10.5v10.5v10.5v10.5V120.5z M606.5,131v-10.5h-10.5V131h-10.5h-10.5v-10.5h10.5h10.5v-10.5h10.5
		V99.4V88.9V78.4h-10.5V67.9h10.5V57.3V46.8V36.3H617v10.5v10.5v10.5v10.5v10.5v10.5v10.5v10.5V131H606.5z M595.9,67.9h-10.5h-10.5
		V57.3h10.5h10.5V67.9z M648.5,120.5H638v-10.5V99.4V88.9V78.4V67.9h10.5v10.5v10.5h10.5h10.5h10.5V78.4V67.9h10.5v10.5v10.5v10.5
		h-10.5h-10.5h-10.5h-10.5v10.5V120.5z M680.1,67.9h-10.5h-10.5h-10.5V57.3h10.5h10.5h10.5V67.9z M669.6,120.5h10.5V131h-10.5h-10.5
		h-10.5v-10.5h10.5H669.6z M680.1,120.5v-10.5h10.5v10.5H680.1z M732.7,46.8h-10.5h-10.5V36.3h10.5h10.5V46.8z M722.2,141.5h10.5
		V152h-10.5h-10.5v-10.5H722.2z M743.2,88.9h-10.5V78.4V67.9V57.3V46.8h10.5v10.5v10.5v10.5V88.9z M732.7,141.5V131v-10.5v-10.5
		V99.4h10.5v10.5v10.5V131v10.5H732.7z M743.2,99.4V88.9h10.5v10.5H743.2z"/>
	<g>
		<path class="st1" d="M784.2,60.6h5.5v6.3c0,1.2-0.2,2.3-0.5,3.4c-0.3,1.1-0.9,2-1.6,2.8c-0.7,0.8-1.7,1.5-2.8,2
			c-1.1,0.5-2.5,0.7-4,0.7c-1.6,0-3-0.2-4.2-0.7c-1.1-0.5-2.1-1.1-2.8-1.9c-0.7-0.8-1.3-1.8-1.6-2.8c-0.3-1.1-0.5-2.2-0.5-3.4V47
			h5.8v6h12.3v4.2h-12.3v9.1c0,1.4,0.3,2.5,0.8,3.3c0.5,0.8,1.4,1.2,2.6,1.2c1.2,0,2-0.4,2.6-1.1c0.6-0.8,0.8-1.8,0.8-3.2V60.6z"/>
		<path class="st1" d="M808.6,75.2V61.5c0-1.7-0.3-2.8-0.9-3.5c-0.6-0.6-1.6-0.9-2.9-0.9c-0.7,0-1.4,0.1-1.9,0.4
			c-0.6,0.3-1.1,0.7-1.4,1.2c-0.4,0.5-0.7,1.1-0.9,1.7c-0.2,0.6-0.3,1.3-0.3,2.1v12.7h-5.9V44.9h5.9v11c0.2-0.5,0.5-0.9,1-1.4
			c0.4-0.4,0.9-0.8,1.5-1.1c0.6-0.3,1.2-0.5,1.9-0.7c0.7-0.2,1.4-0.3,2.2-0.3c2.3,0,4.1,0.6,5.6,1.9c1.4,1.2,2.1,3,2.1,5.2v15.7
			H808.6z"/>
		<path class="st1" d="M824.8,65.7c0.1,1.7,0.6,3,1.5,4c0.9,1,2.1,1.5,3.5,1.5c1,0,1.8-0.2,2.6-0.7c0.7-0.4,1.2-1,1.4-1.8h6
			c-0.7,2.3-1.9,4-3.6,5.3c-1.7,1.2-3.8,1.9-6.1,1.9c-7.4,0-11.1-4-11.1-12.1c0-1.7,0.2-3.3,0.7-4.6c0.5-1.4,1.2-2.6,2.1-3.6
			c0.9-1,2-1.8,3.4-2.3c1.3-0.5,2.8-0.8,4.6-0.8c3.4,0,6,1.1,7.8,3.3c1.8,2.2,2.6,5.5,2.6,9.9H824.8z M834.1,62
			c0-0.8-0.2-1.5-0.4-2.1c-0.3-0.6-0.6-1.1-1-1.5c-0.4-0.4-0.9-0.7-1.4-0.9c-0.5-0.2-1.1-0.3-1.7-0.3c-1.2,0-2.2,0.4-3,1.3
			c-0.9,0.9-1.3,2.1-1.5,3.6H834.1z"/>
	</g>
	<g>
		<path class="st2" d="M771.4,114.1V85.7h11c1.9,0,3.7,0.3,5.3,1c1.6,0.6,3,1.6,4.2,2.8c1.2,1.2,2.1,2.7,2.7,4.4
			c0.7,1.7,1,3.7,1,5.8c0,2.2-0.3,4.1-0.9,5.9c-0.6,1.8-1.4,3.3-2.5,4.6c-1.1,1.3-2.4,2.3-3.9,3c-1.5,0.7-3.2,1-5,1H771.4z
			 M782.1,109.3c2.6,0,4.5-0.8,5.7-2.4c1.2-1.6,1.8-4,1.8-7.3c0-1.6-0.1-3-0.4-4.1c-0.3-1.1-0.7-2.1-1.4-2.8
			c-0.6-0.7-1.5-1.3-2.5-1.6c-1-0.3-2.2-0.5-3.6-0.5h-4.4v18.7H782.1z"/>
		<path class="st2" d="M799.6,114.1V85.7h20.9v5h-15.1v6.1h13.9v5h-13.9v7.3h15.8v5.1H799.6z"/>
		<path class="st2" d="M833.4,114.1l-9.6-28.4h6.3l6.2,19.9l6.2-19.9h6.2l-9.6,28.4H833.4z"/>
		<path class="st2" d="M852.3,114.1V85.7h20.9v5H858v6.1h13.9v5H858v7.3h15.8v5.1H852.3z"/>
		<path class="st2" d="M877.3,114.1V85.7h6v23.2h14.1v5.2H877.3z"/>
		<path class="st2" d="M912.6,115.1c-4.4,0-7.8-1.3-10.1-3.9c-2.4-2.6-3.5-6.3-3.5-11.1c0-2.4,0.3-4.6,0.9-6.5
			c0.6-1.9,1.5-3.5,2.7-4.9c1.2-1.3,2.6-2.3,4.3-3c1.7-0.7,3.6-1,5.8-1c2.2,0,4.1,0.3,5.8,1c1.7,0.7,3.1,1.7,4.3,3.1
			c1.1,1.3,2,3,2.6,4.9c0.6,1.9,0.9,4.1,0.9,6.5c0,4.9-1.2,8.6-3.5,11.1C920.4,113.8,917,115.1,912.6,115.1z M912.6,110
			c1.1,0,2.1-0.2,3-0.6c0.9-0.4,1.8-1,2.5-1.8c0.7-0.8,1.2-1.8,1.6-3c0.4-1.2,0.6-2.7,0.6-4.4c0-3.4-0.7-5.9-2-7.7
			c-1.3-1.7-3.2-2.6-5.7-2.6c-2.5,0-4.4,0.9-5.8,2.6c-1.3,1.7-2,4.3-2,7.7c0,3.4,0.7,5.8,2,7.4C908.2,109.2,910.1,110,912.6,110z"/>
		<path class="st2" d="M930.3,114.1V85.7h12.5c1.4,0,2.7,0.2,3.8,0.7c1.1,0.5,2.1,1.1,2.9,2c0.8,0.8,1.4,1.8,1.8,2.9
			c0.4,1.1,0.6,2.3,0.6,3.6c0,1.3-0.2,2.5-0.6,3.6c-0.4,1.1-1,2-1.8,2.8c-0.8,0.8-1.8,1.4-2.9,1.8c-1.1,0.4-2.4,0.7-3.8,0.7h-6.6
			v10.3H930.3z M941.9,99c1.7,0,2.9-0.4,3.7-1.2c0.8-0.8,1.1-1.8,1.1-3.1c0-1.2-0.4-2.2-1.1-3c-0.8-0.8-2-1.2-3.7-1.2h-5.6V99H941.9
			z"/>
		<path class="st2" d="M955.3,114.1V85.7h20.9v5h-15.1v6.1H975v5h-13.9v7.3h15.8v5.1H955.3z"/>
		<path class="st2" d="M996.9,114.1v-7.3c0-1.4-0.3-2.3-0.9-2.9c-0.6-0.6-1.8-0.9-3.5-0.9h-6.3v11.1h-5.8V85.7h14.4
			c1.3,0,2.5,0.2,3.6,0.6c1.1,0.4,2,1,2.8,1.7c0.8,0.7,1.4,1.6,1.8,2.6c0.4,1,0.6,2.1,0.6,3.3c0,1.5-0.4,2.9-1.1,4.1
			c-0.7,1.2-1.8,2-3.1,2.5c1.3,0.4,2.1,1,2.7,1.8c0.5,0.8,0.8,2.1,0.8,3.7v8H996.9z M986.1,90.6v7.6h7.4c1.6,0,2.7-0.4,3.4-1.1
			c0.7-0.7,1-1.6,1-2.7c0-1.1-0.3-2-1-2.7c-0.6-0.7-1.7-1.1-3.2-1.1H986.1z"/>
	</g>
	<g>
		<path class="st1" d="M782.6,128.1c-0.1-1-0.5-1.8-1.1-2.3c-0.6-0.5-1.6-0.8-2.9-0.8c-2.4,0-3.6,0.8-3.6,2.5c0,0.6,0.2,1.1,0.7,1.5
			c0.5,0.4,1.3,0.7,2.4,1c1.3,0.3,2.4,0.6,3.4,0.9c1,0.3,1.8,0.6,2.6,0.9c0.4,0.2,0.9,0.4,1.3,0.7c0.4,0.3,0.7,0.6,1,1
			c0.3,0.4,0.5,0.9,0.7,1.5c0.2,0.6,0.2,1.3,0.2,2.1c0,1-0.2,1.8-0.6,2.6c-0.4,0.8-1,1.4-1.6,1.9c-0.7,0.5-1.5,0.9-2.4,1.2
			c-0.9,0.3-1.9,0.4-3,0.4c-2.9,0-5.2-0.6-6.6-1.7c-1.5-1.1-2.3-2.8-2.3-5.1h4.1c0,1,0.4,1.9,1.3,2.5c0.8,0.6,1.9,0.9,3.1,0.9
			c1.3,0,2.4-0.2,3-0.7c0.7-0.5,1-1.1,1-2c0-0.3,0-0.6-0.1-0.9c-0.1-0.3-0.2-0.5-0.5-0.7c-0.2-0.2-0.6-0.4-1-0.6
			c-0.4-0.2-0.9-0.3-1.6-0.5c-1.5-0.3-2.9-0.7-4-1c-1.1-0.3-2.1-0.8-2.8-1.2c-0.7-0.5-1.3-1.1-1.6-1.8c-0.3-0.7-0.5-1.6-0.5-2.7
			c0-0.8,0.2-1.6,0.5-2.3c0.3-0.7,0.8-1.4,1.4-1.9c0.6-0.5,1.4-1,2.3-1.3c0.9-0.3,2-0.5,3.3-0.5c1.2,0,2.3,0.2,3.3,0.5
			c1,0.3,1.8,0.8,2.5,1.3s1.2,1.3,1.6,2.1c0.4,0.8,0.6,1.7,0.6,2.7H782.6z"/>
		<path class="st1" d="M803.5,137c-0.1,0.9-0.3,1.7-0.7,2.4c-0.4,0.7-0.9,1.3-1.5,1.8c-0.6,0.5-1.3,0.9-2.1,1.2
			c-0.8,0.3-1.6,0.4-2.5,0.4c-1,0-1.9-0.2-2.8-0.5c-0.8-0.3-1.6-0.8-2.2-1.5c-0.6-0.7-1.1-1.5-1.4-2.5c-0.3-1-0.5-2.2-0.5-3.5
			c0-1.3,0.2-2.5,0.5-3.5c0.3-1,0.8-1.8,1.4-2.4c0.6-0.6,1.3-1.1,2.2-1.4c0.9-0.3,1.8-0.5,2.9-0.5c1,0,1.9,0.1,2.7,0.4
			c0.8,0.3,1.5,0.6,2.1,1.2c0.6,0.5,1.1,1.1,1.4,1.8c0.3,0.7,0.5,1.5,0.6,2.4h-4c-0.1-0.8-0.4-1.4-0.9-1.8c-0.5-0.4-1.2-0.7-1.9-0.7
			c-0.4,0-0.8,0.1-1.2,0.2c-0.4,0.1-0.7,0.4-1,0.7c-0.3,0.3-0.5,0.8-0.7,1.3c-0.2,0.6-0.2,1.2-0.2,2.1c0,1.6,0.3,2.9,0.9,3.7
			c0.6,0.8,1.3,1.2,2,1.2c0.8,0,1.4-0.2,2-0.6c0.5-0.4,0.9-1,0.9-1.9H803.5z"/>
		<path class="st1" d="M815.8,142.4v-9.3c0-1.1-0.2-1.9-0.6-2.3c-0.4-0.4-1.1-0.6-2-0.6c-0.5,0-0.9,0.1-1.3,0.3
			c-0.4,0.2-0.7,0.5-1,0.8c-0.3,0.3-0.5,0.7-0.6,1.2c-0.1,0.4-0.2,0.9-0.2,1.4v8.6h-4v-20.5h4v7.4c0.1-0.3,0.4-0.6,0.7-0.9
			c0.3-0.3,0.6-0.5,1-0.7c0.4-0.2,0.8-0.4,1.3-0.5c0.5-0.1,1-0.2,1.5-0.2c1.5,0,2.8,0.4,3.8,1.3c1,0.8,1.4,2,1.4,3.5v10.6H815.8z"/>
		<path class="st1" d="M830.5,142.8c-1.2,0-2.3-0.2-3.3-0.6c-1-0.4-1.8-0.9-2.4-1.6c-0.7-0.7-1.2-1.5-1.5-2.5c-0.3-1-0.5-2-0.5-3.2
			c0-1.2,0.2-2.3,0.5-3.2c0.4-1,0.9-1.8,1.5-2.5c0.7-0.7,1.5-1.2,2.4-1.6c0.9-0.4,2-0.6,3.2-0.6c1.2,0,2.2,0.2,3.2,0.6
			c0.9,0.4,1.7,0.9,2.4,1.6c0.7,0.7,1.2,1.5,1.5,2.5c0.4,1,0.5,2.1,0.5,3.3c0,1.2-0.2,2.3-0.5,3.2c-0.4,1-0.9,1.8-1.5,2.5
			c-0.7,0.7-1.5,1.2-2.4,1.6C832.7,142.6,831.6,142.8,830.5,142.8z M830.5,139.5c2.4,0,3.6-1.5,3.6-4.6c0-3-1.2-4.5-3.6-4.5
			c-2.4,0-3.6,1.5-3.6,4.5C826.8,137.9,828,139.5,830.5,139.5z"/>
		<path class="st1" d="M848.4,142.8c-1.2,0-2.3-0.2-3.3-0.6c-1-0.4-1.8-0.9-2.4-1.6c-0.7-0.7-1.2-1.5-1.5-2.5c-0.3-1-0.5-2-0.5-3.2
			c0-1.2,0.2-2.3,0.5-3.2c0.4-1,0.9-1.8,1.5-2.5c0.7-0.7,1.5-1.2,2.4-1.6c0.9-0.4,2-0.6,3.2-0.6c1.2,0,2.2,0.2,3.2,0.6
			c0.9,0.4,1.7,0.9,2.4,1.6c0.7,0.7,1.2,1.5,1.5,2.5c0.4,1,0.5,2.1,0.5,3.3c0,1.2-0.2,2.3-0.5,3.2c-0.4,1-0.9,1.8-1.5,2.5
			c-0.7,0.7-1.5,1.2-2.4,1.6C850.7,142.6,849.6,142.8,848.4,142.8z M848.4,139.5c2.4,0,3.6-1.5,3.6-4.6c0-3-1.2-4.5-3.6-4.5
			c-2.4,0-3.6,1.5-3.6,4.5C844.8,137.9,846,139.5,848.4,139.5z"/>
		<path class="st1" d="M859.1,142.4v-20.5h4v20.5H859.1z"/>
	</g>
	<g>
		<path class="st2" d="M142,75.2c0,9.6-0.2,19.2,0.1,28.8c0.2,5.2-0.8,9.9-3.6,14c-5,7-9.9,14.1-15.8,20.2
			c-9.9,10.2-21.9,17.9-34.6,24.2c-1.3,0.7-3.5,1-4.8,0.3c-16.1-8.1-30.8-18.3-42.6-32.1c-2.4-2.8-4.5-5.8-6.5-8.9
			c-3.9-5.9-5.9-12.2-5.7-19.5c0.4-19.7,0.2-39.4,0.1-59.1c0-2.8,0.8-4.3,3.5-5.3c35.6-13.6,71.2-13.6,106.8,0.2
			c2.3,0.9,3.3,2.1,3.2,4.7C141.9,53.5,142,64.4,142,75.2z"/>
		<path class="st3" d="M112.1,73.4L95.7,44.8H78.3L53.2,88l24.7,43.2H96l16-29.3L104,88L112.1,73.4z M95,101.9l-7.7,13.9L70.6,87.6
			l16-27.9L95,73.4l-7.7,13.9L95,101.9z"/>
	</g>
</g>
</svg>
