<?xml version="1.0" encoding="utf-8"?>
<!-- Generator: Adobe Illustrator 26.4.1, SVG Export Plug-In . SVG Version: 6.00 Build 0)  -->
<svg version="1.1" id="Capa_1" xmlns="http://www.w3.org/2000/svg" xmlns:xlink="http://www.w3.org/1999/xlink" x="0px" y="0px"
	 viewBox="0 0 888.9 186.9" style="enable-background:new 0 0 888.9 186.9;" xml:space="preserve">
<style type="text/css">
	.st0{fill:url(#SVGID_1_);}
	.st1{fill:#FFFFFF;}
	.st2{fill:#00E39D;}
</style>
<g>
	<linearGradient id="SVGID_1_" gradientUnits="userSpaceOnUse" x1="90.4268" y1="227.3334" x2="608.4152" y2="-74.7526">
		<stop  offset="0" style="stop-color:#3F5FEA"/>
		<stop  offset="1" style="stop-color:#00E39D"/>
	</linearGradient>
	<path class="st0" d="M29.5,99.4H18.9V88.9h10.5V99.4z M29.5,88.9V78.4V67.9V57.3V46.8H40v10.5v10.5v10.5v10.5H29.5z M40,141.5H29.5
		V131v-10.5v-10.5V99.4H40v10.5v10.5V131V141.5z M50.5,36.3H61v10.5H50.5H40V36.3H50.5z M50.5,141.5H61V152H50.5H40v-10.5H50.5z
		 M92.6,120.5H82.1v-10.5V99.4V88.9V78.4V67.9V57.3V46.8V36.3h10.5v10.5v10.5v10.5v10.5v10.5v10.5v10.5V120.5z M124.1,120.5h10.5
		V131h-10.5h-10.5h-10.5H92.6v-10.5h10.5h10.5H124.1z M134.7,120.5v-10.5V99.4V88.9V78.4V67.9V57.3V46.8V36.3h10.5v10.5v10.5v10.5
		v10.5v10.5v10.5v10.5v10.5H134.7z M166.2,131v-10.5v-10.5V99.4V88.9V78.4V67.9V57.3h10.5v10.5h10.5v10.5h-10.5v10.5v10.5v10.5v10.5
		V131H166.2z M208.3,67.9h-10.5h-10.5V57.3h10.5h10.5V67.9z M208.3,131v-10.5v-10.5V99.4V88.9V78.4V67.9h10.5v10.5v10.5v10.5v10.5
		v10.5V131H208.3z M239.9,57.3V46.8h10.5v10.5H239.9z M239.9,131v-10.5v-10.5V99.4V88.9V78.4V67.9h10.5v10.5v10.5v10.5v10.5v10.5
		V131H239.9z M281.9,120.5h-10.5v-10.5V99.4V88.9V78.4V67.9V57.3V46.8h10.5v10.5v10.5v10.5v10.5v10.5v10.5V120.5z M324,46.8h-10.5
		H303h-10.5h-10.5V36.3h10.5H303h10.5H324V46.8z M313.5,120.5H324V131h-10.5H303h-10.5h-10.5v-10.5h10.5H303H313.5z M324,57.3V46.8
		h10.5v10.5H324z M324,120.5v-10.5h10.5v10.5H324z M366.1,120.5h-10.5v-10.5V99.4V88.9V78.4V67.9h10.5v10.5v10.5v10.5v10.5V120.5z
		 M397.7,67.9h-10.5h-10.5h-10.5V57.3h10.5h10.5h10.5V67.9z M387.1,120.5h10.5V131h-10.5h-10.5h-10.5v-10.5h10.5H387.1z
		 M397.7,120.5v-10.5V99.4V88.9V78.4V67.9h10.5v10.5v10.5v10.5v10.5v10.5H397.7z M439.7,120.5h-10.5v-10.5V99.4V88.9V78.4V67.9h10.5
		v10.5v10.5v10.5v10.5V120.5z M471.3,131v-10.5h-10.5V131h-10.5h-10.5v-10.5h10.5h10.5v-10.5h10.5V99.4V88.9V78.4h-10.5V67.9h10.5
		V57.3V46.8V36.3h10.5v10.5v10.5v10.5v10.5v10.5v10.5v10.5v10.5V131H471.3z M460.8,67.9h-10.5h-10.5V57.3h10.5h10.5V67.9z
		 M513.4,120.5h-10.5v-10.5V99.4V88.9V78.4V67.9h10.5v10.5v10.5h10.5h10.5h10.5V78.4V67.9h10.5v10.5v10.5v10.5h-10.5h-10.5h-10.5
		h-10.5v10.5V120.5z M544.9,67.9h-10.5h-10.5h-10.5V57.3h10.5h10.5h10.5V67.9z M534.4,120.5h10.5V131h-10.5h-10.5h-10.5v-10.5h10.5
		H534.4z M544.9,120.5v-10.5h10.5v10.5H544.9z M597.5,46.8H587h-10.5V36.3H587h10.5V46.8z M587,141.5h10.5V152H587h-10.5v-10.5H587z
		 M608.1,88.9h-10.5V78.4V67.9V57.3V46.8h10.5v10.5v10.5v10.5V88.9z M597.5,141.5V131v-10.5v-10.5V99.4h10.5v10.5v10.5V131v10.5
		H597.5z M608.1,99.4V88.9h10.5v10.5H608.1z"/>
	<g>
		<path class="st1" d="M649.1,60.6h5.5v6.3c0,1.2-0.2,2.3-0.5,3.4c-0.3,1.1-0.9,2-1.6,2.8c-0.7,0.8-1.7,1.5-2.8,2
			c-1.1,0.5-2.5,0.7-4,0.7c-1.6,0-3-0.2-4.2-0.7c-1.1-0.5-2.1-1.1-2.8-1.9c-0.7-0.8-1.3-1.8-1.6-2.8c-0.3-1.1-0.5-2.2-0.5-3.4V47
			h5.8v6h12.3v4.2h-12.3v9.1c0,1.4,0.3,2.5,0.8,3.3c0.5,0.8,1.4,1.2,2.6,1.2c1.2,0,2-0.4,2.6-1.1c0.6-0.8,0.8-1.8,0.8-3.2V60.6z"/>
		<path class="st1" d="M673.4,75.2V61.5c0-1.7-0.3-2.8-0.9-3.5c-0.6-0.6-1.6-0.9-2.9-0.9c-0.7,0-1.4,0.1-1.9,0.4
			c-0.6,0.3-1.1,0.7-1.4,1.2c-0.4,0.5-0.7,1.1-0.9,1.7c-0.2,0.6-0.3,1.3-0.3,2.1v12.7h-5.9V44.9h5.9v11c0.2-0.5,0.5-0.9,1-1.4
			c0.4-0.4,0.9-0.8,1.5-1.1c0.6-0.3,1.2-0.5,1.9-0.7c0.7-0.2,1.4-0.3,2.2-0.3c2.3,0,4.1,0.6,5.6,1.9c1.4,1.2,2.1,3,2.1,5.2v15.7
			H673.4z"/>
		<path class="st1" d="M689.6,65.7c0.1,1.7,0.6,3,1.5,4c0.9,1,2.1,1.5,3.5,1.5c1,0,1.8-0.2,2.6-0.7c0.7-0.4,1.2-1,1.4-1.8h6
			c-0.7,2.3-1.9,4-3.6,5.3c-1.7,1.2-3.8,1.9-6.1,1.9c-7.4,0-11.1-4-11.1-12.1c0-1.7,0.2-3.3,0.7-4.6c0.5-1.4,1.2-2.6,2.1-3.6
			c0.9-1,2-1.8,3.4-2.3c1.3-0.5,2.8-0.8,4.6-0.8c3.4,0,6,1.1,7.8,3.3c1.8,2.2,2.6,5.5,2.6,9.9H689.6z M698.9,62
			c0-0.8-0.2-1.5-0.4-2.1c-0.3-0.6-0.6-1.1-1-1.5c-0.4-0.4-0.9-0.7-1.4-0.9c-0.5-0.2-1.1-0.3-1.7-0.3c-1.2,0-2.2,0.4-3,1.3
			c-0.9,0.9-1.3,2.1-1.5,3.6H698.9z"/>
	</g>
	<g>
		<path class="st2" d="M636.3,114.1V85.7h11c1.9,0,3.7,0.3,5.3,1c1.6,0.6,3,1.6,4.2,2.8c1.2,1.2,2.1,2.7,2.7,4.4
			c0.7,1.7,1,3.7,1,5.8c0,2.2-0.3,4.1-0.9,5.9c-0.6,1.8-1.4,3.3-2.5,4.6c-1.1,1.3-2.4,2.3-3.9,3c-1.5,0.7-3.2,1-5,1H636.3z
			 M647,109.3c2.6,0,4.5-0.8,5.7-2.4c1.2-1.6,1.8-4,1.8-7.3c0-1.6-0.1-3-0.4-4.1c-0.3-1.1-0.7-2.1-1.4-2.8c-0.6-0.7-1.5-1.3-2.5-1.6
			c-1-0.3-2.2-0.5-3.6-0.5h-4.4v18.7H647z"/>
		<path class="st2" d="M664.5,114.1V85.7h20.9v5h-15.1v6.1h13.9v5h-13.9v7.3h15.8v5.1H664.5z"/>
		<path class="st2" d="M698.3,114.1l-9.6-28.4h6.3l6.2,19.9l6.2-19.9h6.2l-9.6,28.4H698.3z"/>
		<path class="st2" d="M717.1,114.1V85.7H738v5h-15.1v6.1h13.9v5h-13.9v7.3h15.8v5.1H717.1z"/>
		<path class="st2" d="M742.1,114.1V85.7h6v23.2h14.1v5.2H742.1z"/>
		<path class="st2" d="M777.5,115.1c-4.4,0-7.8-1.3-10.1-3.9c-2.4-2.6-3.5-6.3-3.5-11.1c0-2.4,0.3-4.6,0.9-6.5
			c0.6-1.9,1.5-3.5,2.7-4.9c1.2-1.3,2.6-2.3,4.3-3c1.7-0.7,3.6-1,5.8-1c2.2,0,4.1,0.3,5.8,1c1.7,0.7,3.1,1.7,4.3,3.1
			c1.1,1.3,2,3,2.6,4.9c0.6,1.9,0.9,4.1,0.9,6.5c0,4.9-1.2,8.6-3.5,11.1C785.2,113.8,781.9,115.1,777.5,115.1z M777.5,110
			c1.1,0,2.1-0.2,3-0.6c0.9-0.4,1.8-1,2.5-1.8c0.7-0.8,1.2-1.8,1.6-3c0.4-1.2,0.6-2.7,0.6-4.4c0-3.4-0.7-5.9-2-7.7
			c-1.3-1.7-3.2-2.6-5.7-2.6c-2.5,0-4.4,0.9-5.8,2.6c-1.3,1.7-2,4.3-2,7.7c0,3.4,0.7,5.8,2,7.4C773.1,109.2,775,110,777.5,110z"/>
		<path class="st2" d="M795.1,114.1V85.7h12.5c1.4,0,2.7,0.2,3.8,0.7s2.1,1.1,2.9,2c0.8,0.8,1.4,1.8,1.8,2.9
			c0.4,1.1,0.6,2.3,0.6,3.6c0,1.3-0.2,2.5-0.6,3.6c-0.4,1.1-1,2-1.8,2.8c-0.8,0.8-1.8,1.4-2.9,1.8c-1.1,0.4-2.4,0.7-3.8,0.7h-6.6
			v10.3H795.1z M806.7,99c1.7,0,2.9-0.4,3.7-1.2c0.8-0.8,1.1-1.8,1.1-3.1c0-1.2-0.4-2.2-1.1-3c-0.8-0.8-2-1.2-3.7-1.2h-5.6V99H806.7
			z"/>
		<path class="st2" d="M820.2,114.1V85.7h20.9v5H826v6.1h13.9v5H826v7.3h15.8v5.1H820.2z"/>
		<path class="st2" d="M861.8,114.1v-7.3c0-1.4-0.3-2.3-0.9-2.9c-0.6-0.6-1.8-0.9-3.5-0.9H851v11.1h-5.8V85.7h14.4
			c1.3,0,2.5,0.2,3.6,0.6c1.1,0.4,2,1,2.8,1.7c0.8,0.7,1.4,1.6,1.8,2.6c0.4,1,0.6,2.1,0.6,3.3c0,1.5-0.4,2.9-1.1,4.1
			c-0.7,1.2-1.8,2-3.1,2.5c1.3,0.4,2.1,1,2.7,1.8c0.5,0.8,0.8,2.1,0.8,3.7v8H861.8z M851,90.6v7.6h7.4c1.6,0,2.7-0.4,3.4-1.1
			c0.7-0.7,1-1.6,1-2.7c0-1.1-0.3-2-1-2.7c-0.6-0.7-1.7-1.1-3.2-1.1H851z"/>
	</g>
	<g>
		<path class="st1" d="M647.5,128.1c-0.1-1-0.5-1.8-1.1-2.3c-0.6-0.5-1.6-0.8-2.9-0.8c-2.4,0-3.6,0.8-3.6,2.5c0,0.6,0.2,1.1,0.7,1.5
			c0.5,0.4,1.3,0.7,2.4,1c1.3,0.3,2.4,0.6,3.4,0.9c1,0.3,1.8,0.6,2.6,0.9c0.4,0.2,0.9,0.4,1.3,0.7c0.4,0.3,0.7,0.6,1,1
			c0.3,0.4,0.5,0.9,0.7,1.5c0.2,0.6,0.2,1.3,0.2,2.1c0,1-0.2,1.8-0.6,2.6c-0.4,0.8-1,1.4-1.6,1.9s-1.5,0.9-2.4,1.2
			c-0.9,0.3-1.9,0.4-3,0.4c-2.9,0-5.2-0.6-6.6-1.7c-1.5-1.1-2.3-2.8-2.3-5.1h4.1c0,1,0.4,1.9,1.3,2.5c0.8,0.6,1.9,0.9,3.1,0.9
			c1.3,0,2.4-0.2,3-0.7c0.7-0.5,1-1.1,1-2c0-0.3,0-0.6-0.1-0.9c-0.1-0.3-0.2-0.5-0.5-0.7c-0.2-0.2-0.6-0.4-1-0.6
			c-0.4-0.2-0.9-0.3-1.6-0.5c-1.5-0.3-2.9-0.7-4-1c-1.1-0.3-2.1-0.8-2.8-1.2c-0.7-0.5-1.3-1.1-1.6-1.8c-0.3-0.7-0.5-1.6-0.5-2.7
			c0-0.8,0.2-1.6,0.5-2.3c0.3-0.7,0.8-1.4,1.4-1.9c0.6-0.5,1.4-1,2.3-1.3c0.9-0.3,2-0.5,3.3-0.5c1.2,0,2.3,0.2,3.3,0.5
			c1,0.3,1.8,0.8,2.5,1.3s1.2,1.3,1.6,2.1c0.4,0.8,0.6,1.7,0.6,2.7H647.5z"/>
		<path class="st1" d="M668.3,137c-0.1,0.9-0.3,1.7-0.7,2.4c-0.4,0.7-0.9,1.3-1.5,1.8c-0.6,0.5-1.3,0.9-2.1,1.2
			c-0.8,0.3-1.6,0.4-2.5,0.4c-1,0-1.9-0.2-2.8-0.5c-0.8-0.3-1.6-0.8-2.2-1.5c-0.6-0.7-1.1-1.5-1.4-2.5c-0.3-1-0.5-2.2-0.5-3.5
			c0-1.3,0.2-2.5,0.5-3.5c0.3-1,0.8-1.8,1.4-2.4c0.6-0.6,1.3-1.1,2.2-1.4c0.9-0.3,1.8-0.5,2.9-0.5c1,0,1.9,0.1,2.7,0.4
			c0.8,0.3,1.5,0.6,2.1,1.2c0.6,0.5,1.1,1.1,1.4,1.8c0.3,0.7,0.5,1.5,0.6,2.4h-4c-0.1-0.8-0.4-1.4-0.9-1.8c-0.5-0.4-1.2-0.7-1.9-0.7
			c-0.4,0-0.8,0.1-1.2,0.2c-0.4,0.1-0.7,0.4-1,0.7c-0.3,0.3-0.5,0.8-0.7,1.3c-0.2,0.6-0.2,1.2-0.2,2.1c0,1.6,0.3,2.9,0.9,3.7
			c0.6,0.8,1.3,1.2,2,1.2c0.8,0,1.4-0.2,2-0.6c0.5-0.4,0.9-1,0.9-1.9H668.3z"/>
		<path class="st1" d="M680.6,142.4v-9.3c0-1.1-0.2-1.9-0.6-2.3c-0.4-0.4-1-0.6-2-0.6c-0.5,0-0.9,0.1-1.3,0.3
			c-0.4,0.2-0.7,0.5-1,0.8c-0.3,0.3-0.5,0.7-0.6,1.2c-0.1,0.4-0.2,0.9-0.2,1.4v8.6h-4v-20.5h4v7.4c0.1-0.3,0.4-0.6,0.7-0.9
			c0.3-0.3,0.6-0.5,1-0.7c0.4-0.2,0.8-0.4,1.3-0.5c0.5-0.1,1-0.2,1.5-0.2c1.5,0,2.8,0.4,3.8,1.3c1,0.8,1.4,2,1.4,3.5v10.6H680.6z"/>
		<path class="st1" d="M695.3,142.8c-1.2,0-2.3-0.2-3.3-0.6c-1-0.4-1.8-0.9-2.4-1.6c-0.7-0.7-1.2-1.5-1.5-2.5c-0.3-1-0.5-2-0.5-3.2
			c0-1.2,0.2-2.3,0.5-3.2c0.4-1,0.9-1.8,1.5-2.5c0.7-0.7,1.5-1.2,2.4-1.6c0.9-0.4,2-0.6,3.2-0.6c1.2,0,2.2,0.2,3.2,0.6
			c0.9,0.4,1.7,0.9,2.4,1.6c0.7,0.7,1.2,1.5,1.5,2.5c0.4,1,0.5,2.1,0.5,3.3c0,1.2-0.2,2.3-0.5,3.2c-0.4,1-0.9,1.8-1.5,2.5
			c-0.7,0.7-1.5,1.2-2.4,1.6C697.5,142.6,696.5,142.8,695.3,142.8z M695.3,139.5c2.4,0,3.6-1.5,3.6-4.6c0-3-1.2-4.5-3.6-4.5
			s-3.6,1.5-3.6,4.5C691.7,137.9,692.9,139.5,695.3,139.5z"/>
		<path class="st1" d="M713.3,142.8c-1.2,0-2.3-0.2-3.3-0.6c-1-0.4-1.8-0.9-2.4-1.6c-0.7-0.7-1.2-1.5-1.5-2.5c-0.3-1-0.5-2-0.5-3.2
			c0-1.2,0.2-2.3,0.5-3.2c0.4-1,0.9-1.8,1.5-2.5c0.7-0.7,1.5-1.2,2.4-1.6c0.9-0.4,2-0.6,3.2-0.6c1.2,0,2.2,0.2,3.2,0.6
			c0.9,0.4,1.7,0.9,2.4,1.6c0.7,0.7,1.2,1.5,1.5,2.5c0.4,1,0.5,2.1,0.5,3.3c0,1.2-0.2,2.3-0.5,3.2c-0.4,1-0.9,1.8-1.5,2.5
			c-0.7,0.7-1.5,1.2-2.4,1.6C715.5,142.6,714.5,142.8,713.3,142.8z M713.3,139.5c2.4,0,3.6-1.5,3.6-4.6c0-3-1.2-4.5-3.6-4.5
			s-3.6,1.5-3.6,4.5C709.7,137.9,710.9,139.5,713.3,139.5z"/>
		<path class="st1" d="M723.9,142.4v-20.5h4v20.5H723.9z"/>
	</g>
</g>
</svg>
