<?xml version="1.0" encoding="utf-8"?>
<!-- Generator: Adobe Illustrator 26.4.1, SVG Export Plug-In . SVG Version: 6.00 Build 0)  -->
<svg version="1.1" id="Capa_1" xmlns="http://www.w3.org/2000/svg" xmlns:xlink="http://www.w3.org/1999/xlink" x="0px" y="0px"
	 viewBox="0 0 1024 186.9" style="enable-background:new 0 0 1024 186.9;" xml:space="preserve">
<style type="text/css">
	.st0{fill:#FFFFFF;}
	.st1{fill:#00E39D;}
</style>
<g>
	<g>
		<path class="st0" d="M151.5,56.7h5.5V63c0,1.2-0.2,2.3-0.5,3.4c-0.3,1.1-0.9,2-1.6,2.8c-0.7,0.8-1.7,1.5-2.8,2
			c-1.1,0.5-2.5,0.7-4,0.7c-1.6,0-3-0.2-4.2-0.7c-1.1-0.5-2.1-1.1-2.8-1.9c-0.7-0.8-1.3-1.8-1.6-2.8c-0.3-1.1-0.5-2.2-0.5-3.4V43.1
			h5.8v6H157v4.2h-12.3v9.1c0,1.4,0.3,2.5,0.8,3.3c0.5,0.8,1.4,1.2,2.6,1.2c1.2,0,2-0.4,2.6-1.1c0.6-0.8,0.8-1.8,0.8-3.2V56.7z"/>
		<path class="st0" d="M175.9,71.3V57.5c0-1.7-0.3-2.8-0.9-3.5c-0.6-0.6-1.6-0.9-2.9-0.9c-0.7,0-1.4,0.1-1.9,0.4
			c-0.6,0.3-1.1,0.7-1.4,1.2c-0.4,0.5-0.7,1.1-0.9,1.7c-0.2,0.6-0.3,1.3-0.3,2.1v12.7h-5.9V41h5.9v11c0.2-0.5,0.5-0.9,1-1.4
			c0.4-0.4,0.9-0.8,1.5-1.1c0.6-0.3,1.2-0.5,1.9-0.7c0.7-0.2,1.4-0.3,2.2-0.3c2.3,0,4.1,0.6,5.6,1.9c1.4,1.2,2.1,3,2.1,5.2v15.7
			H175.9z"/>
		<path class="st0" d="M192.1,61.7c0.1,1.7,0.6,3,1.5,4c0.9,1,2.1,1.5,3.5,1.5c1,0,1.8-0.2,2.6-0.7c0.7-0.4,1.2-1,1.4-1.8h6
			c-0.7,2.3-1.9,4-3.6,5.3c-1.7,1.2-3.8,1.9-6.1,1.9c-7.4,0-11.1-4-11.1-12.1c0-1.7,0.2-3.3,0.7-4.6c0.5-1.4,1.2-2.6,2.1-3.6
			c0.9-1,2-1.8,3.4-2.3c1.3-0.5,2.8-0.8,4.6-0.8c3.4,0,6,1.1,7.8,3.3c1.8,2.2,2.6,5.5,2.6,9.9H192.1z M201.4,58
			c0-0.8-0.2-1.5-0.4-2.1c-0.3-0.6-0.6-1.1-1-1.5c-0.4-0.4-0.9-0.7-1.4-0.9c-0.5-0.2-1.1-0.3-1.7-0.3c-1.2,0-2.2,0.4-3,1.3
			c-0.9,0.9-1.3,2.1-1.5,3.6H201.4z"/>
	</g>
	<g>
		<path class="st1" d="M138.8,110.2V81.7h11c1.9,0,3.7,0.3,5.3,1c1.6,0.6,3,1.6,4.2,2.8c1.2,1.2,2.1,2.7,2.7,4.4
			c0.7,1.7,1,3.7,1,5.8c0,2.2-0.3,4.1-0.9,5.9c-0.6,1.8-1.4,3.3-2.5,4.6c-1.1,1.3-2.4,2.3-3.9,3c-1.5,0.7-3.2,1-5,1H138.8z
			 M149.5,105.3c2.6,0,4.5-0.8,5.7-2.4c1.2-1.6,1.8-4,1.8-7.3c0-1.6-0.1-3-0.4-4.1c-0.3-1.1-0.7-2.1-1.4-2.8
			c-0.6-0.7-1.5-1.3-2.5-1.6c-1-0.3-2.2-0.5-3.6-0.5h-4.4v18.7H149.5z"/>
		<path class="st1" d="M167,110.2V81.7h20.9v5h-15.1v6.1h13.9v5h-13.9v7.3h15.8v5.1H167z"/>
		<path class="st1" d="M200.7,110.2l-9.6-28.4h6.3l6.2,19.9l6.2-19.9h6.2l-9.6,28.4H200.7z"/>
		<path class="st1" d="M219.6,110.2V81.7h20.9v5h-15.1v6.1h13.9v5h-13.9v7.3h15.8v5.1H219.6z"/>
		<path class="st1" d="M244.6,110.2V81.7h6V105h14.1v5.2H244.6z"/>
		<path class="st1" d="M279.9,111.1c-4.4,0-7.8-1.3-10.1-3.9c-2.4-2.6-3.5-6.3-3.5-11.1c0-2.4,0.3-4.6,0.9-6.5
			c0.6-1.9,1.5-3.5,2.7-4.9c1.2-1.3,2.6-2.3,4.3-3c1.7-0.7,3.6-1,5.8-1c2.2,0,4.1,0.3,5.8,1c1.7,0.7,3.1,1.7,4.3,3.1
			c1.1,1.3,2,3,2.6,4.9c0.6,1.9,0.9,4.1,0.9,6.5c0,4.9-1.2,8.6-3.5,11.1C287.7,109.9,284.3,111.1,279.9,111.1z M279.9,106
			c1.1,0,2.1-0.2,3-0.6c0.9-0.4,1.8-1,2.5-1.8c0.7-0.8,1.2-1.8,1.6-3c0.4-1.2,0.6-2.7,0.6-4.4c0-3.4-0.7-5.9-2-7.7
			c-1.3-1.7-3.2-2.6-5.7-2.6s-4.4,0.9-5.8,2.6c-1.3,1.7-2,4.3-2,7.7c0,3.4,0.7,5.8,2,7.4C275.5,105.3,277.4,106,279.9,106z"/>
		<path class="st1" d="M297.6,110.2V81.7h12.5c1.4,0,2.7,0.2,3.8,0.7s2.1,1.1,2.9,2c0.8,0.8,1.4,1.8,1.8,2.9
			c0.4,1.1,0.6,2.3,0.6,3.6c0,1.3-0.2,2.5-0.6,3.6c-0.4,1.1-1,2-1.8,2.8c-0.8,0.8-1.8,1.4-2.9,1.8c-1.1,0.4-2.4,0.7-3.8,0.7h-6.6
			v10.3H297.6z M309.2,95c1.7,0,2.9-0.4,3.7-1.2c0.8-0.8,1.1-1.8,1.1-3.1c0-1.2-0.4-2.2-1.1-3c-0.8-0.8-2-1.2-3.7-1.2h-5.6V95H309.2
			z"/>
		<path class="st1" d="M322.6,110.2V81.7h20.9v5h-15.1v6.1h13.9v5h-13.9v7.3h15.8v5.1H322.6z"/>
		<path class="st1" d="M364.2,110.2v-7.3c0-1.4-0.3-2.3-0.9-2.9c-0.6-0.6-1.8-0.9-3.5-0.9h-6.3v11.1h-5.8V81.7h14.4
			c1.3,0,2.5,0.2,3.6,0.6c1.1,0.4,2,1,2.8,1.7c0.8,0.7,1.4,1.6,1.8,2.6c0.4,1,0.6,2.1,0.6,3.3c0,1.5-0.4,2.9-1.1,4.1
			c-0.7,1.2-1.8,2-3.1,2.5c1.3,0.4,2.1,1,2.7,1.8c0.5,0.8,0.8,2.1,0.8,3.7v8H364.2z M353.4,86.7v7.6h7.4c1.6,0,2.7-0.4,3.4-1.1
			c0.7-0.7,1-1.6,1-2.7c0-1.1-0.3-2-1-2.7c-0.6-0.7-1.7-1.1-3.2-1.1H353.4z"/>
	</g>
	<g>
		<path class="st0" d="M149.9,124.2c-0.1-1-0.5-1.8-1.1-2.3c-0.6-0.5-1.6-0.8-2.9-0.8c-2.4,0-3.6,0.8-3.6,2.5c0,0.6,0.2,1.1,0.7,1.5
			c0.5,0.4,1.3,0.7,2.4,1c1.3,0.3,2.4,0.6,3.4,0.9c1,0.3,1.8,0.6,2.6,0.9c0.4,0.2,0.9,0.4,1.3,0.7c0.4,0.3,0.7,0.6,1,1
			c0.3,0.4,0.5,0.9,0.7,1.5c0.2,0.6,0.2,1.3,0.2,2.1c0,1-0.2,1.8-0.6,2.6c-0.4,0.8-1,1.4-1.6,1.9c-0.7,0.5-1.5,0.9-2.4,1.2
			c-0.9,0.3-1.9,0.4-3,0.4c-2.9,0-5.2-0.6-6.6-1.7c-1.5-1.1-2.3-2.8-2.3-5.1h4.1c0,1,0.4,1.9,1.3,2.5c0.8,0.6,1.9,0.9,3.1,0.9
			c1.3,0,2.4-0.2,3-0.7c0.7-0.5,1-1.1,1-2c0-0.3,0-0.6-0.1-0.9c-0.1-0.3-0.2-0.5-0.5-0.7c-0.2-0.2-0.6-0.4-1-0.6
			c-0.4-0.2-0.9-0.3-1.6-0.5c-1.5-0.3-2.9-0.7-4-1c-1.1-0.3-2.1-0.8-2.8-1.2c-0.7-0.5-1.3-1.1-1.6-1.8c-0.3-0.7-0.5-1.6-0.5-2.7
			c0-0.8,0.2-1.6,0.5-2.3c0.3-0.7,0.8-1.4,1.4-1.9c0.6-0.5,1.4-1,2.3-1.3c0.9-0.3,2-0.5,3.3-0.5c1.2,0,2.3,0.2,3.3,0.5
			c1,0.3,1.8,0.8,2.5,1.3c0.7,0.6,1.2,1.3,1.6,2.1c0.4,0.8,0.6,1.7,0.6,2.7H149.9z"/>
		<path class="st0" d="M170.8,133c-0.1,0.9-0.3,1.7-0.7,2.4c-0.4,0.7-0.9,1.3-1.5,1.8c-0.6,0.5-1.3,0.9-2.1,1.2
			c-0.8,0.3-1.6,0.4-2.5,0.4c-1,0-1.9-0.2-2.8-0.5c-0.8-0.3-1.6-0.8-2.2-1.5c-0.6-0.7-1.1-1.5-1.4-2.5c-0.3-1-0.5-2.2-0.5-3.5
			c0-1.3,0.2-2.5,0.5-3.5c0.3-1,0.8-1.8,1.4-2.4c0.6-0.6,1.3-1.1,2.2-1.4c0.9-0.3,1.8-0.5,2.9-0.5c1,0,1.9,0.1,2.7,0.4
			c0.8,0.3,1.5,0.6,2.1,1.2c0.6,0.5,1.1,1.1,1.4,1.8c0.3,0.7,0.5,1.5,0.6,2.4h-4c-0.1-0.8-0.4-1.4-0.9-1.8c-0.5-0.4-1.2-0.7-1.9-0.7
			c-0.4,0-0.8,0.1-1.2,0.2c-0.4,0.1-0.7,0.4-1,0.7c-0.3,0.3-0.5,0.8-0.7,1.3c-0.2,0.6-0.2,1.2-0.2,2.1c0,1.6,0.3,2.9,0.9,3.7
			c0.6,0.8,1.3,1.2,2,1.2c0.8,0,1.4-0.2,2-0.6c0.5-0.4,0.9-1,0.9-1.9H170.8z"/>
		<path class="st0" d="M183.1,138.4v-9.3c0-1.1-0.2-1.9-0.6-2.3c-0.4-0.4-1.1-0.6-2-0.6c-0.5,0-0.9,0.1-1.3,0.3
			c-0.4,0.2-0.7,0.5-1,0.8c-0.3,0.3-0.5,0.7-0.6,1.2c-0.1,0.4-0.2,0.9-0.2,1.4v8.6h-4V118h4v7.4c0.1-0.3,0.4-0.6,0.7-0.9
			c0.3-0.3,0.6-0.5,1-0.7c0.4-0.2,0.8-0.4,1.3-0.5c0.5-0.1,1-0.2,1.5-0.2c1.5,0,2.8,0.4,3.8,1.3c1,0.8,1.4,2,1.4,3.5v10.6H183.1z"/>
		<path class="st0" d="M197.8,138.8c-1.2,0-2.3-0.2-3.3-0.6c-1-0.4-1.8-0.9-2.4-1.6c-0.7-0.7-1.2-1.5-1.5-2.5c-0.3-1-0.5-2-0.5-3.2
			c0-1.2,0.2-2.3,0.5-3.2c0.4-1,0.9-1.8,1.5-2.5c0.7-0.7,1.5-1.2,2.4-1.6c0.9-0.4,2-0.6,3.2-0.6c1.2,0,2.2,0.2,3.2,0.6
			c0.9,0.4,1.7,0.9,2.4,1.6c0.7,0.7,1.2,1.5,1.5,2.5c0.4,1,0.5,2.1,0.5,3.3c0,1.2-0.2,2.3-0.5,3.2c-0.4,1-0.9,1.8-1.5,2.5
			c-0.7,0.7-1.5,1.2-2.4,1.6C200,138.6,198.9,138.8,197.8,138.8z M197.8,135.5c2.4,0,3.6-1.5,3.6-4.6c0-3-1.2-4.5-3.6-4.5
			c-2.4,0-3.6,1.5-3.6,4.5C194.1,134,195.4,135.5,197.8,135.5z"/>
		<path class="st0" d="M215.8,138.8c-1.2,0-2.3-0.2-3.3-0.6c-1-0.4-1.8-0.9-2.4-1.6c-0.7-0.7-1.2-1.5-1.5-2.5c-0.3-1-0.5-2-0.5-3.2
			c0-1.2,0.2-2.3,0.5-3.2c0.4-1,0.9-1.8,1.5-2.5c0.7-0.7,1.5-1.2,2.4-1.6c0.9-0.4,2-0.6,3.2-0.6c1.2,0,2.2,0.2,3.2,0.6
			c0.9,0.4,1.7,0.9,2.4,1.6c0.7,0.7,1.2,1.5,1.5,2.5c0.4,1,0.5,2.1,0.5,3.3c0,1.2-0.2,2.3-0.5,3.2c-0.4,1-0.9,1.8-1.5,2.5
			c-0.7,0.7-1.5,1.2-2.4,1.6C218,138.6,216.9,138.8,215.8,138.8z M215.8,135.5c2.4,0,3.6-1.5,3.6-4.6c0-3-1.2-4.5-3.6-4.5
			c-2.4,0-3.6,1.5-3.6,4.5C212.1,134,213.3,135.5,215.8,135.5z"/>
		<path class="st0" d="M226.4,138.4V118h4v20.5H226.4z"/>
	</g>
</g>
<rect x="111.5" y="41.1" class="st0" width="5.1" height="98"/>
<path class="st0" d="M87.7,75.4L71.3,46.9H53.9L28.8,90.1l24.7,43.2h18.1l16-29.3l-8-13.9L87.7,75.4z M70.6,104L63,117.9L46.2,89.7
	l16-27.9l8.4,13.6L63,89.4L70.6,104z"/>
</svg>
