<?xml version="1.0" standalone="no"?>
<svg xmlns="http://www.w3.org/2000/svg" width="500" height="500"><defs><clipPath id="clip-path-dot-color"><path d="M 28 124v 12h 6a 6 6, 0, 0, 0, 0 -12" transform="rotate(-90,34,130)"/><rect x="28" y="136" width="12" height="12" transform="rotate(0,34,142)"/><rect x="28" y="148" width="12" height="12" transform="rotate(0,34,154)"/><path d="M 28 160v 12h 6a 6 6, 0, 0, 0, 0 -12" transform="rotate(90,34,166)"/><path d="M 28 184v 12h 6a 6 6, 0, 0, 0, 0 -12" transform="rotate(-90,34,190)"/><path d="M 28 196v 12h 12v -6a 6 6, 0, 0, 0, -6 -6" transform="rotate(180,34,202)"/><path d="M 28 220v 12h 6a 6 6, 0, 0, 0, 0 -12" transform="rotate(180,34,226)"/><path d="M 28 244v 12h 6a 6 6, 0, 0, 0, 0 -12" transform="rotate(-90,34,250)"/><path d="M 28 256v 12h 12v -6a 6 6, 0, 0, 0, -6 -6" transform="rotate(180,34,262)"/><circle cx="34" cy="334" r="6" transform="rotate(0,34,334)"/><rect x="40" y="136" width="12" height="12" transform="rotate(0,46,142)"/><path d="M 40 148v 12h 12v -6a 6 6, 0, 0, 0, -6 -6" transform="rotate(90,46,154)"/><circle cx="46" cy="178" r="6" transform="rotate(0,46,178)"/><rect x="40" y="196" width="12" height="12" transform="rotate(0,46,202)"/><rect x="40" y="208" width="12" height="12" transform="rotate(0,46,214)"/><rect x="40" y="220" width="12" height="12" transform="rotate(0,46,226)"/><path d="M 40 232v 12h 6a 6 6, 0, 0, 0, 0 -12" transform="rotate(90,46,238)"/><rect x="40" y="256" width="12" height="12" transform="rotate(0,46,262)"/><path d="M 40 280v 12h 6a 6 6, 0, 0, 0, 0 -12" transform="rotate(180,46,286)"/><path d="M 40 304v 12h 12v -6a 6 6, 0, 0, 0, -6 -6" transform="rotate(-90,46,310)"/><path d="M 40 316v 12h 6a 6 6, 0, 0, 0, 0 -12" transform="rotate(90,46,322)"/><path d="M 40 340v 12h 12v -6a 6 6, 0, 0, 0, -6 -6" transform="rotate(-90,46,346)"/><path d="M 40 352v 12h 12v -6a 6 6, 0, 0, 0, -6 -6" transform="rotate(180,46,358)"/><rect x="52" y="136" width="12" height="12" transform="rotate(0,58,142)"/><path d="M 52 160v 12h 6a 6 6, 0, 0, 0, 0 -12" transform="rotate(180,58,166)"/><path d="M 52 184v 12h 6a 6 6, 0, 0, 0, 0 -12" transform="rotate(-90,58,190)"/><rect x="52" y="196" width="12" height="12" transform="rotate(0,58,202)"/><path d="M 52 256v 12h 6a 6 6, 0, 0, 0, 0 -12" transform="rotate(0,58,262)"/><path d="M 52 280v 12h 6a 6 6, 0, 0, 0, 0 -12" transform="rotate(0,58,286)"/><rect x="52" y="304" width="12" height="12" transform="rotate(0,58,310)"/><path d="M 52 340v 12h 12v -6a 6 6, 0, 0, 0, -6 -6" transform="rotate(0,58,346)"/><rect x="52" y="352" width="12" height="12" transform="rotate(0,58,358)"/><path d="M 52 364v 12h 6a 6 6, 0, 0, 0, 0 -12" transform="rotate(90,58,370)"/><path d="M 64 136v 12h 6a 6 6, 0, 0, 0, 0 -12" transform="rotate(0,70,142)"/><path d="M 64 160v 12h 6a 6 6, 0, 0, 0, 0 -12" transform="rotate(0,70,166)"/><rect x="64" y="196" width="12" height="12" transform="rotate(0,70,202)"/><path d="M 64 220v 12h 12v -6a 6 6, 0, 0, 0, -6 -6" transform="rotate(-90,70,226)"/><rect x="64" y="232" width="12" height="12" transform="rotate(0,70,238)"/><path d="M 64 244v 12h 6a 6 6, 0, 0, 0, 0 -12" transform="rotate(90,70,250)"/><path d="M 64 268v 12h 6a 6 6, 0, 0, 0, 0 -12" transform="rotate(180,70,274)"/><path d="M 64 292v 12h 6a 6 6, 0, 0, 0, 0 -12" transform="rotate(-90,70,298)"/><rect x="64" y="304" width="12" height="12" transform="rotate(0,70,310)"/><rect x="64" y="316" width="12" height="12" transform="rotate(0,70,322)"/><path d="M 64 328v 12h 12v -6a 6 6, 0, 0, 0, -6 -6" transform="rotate(180,70,334)"/><path d="M 76 124v 12h 6a 6 6, 0, 0, 0, 0 -12" transform="rotate(180,82,130)"/><circle cx="82" cy="178" r="6" transform="rotate(0,82,178)"/><path d="M 76 196v 12h 6a 6 6, 0, 0, 0, 0 -12" transform="rotate(0,82,202)"/><rect x="76" y="220" width="12" height="12" transform="rotate(0,82,226)"/><path d="M 76 268v 12h 6a 6 6, 0, 0, 0, 0 -12" transform="rotate(0,82,274)"/><path d="M 76 304v 12h 12v -6a 6 6, 0, 0, 0, -6 -6" transform="rotate(0,82,310)"/><rect x="76" y="316" width="12" height="12" transform="rotate(0,82,322)"/><rect x="76" y="328" width="12" height="12" transform="rotate(0,82,334)"/><path d="M 76 340v 12h 12v -6a 6 6, 0, 0, 0, -6 -6" transform="rotate(180,82,346)"/><rect x="88" y="124" width="12" height="12" transform="rotate(0,94,130)"/><path d="M 88 136v 12h 6a 6 6, 0, 0, 0, 0 -12" transform="rotate(90,94,142)"/><circle cx="94" cy="190" r="6" transform="rotate(0,94,190)"/><rect x="88" y="220" width="12" height="12" transform="rotate(0,94,226)"/><path d="M 88 244v 12h 12v -6a 6 6, 0, 0, 0, -6 -6" transform="rotate(-90,94,250)"/><path d="M 88 256v 12h 6a 6 6, 0, 0, 0, 0 -12" transform="rotate(90,94,262)"/><path d="M 88 292v 12h 6a 6 6, 0, 0, 0, 0 -12" transform="rotate(180,94,298)"/><rect x="88" y="316" width="12" height="12" transform="rotate(0,94,322)"/><rect x="88" y="328" width="12" height="12" transform="rotate(0,94,334)"/><rect x="88" y="340" width="12" height="12" transform="rotate(0,94,346)"/><rect x="88" y="352" width="12" height="12" transform="rotate(0,94,358)"/><path d="M 88 364v 12h 12v -6a 6 6, 0, 0, 0, -6 -6" transform="rotate(180,94,370)"/><path d="M 100 124v 12h 6a 6 6, 0, 0, 0, 0 -12" transform="rotate(0,106,130)"/><circle cx="106" cy="154" r="6" transform="rotate(0,106,154)"/><path d="M 100 172v 12h 6a 6 6, 0, 0, 0, 0 -12" transform="rotate(180,106,178)"/><circle cx="106" cy="202" r="6" transform="rotate(0,106,202)"/><path d="M 100 220v 12h 6a 6 6, 0, 0, 0, 0 -12" transform="rotate(0,106,226)"/><rect x="100" y="244" width="12" height="12" transform="rotate(0,106,250)"/><circle cx="106" cy="274" r="6" transform="rotate(0,106,274)"/><rect x="100" y="292" width="12" height="12" transform="rotate(0,106,298)"/><path d="M 100 316v 12h 6a 6 6, 0, 0, 0, 0 -12" transform="rotate(0,106,322)"/><path d="M 100 340v 12h 6a 6 6, 0, 0, 0, 0 -12" transform="rotate(0,106,346)"/><rect x="100" y="364" width="12" height="12" transform="rotate(0,106,370)"/><path d="M 112 160v 12h 12v -6a 6 6, 0, 0, 0, -6 -6" transform="rotate(-90,118,166)"/><rect x="112" y="172" width="12" height="12" transform="rotate(0,118,178)"/><path d="M 112 184v 12h 12v -6a 6 6, 0, 0, 0, -6 -6" transform="rotate(180,118,190)"/><rect x="112" y="244" width="12" height="12" transform="rotate(0,118,250)"/><path d="M 112 256v 12h 12v -6a 6 6, 0, 0, 0, -6 -6" transform="rotate(180,118,262)"/><path d="M 112 280v 12h 6a 6 6, 0, 0, 0, 0 -12" transform="rotate(-90,118,286)"/><rect x="112" y="292" width="12" height="12" transform="rotate(0,118,298)"/><path d="M 112 304v 12h 6a 6 6, 0, 0, 0, 0 -12" transform="rotate(90,118,310)"/><circle cx="118" cy="334" r="6" transform="rotate(0,118,334)"/><rect x="112" y="364" width="12" height="12" transform="rotate(0,118,370)"/><path d="M 124 40v 12h 12v -6a 6 6, 0, 0, 0, -6 -6" transform="rotate(-90,130,46)"/><rect x="124" y="52" width="12" height="12" transform="rotate(0,130,58)"/><rect x="124" y="64" width="12" height="12" transform="rotate(0,130,70)"/><rect x="124" y="76" width="12" height="12" transform="rotate(0,130,82)"/><rect x="124" y="88" width="12" height="12" transform="rotate(0,130,94)"/><rect x="124" y="100" width="12" height="12" transform="rotate(0,130,106)"/><path d="M 124 112v 12h 12v -6a 6 6, 0, 0, 0, -6 -6" transform="rotate(180,130,118)"/><path d="M 124 136v 12h 6a 6 6, 0, 0, 0, 0 -12" transform="rotate(-90,130,142)"/><rect x="124" y="148" width="12" height="12" transform="rotate(0,130,154)"/><path d="M 124 160v 12h 12v -6a 6 6, 0, 0, 0, -6 -6" transform="rotate(90,130,166)"/><rect x="124" y="184" width="12" height="12" transform="rotate(0,130,190)"/><circle cx="130" cy="214" r="6" transform="rotate(0,130,214)"/><rect x="124" y="244" width="12" height="12" transform="rotate(0,130,250)"/><rect x="124" y="256" width="12" height="12" transform="rotate(0,130,262)"/><path d="M 124 268v 12h 12v -6a 6 6, 0, 0, 0, -6 -6" transform="rotate(180,130,274)"/><rect x="124" y="292" width="12" height="12" transform="rotate(0,130,298)"/><path d="M 124 316v 12h 6a 6 6, 0, 0, 0, 0 -12" transform="rotate(180,130,322)"/><circle cx="130" cy="346" r="6" transform="rotate(0,130,346)"/><path d="M 124 364v 12h 6a 6 6, 0, 0, 0, 0 -12" transform="rotate(0,130,370)"/><path d="M 124 400v 12h 12v -6a 6 6, 0, 0, 0, -6 -6" transform="rotate(-90,130,406)"/><path d="M 124 412v 12h 12v -6a 6 6, 0, 0, 0, -6 -6" transform="rotate(180,130,418)"/><circle cx="130" cy="466" r="6" transform="rotate(0,130,466)"/><path d="M 136 28v 12h 6a 6 6, 0, 0, 0, 0 -12" transform="rotate(-90,142,34)"/><path d="M 136 40v 12h 12v -6a 6 6, 0, 0, 0, -6 -6" transform="rotate(90,142,46)"/><path d="M 136 64v 12h 12v -6a 6 6, 0, 0, 0, -6 -6" transform="rotate(0,142,70)"/><rect x="136" y="76" width="12" height="12" transform="rotate(0,142,82)"/><path d="M 136 88v 12h 12v -6a 6 6, 0, 0, 0, -6 -6" transform="rotate(90,142,94)"/><rect x="136" y="112" width="12" height="12" transform="rotate(0,142,118)"/><path d="M 136 172v 12h 12v -6a 6 6, 0, 0, 0, -6 -6" transform="rotate(-90,142,178)"/><path d="M 136 184v 12h 12v -6a 6 6, 0, 0, 0, -6 -6" transform="rotate(90,142,190)"/><path d="M 136 220v 12h 12v -6a 6 6, 0, 0, 0, -6 -6" transform="rotate(-90,142,226)"/><rect x="136" y="232" width="12" height="12" transform="rotate(0,142,238)"/><rect x="136" y="244" width="12" height="12" transform="rotate(0,142,250)"/><rect x="136" y="256" width="12" height="12" transform="rotate(0,142,262)"/><rect x="136" y="268" width="12" height="12" transform="rotate(0,142,274)"/><rect x="136" y="292" width="12" height="12" transform="rotate(0,142,298)"/><rect x="136" y="304" width="12" height="12" transform="rotate(0,142,310)"/><rect x="136" y="316" width="12" height="12" transform="rotate(0,142,322)"/><path d="M 136 328v 12h 12v -6a 6 6, 0, 0, 0, -6 -6" transform="rotate(180,142,334)"/><path d="M 136 352v 12h 6a 6 6, 0, 0, 0, 0 -12" transform="rotate(180,142,358)"/><path d="M 136 388v 12h 12v -6a 6 6, 0, 0, 0, -6 -6" transform="rotate(-90,142,394)"/><rect x="136" y="400" width="12" height="12" transform="rotate(0,142,406)"/><rect x="136" y="412" width="12" height="12" transform="rotate(0,142,418)"/><path d="M 136 424v 12h 6a 6 6, 0, 0, 0, 0 -12" transform="rotate(90,142,430)"/><path d="M 136 448v 12h 6a 6 6, 0, 0, 0, 0 -12" transform="rotate(180,142,454)"/><path d="M 148 52v 12h 6a 6 6, 0, 0, 0, 0 -12" transform="rotate(180,154,58)"/><path d="M 148 76v 12h 6a 6 6, 0, 0, 0, 0 -12" transform="rotate(0,154,82)"/><path d="M 148 100v 12h 6a 6 6, 0, 0, 0, 0 -12" transform="rotate(-90,154,106)"/><rect x="148" y="112" width="12" height="12" transform="rotate(0,154,118)"/><rect x="148" y="124" width="12" height="12" transform="rotate(0,154,130)"/><path d="M 148 136v 12h 6a 6 6, 0, 0, 0, 0 -12" transform="rotate(90,154,142)"/><path d="M 148 172v 12h 6a 6 6, 0, 0, 0, 0 -12" transform="rotate(0,154,178)"/><circle cx="154" cy="202" r="6" transform="rotate(0,154,202)"/><path d="M 148 220v 12h 6a 6 6, 0, 0, 0, 0 -12" transform="rotate(0,154,226)"/><path d="M 148 256v 12h 12v -6a 6 6, 0, 0, 0, -6 -6" transform="rotate(0,154,262)"/><rect x="148" y="268" width="12" height="12" transform="rotate(0,154,274)"/><rect x="148" y="280" width="12" height="12" transform="rotate(0,154,286)"/><rect x="148" y="292" width="12" height="12" transform="rotate(0,154,298)"/><rect x="148" y="316" width="12" height="12" transform="rotate(0,154,322)"/><rect x="148" y="328" width="12" height="12" transform="rotate(0,154,334)"/><rect x="148" y="340" width="12" height="12" transform="rotate(0,154,346)"/><rect x="148" y="352" width="12" height="12" transform="rotate(0,154,358)"/><path d="M 148 364v 12h 6a 6 6, 0, 0, 0, 0 -12" transform="rotate(90,154,370)"/><rect x="148" y="388" width="12" height="12" transform="rotate(0,154,394)"/><rect x="148" y="412" width="12" height="12" transform="rotate(0,154,418)"/><rect x="148" y="448" width="12" height="12" transform="rotate(0,154,454)"/><path d="M 148 460v 12h 12v -6a 6 6, 0, 0, 0, -6 -6" transform="rotate(180,154,466)"/><rect x="160" y="52" width="12" height="12" transform="rotate(0,166,58)"/><path d="M 160 112v 12h 12v -6a 6 6, 0, 0, 0, -6 -6" transform="rotate(0,166,118)"/><path d="M 160 124v 12h 12v -6a 6 6, 0, 0, 0, -6 -6" transform="rotate(90,166,130)"/><circle cx="166" cy="154" r="6" transform="rotate(0,166,154)"/><circle cx="166" cy="190" r="6" transform="rotate(0,166,190)"/><path d="M 160 208v 12h 6a 6 6, 0, 0, 0, 0 -12" transform="rotate(180,166,214)"/><path d="M 160 232v 12h 6a 6 6, 0, 0, 0, 0 -12" transform="rotate(180,166,238)"/><path d="M 160 268v 12h 12v -6a 6 6, 0, 0, 0, -6 -6" transform="rotate(0,166,274)"/><rect x="160" y="280" width="12" height="12" transform="rotate(0,166,286)"/><path d="M 160 292v 12h 12v -6a 6 6, 0, 0, 0, -6 -6" transform="rotate(90,166,298)"/><path d="M 160 316v 12h 6a 6 6, 0, 0, 0, 0 -12" transform="rotate(0,166,322)"/><rect x="160" y="340" width="12" height="12" transform="rotate(0,166,346)"/><rect x="160" y="352" width="12" height="12" transform="rotate(0,166,358)"/><rect x="160" y="388" width="12" height="12" transform="rotate(0,166,394)"/><rect x="160" y="400" width="12" height="12" transform="rotate(0,166,406)"/><rect x="160" y="412" width="12" height="12" transform="rotate(0,166,418)"/><path d="M 160 424v 12h 6a 6 6, 0, 0, 0, 0 -12" transform="rotate(90,166,430)"/><rect x="160" y="448" width="12" height="12" transform="rotate(0,166,454)"/><rect x="160" y="460" width="12" height="12" transform="rotate(0,166,466)"/><path d="M 172 40v 12h 6a 6 6, 0, 0, 0, 0 -12" transform="rotate(-90,178,46)"/><rect x="172" y="52" width="12" height="12" transform="rotate(0,178,58)"/><rect x="172" y="64" width="12" height="12" transform="rotate(0,178,70)"/><rect x="172" y="76" width="12" height="12" transform="rotate(0,178,82)"/><rect x="172" y="88" width="12" height="12" transform="rotate(0,178,94)"/><path d="M 172 100v 12h 6a 6 6, 0, 0, 0, 0 -12" transform="rotate(90,178,106)"/><path d="M 172 136v 12h 6a 6 6, 0, 0, 0, 0 -12" transform="rotate(180,178,142)"/><path d="M 172 160v 12h 12v -6a 6 6, 0, 0, 0, -6 -6" transform="rotate(-90,178,166)"/><path d="M 172 172v 12h 12v -6a 6 6, 0, 0, 0, -6 -6" transform="rotate(180,178,178)"/><path d="M 172 196v 12h 6a 6 6, 0, 0, 0, 0 -12" transform="rotate(-90,178,202)"/><path d="M 172 208v 12h 12v -6a 6 6, 0, 0, 0, -6 -6" transform="rotate(90,178,214)"/><path d="M 172 232v 12h 12v -6a 6 6, 0, 0, 0, -6 -6" transform="rotate(0,178,238)"/><rect x="172" y="244" width="12" height="12" transform="rotate(0,178,250)"/><path d="M 172 256v 12h 6a 6 6, 0, 0, 0, 0 -12" transform="rotate(90,178,262)"/><path d="M 172 328v 12h 12v -6a 6 6, 0, 0, 0, -6 -6" transform="rotate(-90,178,334)"/><rect x="172" y="340" width="12" height="12" transform="rotate(0,178,346)"/><path d="M 172 352v 12h 12v -6a 6 6, 0, 0, 0, -6 -6" transform="rotate(90,178,358)"/><path d="M 172 376v 12h 12v -6a 6 6, 0, 0, 0, -6 -6" transform="rotate(-90,178,382)"/><path d="M 172 388v 12h 12v -6a 6 6, 0, 0, 0, -6 -6" transform="rotate(90,178,394)"/><path d="M 172 436v 12h 12v -6a 6 6, 0, 0, 0, -6 -6" transform="rotate(-90,178,442)"/><rect x="172" y="448" width="12" height="12" transform="rotate(0,178,454)"/><path d="M 172 460v 12h 12v -6a 6 6, 0, 0, 0, -6 -6" transform="rotate(90,178,466)"/><path d="M 184 88v 12h 6a 6 6, 0, 0, 0, 0 -12" transform="rotate(0,190,94)"/><path d="M 184 112v 12h 12v -6a 6 6, 0, 0, 0, -6 -6" transform="rotate(-90,190,118)"/><rect x="184" y="124" width="12" height="12" transform="rotate(0,190,130)"/><path d="M 184 136v 12h 12v -6a 6 6, 0, 0, 0, -6 -6" transform="rotate(90,190,142)"/><path d="M 184 160v 12h 12v -6a 6 6, 0, 0, 0, -6 -6" transform="rotate(0,190,166)"/><path d="M 184 172v 12h 12v -6a 6 6, 0, 0, 0, -6 -6" transform="rotate(90,190,178)"/><path d="M 184 280v 12h 12v -6a 6 6, 0, 0, 0, -6 -6" transform="rotate(-90,190,286)"/><rect x="184" y="292" width="12" height="12" transform="rotate(0,190,298)"/><path d="M 184 304v 12h 6a 6 6, 0, 0, 0, 0 -12" transform="rotate(90,190,310)"/><rect x="184" y="328" width="12" height="12" transform="rotate(0,190,334)"/><path d="M 184 376v 12h 6a 6 6, 0, 0, 0, 0 -12" transform="rotate(0,190,382)"/><path d="M 184 400v 12h 6a 6 6, 0, 0, 0, 0 -12" transform="rotate(180,190,406)"/><path d="M 184 424v 12h 12v -6a 6 6, 0, 0, 0, -6 -6" transform="rotate(-90,190,430)"/><path d="M 184 436v 12h 12v -6a 6 6, 0, 0, 0, -6 -6" transform="rotate(90,190,442)"/><circle cx="202" cy="34" r="6" transform="rotate(0,202,34)"/><path d="M 196 52v 12h 6a 6 6, 0, 0, 0, 0 -12" transform="rotate(180,202,58)"/><path d="M 196 100v 12h 6a 6 6, 0, 0, 0, 0 -12" transform="rotate(-90,202,106)"/><rect x="196" y="112" width="12" height="12" transform="rotate(0,202,118)"/><path d="M 196 124v 12h 12v -6a 6 6, 0, 0, 0, -6 -6" transform="rotate(90,202,130)"/><circle cx="202" cy="154" r="6" transform="rotate(0,202,154)"/><path d="M 196 208v 12h 6a 6 6, 0, 0, 0, 0 -12" transform="rotate(-90,202,214)"/><rect x="196" y="220" width="12" height="12" transform="rotate(0,202,226)"/><path d="M 196 232v 12h 6a 6 6, 0, 0, 0, 0 -12" transform="rotate(90,202,238)"/><path d="M 196 256v 12h 6a 6 6, 0, 0, 0, 0 -12" transform="rotate(180,202,262)"/><rect x="196" y="280" width="12" height="12" transform="rotate(0,202,286)"/><path d="M 196 328v 12h 12v -6a 6 6, 0, 0, 0, -6 -6" transform="rotate(0,202,334)"/><rect x="196" y="340" width="12" height="12" transform="rotate(0,202,346)"/><path d="M 196 352v 12h 12v -6a 6 6, 0, 0, 0, -6 -6" transform="rotate(180,202,358)"/><path d="M 196 388v 12h 6a 6 6, 0, 0, 0, 0 -12" transform="rotate(-90,202,394)"/><rect x="196" y="400" width="12" height="12" transform="rotate(0,202,406)"/><rect x="196" y="412" width="12" height="12" transform="rotate(0,202,418)"/><path d="M 196 424v 12h 12v -6a 6 6, 0, 0, 0, -6 -6" transform="rotate(90,202,430)"/><path d="M 196 460v 12h 6a 6 6, 0, 0, 0, 0 -12" transform="rotate(180,202,466)"/><path d="M 208 40v 12h 12v -6a 6 6, 0, 0, 0, -6 -6" transform="rotate(-90,214,46)"/><path d="M 208 52v 12h 12v -6a 6 6, 0, 0, 0, -6 -6" transform="rotate(90,214,58)"/><path d="M 208 76v 12h 6a 6 6, 0, 0, 0, 0 -12" transform="rotate(-90,214,82)"/><path d="M 208 88v 12h 6a 6 6, 0, 0, 0, 0 -12" transform="rotate(90,214,94)"/><path d="M 208 112v 12h 6a 6 6, 0, 0, 0, 0 -12" transform="rotate(0,214,118)"/><path d="M 208 136v 12h 6a 6 6, 0, 0, 0, 0 -12" transform="rotate(180,214,142)"/><path d="M 208 244v 12h 6a 6 6, 0, 0, 0, 0 -12" transform="rotate(-90,214,250)"/><rect x="208" y="256" width="12" height="12" transform="rotate(0,214,262)"/><rect x="208" y="280" width="12" height="12" transform="rotate(0,214,286)"/><path d="M 208 292v 12h 6a 6 6, 0, 0, 0, 0 -12" transform="rotate(90,214,298)"/><rect x="208" y="352" width="12" height="12" transform="rotate(0,214,358)"/><path d="M 208 364v 12h 6a 6 6, 0, 0, 0, 0 -12" transform="rotate(90,214,370)"/><path d="M 208 448v 12h 6a 6 6, 0, 0, 0, 0 -12" transform="rotate(-90,214,454)"/><rect x="208" y="460" width="12" height="12" transform="rotate(0,214,466)"/><path d="M 220 28v 12h 6a 6 6, 0, 0, 0, 0 -12" transform="rotate(-90,226,34)"/><rect x="220" y="40" width="12" height="12" transform="rotate(0,226,46)"/><circle cx="226" cy="70" r="6" transform="rotate(0,226,70)"/><circle cx="226" cy="106" r="6" transform="rotate(0,226,106)"/><path d="M 220 136v 12h 12v -6a 6 6, 0, 0, 0, -6 -6" transform="rotate(0,226,142)"/><path d="M 220 148v 12h 6a 6 6, 0, 0, 0, 0 -12" transform="rotate(90,226,154)"/><circle cx="226" cy="178" r="6" transform="rotate(0,226,178)"/><circle cx="226" cy="214" r="6" transform="rotate(0,226,214)"/><path d="M 220 256v 12h 6a 6 6, 0, 0, 0, 0 -12" transform="rotate(0,226,262)"/><rect x="220" y="280" width="12" height="12" transform="rotate(0,226,286)"/><path d="M 220 328v 12h 6a 6 6, 0, 0, 0, 0 -12" transform="rotate(-90,226,334)"/><rect x="220" y="340" width="12" height="12" transform="rotate(0,226,346)"/><path d="M 220 352v 12h 12v -6a 6 6, 0, 0, 0, -6 -6" transform="rotate(90,226,358)"/><path d="M 220 376v 12h 6a 6 6, 0, 0, 0, 0 -12" transform="rotate(-90,226,382)"/><rect x="220" y="388" width="12" height="12" transform="rotate(0,226,394)"/><rect x="220" y="400" width="12" height="12" transform="rotate(0,226,406)"/><path d="M 220 412v 12h 6a 6 6, 0, 0, 0, 0 -12" transform="rotate(90,226,418)"/><path d="M 220 436v 12h 6a 6 6, 0, 0, 0, 0 -12" transform="rotate(180,226,442)"/><path d="M 220 460v 12h 6a 6 6, 0, 0, 0, 0 -12" transform="rotate(0,226,466)"/><rect x="232" y="40" width="12" height="12" transform="rotate(0,238,46)"/><circle cx="238" cy="82" r="6" transform="rotate(0,238,82)"/><path d="M 232 112v 12h 6a 6 6, 0, 0, 0, 0 -12" transform="rotate(180,238,118)"/><path d="M 232 220v 12h 12v -6a 6 6, 0, 0, 0, -6 -6" transform="rotate(-90,238,226)"/><path d="M 232 232v 12h 12v -6a 6 6, 0, 0, 0, -6 -6" transform="rotate(180,238,238)"/><path d="M 232 268v 12h 12v -6a 6 6, 0, 0, 0, -6 -6" transform="rotate(-90,238,274)"/><rect x="232" y="280" width="12" height="12" transform="rotate(0,238,286)"/><path d="M 232 292v 12h 12v -6a 6 6, 0, 0, 0, -6 -6" transform="rotate(180,238,298)"/><circle cx="238" cy="322" r="6" transform="rotate(0,238,322)"/><path d="M 232 364v 12h 6a 6 6, 0, 0, 0, 0 -12" transform="rotate(180,238,370)"/><rect x="232" y="400" width="12" height="12" transform="rotate(0,238,406)"/><rect x="232" y="436" width="12" height="12" transform="rotate(0,238,442)"/><rect x="244" y="40" width="12" height="12" transform="rotate(0,250,46)"/><path d="M 244 52v 12h 12v -6a 6 6, 0, 0, 0, -6 -6" transform="rotate(180,250,58)"/><path d="M 244 100v 12h 6a 6 6, 0, 0, 0, 0 -12" transform="rotate(-90,250,106)"/><rect x="244" y="112" width="12" height="12" transform="rotate(0,250,118)"/><path d="M 244 148v 12h 6a 6 6, 0, 0, 0, 0 -12" transform="rotate(-90,250,154)"/><rect x="244" y="160" width="12" height="12" transform="rotate(0,250,166)"/><rect x="244" y="172" width="12" height="12" transform="rotate(0,250,178)"/><path d="M 244 184v 12h 12v -6a 6 6, 0, 0, 0, -6 -6" transform="rotate(180,250,190)"/><path d="M 244 208v 12h 6a 6 6, 0, 0, 0, 0 -12" transform="rotate(-90,250,214)"/><rect x="244" y="220" width="12" height="12" transform="rotate(0,250,226)"/><rect x="244" y="232" width="12" height="12" transform="rotate(0,250,238)"/><rect x="244" y="244" width="12" height="12" transform="rotate(0,250,250)"/><rect x="244" y="256" width="12" height="12" transform="rotate(0,250,262)"/><rect x="244" y="268" width="12" height="12" transform="rotate(0,250,274)"/><rect x="244" y="280" width="12" height="12" transform="rotate(0,250,286)"/><rect x="244" y="292" width="12" height="12" transform="rotate(0,250,298)"/><circle cx="250" cy="334" r="6" transform="rotate(0,250,334)"/><path d="M 244 352v 12h 12v -6a 6 6, 0, 0, 0, -6 -6" transform="rotate(-90,250,358)"/><rect x="244" y="364" width="12" height="12" transform="rotate(0,250,370)"/><rect x="244" y="376" width="12" height="12" transform="rotate(0,250,382)"/><rect x="244" y="388" width="12" height="12" transform="rotate(0,250,394)"/><rect x="244" y="400" width="12" height="12" transform="rotate(0,250,406)"/><path d="M 244 424v 12h 6a 6 6, 0, 0, 0, 0 -12" transform="rotate(-90,250,430)"/><rect x="244" y="436" width="12" height="12" transform="rotate(0,250,442)"/><rect x="244" y="448" width="12" height="12" transform="rotate(0,250,454)"/><path d="M 244 460v 12h 12v -6a 6 6, 0, 0, 0, -6 -6" transform="rotate(180,250,466)"/><rect x="256" y="40" width="12" height="12" transform="rotate(0,262,46)"/><rect x="256" y="52" width="12" height="12" transform="rotate(0,262,58)"/><path d="M 256 64v 12h 12v -6a 6 6, 0, 0, 0, -6 -6" transform="rotate(180,262,70)"/><path d="M 256 88v 12h 6a 6 6, 0, 0, 0, 0 -12" transform="rotate(180,262,94)"/><path d="M 256 112v 12h 12v -6a 6 6, 0, 0, 0, -6 -6" transform="rotate(0,262,118)"/><rect x="256" y="124" width="12" height="12" transform="rotate(0,262,130)"/><path d="M 256 136v 12h 6a 6 6, 0, 0, 0, 0 -12" transform="rotate(90,262,142)"/><rect x="256" y="160" width="12" height="12" transform="rotate(0,262,166)"/><path d="M 256 184v 12h 12v -6a 6 6, 0, 0, 0, -6 -6" transform="rotate(0,262,190)"/><path d="M 256 196v 12h 12v -6a 6 6, 0, 0, 0, -6 -6" transform="rotate(180,262,202)"/><path d="M 256 232v 12h 6a 6 6, 0, 0, 0, 0 -12" transform="rotate(0,262,238)"/><path d="M 256 256v 12h 12v -6a 6 6, 0, 0, 0, -6 -6" transform="rotate(0,262,262)"/><rect x="256" y="268" width="12" height="12" transform="rotate(0,262,274)"/><rect x="256" y="280" width="12" height="12" transform="rotate(0,262,286)"/><rect x="256" y="292" width="12" height="12" transform="rotate(0,262,298)"/><circle cx="262" cy="322" r="6" transform="rotate(0,262,322)"/><rect x="256" y="352" width="12" height="12" transform="rotate(0,262,358)"/><rect x="256" y="364" width="12" height="12" transform="rotate(0,262,370)"/><rect x="256" y="376" width="12" height="12" transform="rotate(0,262,382)"/><rect x="256" y="388" width="12" height="12" transform="rotate(0,262,394)"/><rect x="256" y="400" width="12" height="12" transform="rotate(0,262,406)"/><rect x="256" y="460" width="12" height="12" transform="rotate(0,262,466)"/><path d="M 268 28v 12h 6a 6 6, 0, 0, 0, 0 -12" transform="rotate(-90,274,34)"/><rect x="268" y="40" width="12" height="12" transform="rotate(0,274,46)"/><rect x="268" y="52" width="12" height="12" transform="rotate(0,274,58)"/><rect x="268" y="64" width="12" height="12" transform="rotate(0,274,70)"/><rect x="268" y="76" width="12" height="12" transform="rotate(0,274,82)"/><rect x="268" y="88" width="12" height="12" transform="rotate(0,274,94)"/><path d="M 268 100v 12h 6a 6 6, 0, 0, 0, 0 -12" transform="rotate(90,274,106)"/><rect x="268" y="124" width="12" height="12" transform="rotate(0,274,130)"/><path d="M 268 148v 12h 6a 6 6, 0, 0, 0, 0 -12" transform="rotate(-90,274,154)"/><rect x="268" y="160" width="12" height="12" transform="rotate(0,274,166)"/><rect x="268" y="196" width="12" height="12" transform="rotate(0,274,202)"/><circle cx="274" cy="226" r="6" transform="rotate(0,274,226)"/><rect x="268" y="268" width="12" height="12" transform="rotate(0,274,274)"/><rect x="268" y="292" width="12" height="12" transform="rotate(0,274,298)"/><circle cx="274" cy="334" r="6" transform="rotate(0,274,334)"/><path d="M 268 352v 12h 6a 6 6, 0, 0, 0, 0 -12" transform="rotate(0,274,358)"/><rect x="268" y="376" width="12" height="12" transform="rotate(0,274,382)"/><rect x="268" y="388" width="12" height="12" transform="rotate(0,274,394)"/><rect x="268" y="400" width="12" height="12" transform="rotate(0,274,406)"/><path d="M 268 412v 12h 6a 6 6, 0, 0, 0, 0 -12" transform="rotate(90,274,418)"/><circle cx="274" cy="442" r="6" transform="rotate(0,274,442)"/><rect x="268" y="460" width="12" height="12" transform="rotate(0,274,466)"/><path d="M 280 40v 12h 6a 6 6, 0, 0, 0, 0 -12" transform="rotate(0,286,46)"/><path d="M 280 76v 12h 12v -6a 6 6, 0, 0, 0, -6 -6" transform="rotate(0,286,82)"/><path d="M 280 88v 12h 12v -6a 6 6, 0, 0, 0, -6 -6" transform="rotate(90,286,94)"/><rect x="280" y="124" width="12" height="12" transform="rotate(0,286,130)"/><path d="M 280 160v 12h 6a 6 6, 0, 0, 0, 0 -12" transform="rotate(0,286,166)"/><path d="M 280 184v 12h 12v -6a 6 6, 0, 0, 0, -6 -6" transform="rotate(-90,286,190)"/><path d="M 280 196v 12h 12v -6a 6 6, 0, 0, 0, -6 -6" transform="rotate(90,286,202)"/><path d="M 280 244v 12h 6a 6 6, 0, 0, 0, 0 -12" transform="rotate(-90,286,250)"/><rect x="280" y="256" width="12" height="12" transform="rotate(0,286,262)"/><rect x="280" y="268" width="12" height="12" transform="rotate(0,286,274)"/><rect x="280" y="280" width="12" height="12" transform="rotate(0,286,286)"/><rect x="280" y="292" width="12" height="12" transform="rotate(0,286,298)"/><rect x="280" y="304" width="12" height="12" transform="rotate(0,286,310)"/><path d="M 280 316v 12h 12v -6a 6 6, 0, 0, 0, -6 -6" transform="rotate(180,286,322)"/><circle cx="286" cy="346" r="6" transform="rotate(0,286,346)"/><path d="M 280 376v 12h 12v -6a 6 6, 0, 0, 0, -6 -6" transform="rotate(0,286,382)"/><rect x="280" y="388" width="12" height="12" transform="rotate(0,286,394)"/><path d="M 280 400v 12h 12v -6a 6 6, 0, 0, 0, -6 -6" transform="rotate(90,286,406)"/><rect x="280" y="460" width="12" height="12" transform="rotate(0,286,466)"/><circle cx="298" cy="34" r="6" transform="rotate(0,298,34)"/><path d="M 292 100v 12h 6a 6 6, 0, 0, 0, 0 -12" transform="rotate(-90,298,106)"/><rect x="292" y="112" width="12" height="12" transform="rotate(0,298,118)"/><rect x="292" y="124" width="12" height="12" transform="rotate(0,298,130)"/><rect x="292" y="136" width="12" height="12" transform="rotate(0,298,142)"/><path d="M 292 148v 12h 6a 6 6, 0, 0, 0, 0 -12" transform="rotate(90,298,154)"/><path d="M 292 172v 12h 12v -6a 6 6, 0, 0, 0, -6 -6" transform="rotate(-90,298,178)"/><path d="M 292 184v 12h 12v -6a 6 6, 0, 0, 0, -6 -6" transform="rotate(90,298,190)"/><circle cx="298" cy="226" r="6" transform="rotate(0,298,226)"/><path d="M 292 256v 12h 6a 6 6, 0, 0, 0, 0 -12" transform="rotate(0,298,262)"/><path d="M 292 292v 12h 6a 6 6, 0, 0, 0, 0 -12" transform="rotate(0,298,298)"/><rect x="292" y="316" width="12" height="12" transform="rotate(0,298,322)"/><circle cx="298" cy="358" r="6" transform="rotate(0,298,358)"/><rect x="292" y="388" width="12" height="12" transform="rotate(0,298,394)"/><path d="M 292 436v 12h 6a 6 6, 0, 0, 0, 0 -12" transform="rotate(-90,298,442)"/><rect x="292" y="448" width="12" height="12" transform="rotate(0,298,454)"/><path d="M 292 460v 12h 12v -6a 6 6, 0, 0, 0, -6 -6" transform="rotate(90,298,466)"/><path d="M 304 76v 12h 6a 6 6, 0, 0, 0, 0 -12" transform="rotate(-90,310,82)"/><path d="M 304 88v 12h 12v -6a 6 6, 0, 0, 0, -6 -6" transform="rotate(180,310,94)"/><rect x="304" y="112" width="12" height="12" transform="rotate(0,310,118)"/><rect x="304" y="136" width="12" height="12" transform="rotate(0,310,142)"/><path d="M 304 160v 12h 12v -6a 6 6, 0, 0, 0, -6 -6" transform="rotate(-90,310,166)"/><rect x="304" y="172" width="12" height="12" transform="rotate(0,310,178)"/><circle cx="310" cy="202" r="6" transform="rotate(0,310,202)"/><path d="M 304 244v 12h 6a 6 6, 0, 0, 0, 0 -12" transform="rotate(180,310,250)"/><circle cx="310" cy="286" r="6" transform="rotate(0,310,286)"/><path d="M 304 304v 12h 6a 6 6, 0, 0, 0, 0 -12" transform="rotate(-90,310,310)"/><path d="M 304 316v 12h 12v -6a 6 6, 0, 0, 0, -6 -6" transform="rotate(90,310,322)"/><circle cx="310" cy="346" r="6" transform="rotate(0,310,346)"/><path d="M 304 376v 12h 6a 6 6, 0, 0, 0, 0 -12" transform="rotate(-90,310,382)"/><rect x="304" y="388" width="12" height="12" transform="rotate(0,310,394)"/><path d="M 304 400v 12h 6a 6 6, 0, 0, 0, 0 -12" transform="rotate(90,310,406)"/><path d="M 304 424v 12h 6a 6 6, 0, 0, 0, 0 -12" transform="rotate(180,310,430)"/><path d="M 304 448v 12h 6a 6 6, 0, 0, 0, 0 -12" transform="rotate(0,310,454)"/><path d="M 316 28v 12h 6a 6 6, 0, 0, 0, 0 -12" transform="rotate(180,322,34)"/><path d="M 316 64v 12h 6a 6 6, 0, 0, 0, 0 -12" transform="rotate(180,322,70)"/><rect x="316" y="88" width="12" height="12" transform="rotate(0,322,94)"/><rect x="316" y="100" width="12" height="12" transform="rotate(0,322,106)"/><rect x="316" y="112" width="12" height="12" transform="rotate(0,322,118)"/><rect x="316" y="136" width="12" height="12" transform="rotate(0,322,142)"/><rect x="316" y="148" width="12" height="12" transform="rotate(0,322,154)"/><rect x="316" y="160" width="12" height="12" transform="rotate(0,322,166)"/><rect x="316" y="172" width="12" height="12" transform="rotate(0,322,178)"/><path d="M 316 184v 12h 6a 6 6, 0, 0, 0, 0 -12" transform="rotate(90,322,190)"/><path d="M 316 220v 12h 12v -6a 6 6, 0, 0, 0, -6 -6" transform="rotate(-90,322,226)"/><rect x="316" y="232" width="12" height="12" transform="rotate(0,322,238)"/><path d="M 316 244v 12h 12v -6a 6 6, 0, 0, 0, -6 -6" transform="rotate(90,322,250)"/><circle cx="322" cy="298" r="6" transform="rotate(0,322,298)"/><rect x="316" y="388" width="12" height="12" transform="rotate(0,322,394)"/><path d="M 316 424v 12h 12v -6a 6 6, 0, 0, 0, -6 -6" transform="rotate(0,322,430)"/><path d="M 316 436v 12h 6a 6 6, 0, 0, 0, 0 -12" transform="rotate(90,322,442)"/><circle cx="322" cy="466" r="6" transform="rotate(0,322,466)"/><rect x="328" y="28" width="12" height="12" transform="rotate(0,334,34)"/><path d="M 328 40v 12h 6a 6 6, 0, 0, 0, 0 -12" transform="rotate(90,334,46)"/><rect x="328" y="64" width="12" height="12" transform="rotate(0,334,70)"/><rect x="328" y="88" width="12" height="12" transform="rotate(0,334,94)"/><rect x="328" y="112" width="12" height="12" transform="rotate(0,334,118)"/><rect x="328" y="124" width="12" height="12" transform="rotate(0,334,130)"/><path d="M 328 136v 12h 12v -6a 6 6, 0, 0, 0, -6 -6" transform="rotate(90,334,142)"/><rect x="328" y="172" width="12" height="12" transform="rotate(0,334,178)"/><path d="M 328 208v 12h 6a 6 6, 0, 0, 0, 0 -12" transform="rotate(-90,334,214)"/><path d="M 328 220v 12h 12v -6a 6 6, 0, 0, 0, -6 -6" transform="rotate(90,334,226)"/><path d="M 328 268v 12h 6a 6 6, 0, 0, 0, 0 -12" transform="rotate(-90,334,274)"/><path d="M 328 280v 12h 6a 6 6, 0, 0, 0, 0 -12" transform="rotate(90,334,286)"/><circle cx="334" cy="310" r="6" transform="rotate(0,334,310)"/><path d="M 328 340v 12h 6a 6 6, 0, 0, 0, 0 -12" transform="rotate(-90,334,346)"/><rect x="328" y="352" width="12" height="12" transform="rotate(0,334,358)"/><rect x="328" y="364" width="12" height="12" transform="rotate(0,334,370)"/><rect x="328" y="376" width="12" height="12" transform="rotate(0,334,382)"/><rect x="328" y="388" width="12" height="12" transform="rotate(0,334,394)"/><rect x="340" y="28" width="12" height="12" transform="rotate(0,346,34)"/><rect x="340" y="64" width="12" height="12" transform="rotate(0,346,70)"/><path d="M 340 88v 12h 12v -6a 6 6, 0, 0, 0, -6 -6" transform="rotate(0,346,94)"/><rect x="340" y="100" width="12" height="12" transform="rotate(0,346,106)"/><rect x="340" y="112" width="12" height="12" transform="rotate(0,346,118)"/><rect x="340" y="172" width="12" height="12" transform="rotate(0,346,178)"/><rect x="340" y="184" width="12" height="12" transform="rotate(0,346,190)"/><path d="M 340 196v 12h 6a 6 6, 0, 0, 0, 0 -12" transform="rotate(90,346,202)"/><circle cx="346" cy="238" r="6" transform="rotate(0,346,238)"/><path d="M 340 256v 12h 6a 6 6, 0, 0, 0, 0 -12" transform="rotate(180,346,262)"/><path d="M 340 316v 12h 12v -6a 6 6, 0, 0, 0, -6 -6" transform="rotate(-90,346,322)"/><path d="M 340 328v 12h 6a 6 6, 0, 0, 0, 0 -12" transform="rotate(90,346,334)"/><path d="M 340 388v 12h 12v -6a 6 6, 0, 0, 0, -6 -6" transform="rotate(0,346,394)"/><path d="M 340 400v 12h 6a 6 6, 0, 0, 0, 0 -12" transform="rotate(90,346,406)"/><circle cx="346" cy="430" r="6" transform="rotate(0,346,430)"/><path d="M 340 448v 12h 12v -6a 6 6, 0, 0, 0, -6 -6" transform="rotate(-90,346,454)"/><path d="M 340 460v 12h 12v -6a 6 6, 0, 0, 0, -6 -6" transform="rotate(180,346,466)"/><rect x="352" y="28" width="12" height="12" transform="rotate(0,358,34)"/><path d="M 352 52v 12h 6a 6 6, 0, 0, 0, 0 -12" transform="rotate(-90,358,58)"/><rect x="352" y="64" width="12" height="12" transform="rotate(0,358,70)"/><rect x="352" y="112" width="12" height="12" transform="rotate(0,358,118)"/><path d="M 352 124v 12h 12v -6a 6 6, 0, 0, 0, -6 -6" transform="rotate(180,358,130)"/><path d="M 352 172v 12h 6a 6 6, 0, 0, 0, 0 -12" transform="rotate(0,358,178)"/><path d="M 352 208v 12h 6a 6 6, 0, 0, 0, 0 -12" transform="rotate(-90,358,214)"/><path d="M 352 220v 12h 12v -6a 6 6, 0, 0, 0, -6 -6" transform="rotate(180,358,226)"/><path d="M 352 256v 12h 6a 6 6, 0, 0, 0, 0 -12" transform="rotate(0,358,262)"/><path d="M 352 280v 12h 6a 6 6, 0, 0, 0, 0 -12" transform="rotate(180,358,286)"/><path d="M 352 316v 12h 6a 6 6, 0, 0, 0, 0 -12" transform="rotate(0,358,322)"/><path d="M 352 340v 12h 6a 6 6, 0, 0, 0, 0 -12" transform="rotate(180,358,346)"/><path d="M 352 364v 12h 12v -6a 6 6, 0, 0, 0, -6 -6" transform="rotate(-90,358,370)"/><path d="M 352 376v 12h 12v -6a 6 6, 0, 0, 0, -6 -6" transform="rotate(180,358,382)"/><path d="M 352 448v 12h 12v -6a 6 6, 0, 0, 0, -6 -6" transform="rotate(0,358,454)"/><path d="M 352 460v 12h 12v -6a 6 6, 0, 0, 0, -6 -6" transform="rotate(90,358,466)"/><path d="M 364 28v 12h 6a 6 6, 0, 0, 0, 0 -12" transform="rotate(0,370,34)"/><path d="M 364 64v 12h 6a 6 6, 0, 0, 0, 0 -12" transform="rotate(0,370,70)"/><path d="M 364 88v 12h 6a 6 6, 0, 0, 0, 0 -12" transform="rotate(-90,370,94)"/><rect x="364" y="100" width="12" height="12" transform="rotate(0,370,106)"/><rect x="364" y="112" width="12" height="12" transform="rotate(0,370,118)"/><rect x="364" y="124" width="12" height="12" transform="rotate(0,370,130)"/><path d="M 364 148v 12h 6a 6 6, 0, 0, 0, 0 -12" transform="rotate(-90,370,154)"/><path d="M 364 160v 12h 6a 6 6, 0, 0, 0, 0 -12" transform="rotate(90,370,166)"/><path d="M 364 184v 12h 6a 6 6, 0, 0, 0, 0 -12" transform="rotate(180,370,190)"/><path d="M 364 220v 12h 12v -6a 6 6, 0, 0, 0, -6 -6" transform="rotate(0,370,226)"/><rect x="364" y="232" width="12" height="12" transform="rotate(0,370,238)"/><path d="M 364 244v 12h 6a 6 6, 0, 0, 0, 0 -12" transform="rotate(90,370,250)"/><path d="M 364 280v 12h 12v -6a 6 6, 0, 0, 0, -6 -6" transform="rotate(0,370,286)"/><path d="M 364 292v 12h 6a 6 6, 0, 0, 0, 0 -12" transform="rotate(90,370,298)"/><path d="M 364 328v 12h 6a 6 6, 0, 0, 0, 0 -12" transform="rotate(-90,370,334)"/><path d="M 364 340v 12h 12v -6a 6 6, 0, 0, 0, -6 -6" transform="rotate(90,370,346)"/><rect x="364" y="364" width="12" height="12" transform="rotate(0,370,370)"/><rect x="364" y="376" width="12" height="12" transform="rotate(0,370,382)"/><rect x="364" y="388" width="12" height="12" transform="rotate(0,370,394)"/><rect x="364" y="400" width="12" height="12" transform="rotate(0,370,406)"/><rect x="364" y="412" width="12" height="12" transform="rotate(0,370,418)"/><path d="M 364 424v 12h 6a 6 6, 0, 0, 0, 0 -12" transform="rotate(90,370,430)"/><rect x="376" y="124" width="12" height="12" transform="rotate(0,382,130)"/><path d="M 376 172v 12h 12v -6a 6 6, 0, 0, 0, -6 -6" transform="rotate(-90,382,178)"/><rect x="376" y="184" width="12" height="12" transform="rotate(0,382,190)"/><rect x="376" y="196" width="12" height="12" transform="rotate(0,382,202)"/><path d="M 376 208v 12h 12v -6a 6 6, 0, 0, 0, -6 -6" transform="rotate(180,382,214)"/><circle cx="382" cy="262" r="6" transform="rotate(0,382,262)"/><circle cx="382" cy="310" r="6" transform="rotate(0,382,310)"/><rect x="376" y="364" width="12" height="12" transform="rotate(0,382,370)"/><rect x="376" y="412" width="12" height="12" transform="rotate(0,382,418)"/><rect x="388" y="124" width="12" height="12" transform="rotate(0,394,130)"/><path d="M 388 148v 12h 12v -6a 6 6, 0, 0, 0, -6 -6" transform="rotate(-90,394,154)"/><rect x="388" y="160" width="12" height="12" transform="rotate(0,394,166)"/><rect x="388" y="172" width="12" height="12" transform="rotate(0,394,178)"/><rect x="388" y="208" width="12" height="12" transform="rotate(0,394,214)"/><path d="M 388 220v 12h 6a 6 6, 0, 0, 0, 0 -12" transform="rotate(90,394,226)"/><path d="M 388 244v 12h 6a 6 6, 0, 0, 0, 0 -12" transform="rotate(180,394,250)"/><circle cx="394" cy="298" r="6" transform="rotate(0,394,298)"/><path d="M 388 352v 12h 6a 6 6, 0, 0, 0, 0 -12" transform="rotate(-90,394,358)"/><rect x="388" y="364" width="12" height="12" transform="rotate(0,394,370)"/><circle cx="394" cy="394" r="6" transform="rotate(0,394,394)"/><rect x="388" y="412" width="12" height="12" transform="rotate(0,394,418)"/><path d="M 388 424v 12h 6a 6 6, 0, 0, 0, 0 -12" transform="rotate(90,394,430)"/><path d="M 388 448v 12h 6a 6 6, 0, 0, 0, 0 -12" transform="rotate(-90,394,454)"/><path d="M 388 460v 12h 6a 6 6, 0, 0, 0, 0 -12" transform="rotate(90,394,466)"/><rect x="400" y="124" width="12" height="12" transform="rotate(0,406,130)"/><path d="M 400 148v 12h 12v -6a 6 6, 0, 0, 0, -6 -6" transform="rotate(0,406,154)"/><rect x="400" y="160" width="12" height="12" transform="rotate(0,406,166)"/><rect x="400" y="172" width="12" height="12" transform="rotate(0,406,178)"/><path d="M 400 196v 12h 12v -6a 6 6, 0, 0, 0, -6 -6" transform="rotate(-90,406,202)"/><rect x="400" y="208" width="12" height="12" transform="rotate(0,406,214)"/><path d="M 400 232v 12h 12v -6a 6 6, 0, 0, 0, -6 -6" transform="rotate(-90,406,238)"/><rect x="400" y="244" width="12" height="12" transform="rotate(0,406,250)"/><rect x="400" y="256" width="12" height="12" transform="rotate(0,406,262)"/><path d="M 400 268v 12h 12v -6a 6 6, 0, 0, 0, -6 -6" transform="rotate(180,406,274)"/><path d="M 400 304v 12h 6a 6 6, 0, 0, 0, 0 -12" transform="rotate(180,406,310)"/><path d="M 400 340v 12h 6a 6 6, 0, 0, 0, 0 -12" transform="rotate(180,406,346)"/><rect x="400" y="364" width="12" height="12" transform="rotate(0,406,370)"/><rect x="400" y="412" width="12" height="12" transform="rotate(0,406,418)"/><rect x="412" y="124" width="12" height="12" transform="rotate(0,418,130)"/><path d="M 412 136v 12h 12v -6a 6 6, 0, 0, 0, -6 -6" transform="rotate(180,418,142)"/><path d="M 412 160v 12h 12v -6a 6 6, 0, 0, 0, -6 -6" transform="rotate(0,418,166)"/><path d="M 412 172v 12h 12v -6a 6 6, 0, 0, 0, -6 -6" transform="rotate(90,418,178)"/><path d="M 412 196v 12h 12v -6a 6 6, 0, 0, 0, -6 -6" transform="rotate(0,418,202)"/><path d="M 412 208v 12h 12v -6a 6 6, 0, 0, 0, -6 -6" transform="rotate(90,418,214)"/><path d="M 412 232v 12h 12v -6a 6 6, 0, 0, 0, -6 -6" transform="rotate(0,418,238)"/><rect x="412" y="244" width="12" height="12" transform="rotate(0,418,250)"/><rect x="412" y="256" width="12" height="12" transform="rotate(0,418,262)"/><rect x="412" y="268" width="12" height="12" transform="rotate(0,418,274)"/><rect x="412" y="280" width="12" height="12" transform="rotate(0,418,286)"/><rect x="412" y="292" width="12" height="12" transform="rotate(0,418,298)"/><rect x="412" y="304" width="12" height="12" transform="rotate(0,418,310)"/><rect x="412" y="316" width="12" height="12" transform="rotate(0,418,322)"/><rect x="412" y="328" width="12" height="12" transform="rotate(0,418,334)"/><rect x="412" y="340" width="12" height="12" transform="rotate(0,418,346)"/><rect x="412" y="352" width="12" height="12" transform="rotate(0,418,358)"/><rect x="412" y="364" width="12" height="12" transform="rotate(0,418,370)"/><rect x="412" y="376" width="12" height="12" transform="rotate(0,418,382)"/><rect x="412" y="388" width="12" height="12" transform="rotate(0,418,394)"/><rect x="412" y="400" width="12" height="12" transform="rotate(0,418,406)"/><path d="M 412 412v 12h 12v -6a 6 6, 0, 0, 0, -6 -6" transform="rotate(90,418,418)"/><circle cx="418" cy="442" r="6" transform="rotate(0,418,442)"/><circle cx="418" cy="466" r="6" transform="rotate(0,418,466)"/><rect x="424" y="124" width="12" height="12" transform="rotate(0,430,130)"/><rect x="424" y="136" width="12" height="12" transform="rotate(0,430,142)"/><path d="M 424 148v 12h 12v -6a 6 6, 0, 0, 0, -6 -6" transform="rotate(180,430,154)"/><circle cx="430" cy="226" r="6" transform="rotate(0,430,226)"/><path d="M 424 280v 12h 6a 6 6, 0, 0, 0, 0 -12" transform="rotate(0,430,286)"/><path d="M 424 340v 12h 12v -6a 6 6, 0, 0, 0, -6 -6" transform="rotate(0,430,346)"/><rect x="424" y="352" width="12" height="12" transform="rotate(0,430,358)"/><path d="M 424 364v 12h 12v -6a 6 6, 0, 0, 0, -6 -6" transform="rotate(90,430,370)"/><path d="M 424 388v 12h 6a 6 6, 0, 0, 0, 0 -12" transform="rotate(0,430,394)"/><circle cx="430" cy="454" r="6" transform="rotate(0,430,454)"/><rect x="436" y="124" width="12" height="12" transform="rotate(0,442,130)"/><path d="M 436 148v 12h 6a 6 6, 0, 0, 0, 0 -12" transform="rotate(0,442,154)"/><path d="M 436 196v 12h 12v -6a 6 6, 0, 0, 0, -6 -6" transform="rotate(-90,442,202)"/><path d="M 436 208v 12h 12v -6a 6 6, 0, 0, 0, -6 -6" transform="rotate(180,442,214)"/><circle cx="442" cy="274" r="6" transform="rotate(0,442,274)"/><path d="M 436 304v 12h 12v -6a 6 6, 0, 0, 0, -6 -6" transform="rotate(-90,442,310)"/><path d="M 436 316v 12h 6a 6 6, 0, 0, 0, 0 -12" transform="rotate(90,442,322)"/><rect x="436" y="352" width="12" height="12" transform="rotate(0,442,358)"/><circle cx="442" cy="382" r="6" transform="rotate(0,442,382)"/><path d="M 436 400v 12h 6a 6 6, 0, 0, 0, 0 -12" transform="rotate(180,442,406)"/><path d="M 436 424v 12h 6a 6 6, 0, 0, 0, 0 -12" transform="rotate(-90,442,430)"/><path d="M 436 436v 12h 6a 6 6, 0, 0, 0, 0 -12" transform="rotate(90,442,442)"/><path d="M 436 460v 12h 6a 6 6, 0, 0, 0, 0 -12" transform="rotate(180,442,466)"/><path d="M 448 124v 12h 12v -6a 6 6, 0, 0, 0, -6 -6" transform="rotate(0,454,130)"/><path d="M 448 136v 12h 6a 6 6, 0, 0, 0, 0 -12" transform="rotate(90,454,142)"/><path d="M 448 160v 12h 12v -6a 6 6, 0, 0, 0, -6 -6" transform="rotate(-90,454,166)"/><path d="M 448 172v 12h 6a 6 6, 0, 0, 0, 0 -12" transform="rotate(90,454,178)"/><path d="M 448 196v 12h 12v -6a 6 6, 0, 0, 0, -6 -6" transform="rotate(0,454,202)"/><rect x="448" y="208" width="12" height="12" transform="rotate(0,454,214)"/><circle cx="454" cy="286" r="6" transform="rotate(0,454,286)"/><rect x="448" y="304" width="12" height="12" transform="rotate(0,454,310)"/><path d="M 448 352v 12h 12v -6a 6 6, 0, 0, 0, -6 -6" transform="rotate(0,454,358)"/><path d="M 448 364v 12h 6a 6 6, 0, 0, 0, 0 -12" transform="rotate(90,454,370)"/><path d="M 448 388v 12h 6a 6 6, 0, 0, 0, 0 -12" transform="rotate(-90,454,394)"/><rect x="448" y="400" width="12" height="12" transform="rotate(0,454,406)"/><path d="M 448 412v 12h 6a 6 6, 0, 0, 0, 0 -12" transform="rotate(90,454,418)"/><rect x="448" y="460" width="12" height="12" transform="rotate(0,454,466)"/><path d="M 460 148v 12h 6a 6 6, 0, 0, 0, 0 -12" transform="rotate(-90,466,154)"/><path d="M 460 160v 12h 12v -6a 6 6, 0, 0, 0, -6 -6" transform="rotate(90,466,166)"/><path d="M 460 208v 12h 6a 6 6, 0, 0, 0, 0 -12" transform="rotate(0,466,214)"/><circle cx="466" cy="250" r="6" transform="rotate(0,466,250)"/><circle cx="466" cy="274" r="6" transform="rotate(0,466,274)"/><path d="M 460 304v 12h 6a 6 6, 0, 0, 0, 0 -12" transform="rotate(0,466,310)"/><circle cx="466" cy="334" r="6" transform="rotate(0,466,334)"/><circle cx="466" cy="382" r="6" transform="rotate(0,466,382)"/><path d="M 460 424v 12h 6a 6 6, 0, 0, 0, 0 -12" transform="rotate(-90,466,430)"/><rect x="460" y="436" width="12" height="12" transform="rotate(0,466,442)"/><rect x="460" y="448" width="12" height="12" transform="rotate(0,466,454)"/><path d="M 460 460v 12h 12v -6a 6 6, 0, 0, 0, -6 -6" transform="rotate(90,466,466)"/></clipPath><clipPath id="clip-path-corners-square-color-0-0"><path clip-rule="evenodd" d="M 28 58v 24a 30 30, 0, 0, 0, 30 30h 24a 30 30, 0, 0, 0, 30 -30v -24a 30 30, 0, 0, 0, -30 -30h -24a 30 30, 0, 0, 0, -30 30M 58 40h 24a 18 18, 0, 0, 1, 18 18v 24a 18 18, 0, 0, 1, -18 18h -24a 18 18, 0, 0, 1, -18 -18v -24a 18 18, 0, 0, 1, 18 -18" transform="rotate(0,70,70)"/></clipPath><clipPath id="clip-path-corners-dot-color-0-0"><rect x="52" y="52" width="36" height="36" transform="rotate(0,70,70)"/></clipPath><clipPath id="clip-path-corners-square-color-1-0"><path clip-rule="evenodd" d="M 388 58v 24a 30 30, 0, 0, 0, 30 30h 24a 30 30, 0, 0, 0, 30 -30v -24a 30 30, 0, 0, 0, -30 -30h -24a 30 30, 0, 0, 0, -30 30M 418 40h 24a 18 18, 0, 0, 1, 18 18v 24a 18 18, 0, 0, 1, -18 18h -24a 18 18, 0, 0, 1, -18 -18v -24a 18 18, 0, 0, 1, 18 -18" transform="rotate(90,430,70)"/></clipPath><clipPath id="clip-path-corners-dot-color-1-0"><rect x="412" y="52" width="36" height="36" transform="rotate(90,430,70)"/></clipPath><clipPath id="clip-path-corners-square-color-0-1"><path clip-rule="evenodd" d="M 28 418v 24a 30 30, 0, 0, 0, 30 30h 24a 30 30, 0, 0, 0, 30 -30v -24a 30 30, 0, 0, 0, -30 -30h -24a 30 30, 0, 0, 0, -30 30M 58 400h 24a 18 18, 0, 0, 1, 18 18v 24a 18 18, 0, 0, 1, -18 18h -24a 18 18, 0, 0, 1, -18 -18v -24a 18 18, 0, 0, 1, 18 -18" transform="rotate(-90,70,430)"/></clipPath><clipPath id="clip-path-corners-dot-color-0-1"><rect x="52" y="412" width="36" height="36" transform="rotate(-90,70,430)"/></clipPath></defs><rect x="0" y="0" height="500" width="500" clip-path="url('#clip-path-background-color')" fill="#fff"/><rect x="0" y="0" height="500" width="500" clip-path="url('#clip-path-dot-color')" fill="#000000"/><rect x="28" y="28" height="84" width="84" clip-path="url('#clip-path-corners-square-color-0-0')" fill="#000000"/><rect x="52" y="52" height="36" width="36" clip-path="url('#clip-path-corners-dot-color-0-0')" fill="#000000"/><rect x="388" y="28" height="84" width="84" clip-path="url('#clip-path-corners-square-color-1-0')" fill="#000000"/><rect x="412" y="52" height="36" width="36" clip-path="url('#clip-path-corners-dot-color-1-0')" fill="#000000"/><rect x="28" y="388" height="84" width="84" clip-path="url('#clip-path-corners-square-color-0-1')" fill="#000000"/><rect x="52" y="412" height="36" width="36" clip-path="url('#clip-path-corners-dot-color-0-1')" fill="#000000"/></svg>
