<?xml version="1.0" encoding="utf-8"?>
<!-- Generator: Adobe Illustrator 26.4.1, SVG Export Plug-In . SVG Version: 6.00 Build 0)  -->
<svg version="1.1" id="Capa_1" xmlns="http://www.w3.org/2000/svg" xmlns:xlink="http://www.w3.org/1999/xlink" x="0px" y="0px"
	 viewBox="0 0 300 481.3" style="enable-background:new 0 0 300 481.3;" xml:space="preserve">
<style type="text/css">
	.st0{fill:#0A0A23;}
	.st1{clip-path:url(#SVGID_00000152239971045749210740000014504719195739337359_);}
	.st2{fill:#00E39D;}
</style>
<path class="st0" d="M53.1,297.7l-19.8,49.8l51.3-37.8h0.1c0.1-0.1,0.2-0.2,0.4-0.2l0.3-0.1l0.3-0.1l0.3-0.1h1.4l0.4,0.1l0.3,0.1
	l0.3,0.2l0.3,0.2l0.3,0.2l0.3,0.2l0.3,0.3l0.1,0.2c0,0,0,0,0,0.1l0.2,0.3l0.2,0.3l0.1,0.3l0.1,0.4c0,0,0,0,0,0.1l11.2,62.8
	l19.8-49.7l23.9-60.4c-6.3-0.2-12.5-0.9-18.6-2.1c-6.1-1.2-12.2-2.8-18.1-4.9c-5.9-2.1-11.6-4.6-17.1-7.5c-5.5-2.9-10.8-6.3-15.8-10
	L53.1,297.7z"/>
<path class="st0" d="M226,239.2c-5.1,3.8-10.4,7.2-15.9,10.2c-5.6,3-11.3,5.6-17.3,7.7c-6,2.1-12,3.8-18.3,5.1
	c-6.2,1.2-12.5,2-18.8,2.3L199,372.9l11.2-62.8c0,0,0,0,0-0.1c0-0.1,0.1-0.3,0.1-0.4c0-0.1,0.1-0.2,0.1-0.3l0.2-0.3
	c0.1-0.1,0.1-0.2,0.2-0.3v-0.1l0.1-0.1c0.1-0.1,0.2-0.2,0.3-0.3l0.2-0.2l0.3-0.2l0.3-0.2l0.4-0.2l0.3-0.1l0.4-0.1h1.6l0.4,0.1
	l0.3,0.1l0.4,0.2h0.1l51.5,38l-19.9-49.7L226,239.2z"/>
<path class="st0" d="M237.8,132.3c0,1.5,0,3-0.1,4.6c-0.1,1.5-0.2,3-0.3,4.5c-0.1,1.5-0.3,3-0.5,4.5c-0.2,1.5-0.5,3-0.8,4.5
	c-0.3,1.5-0.6,3-1,4.4c-0.4,1.5-0.8,2.9-1.2,4.4c-0.4,1.5-0.9,2.9-1.4,4.3s-1,2.8-1.6,4.3c-0.6,1.4-1.2,2.8-1.8,4.2
	c-0.6,1.4-1.3,2.7-2,4.1c-0.7,1.3-1.4,2.7-2.2,4s-1.5,2.6-2.4,3.9c-0.8,1.3-1.7,2.5-2.5,3.7s-1.8,2.4-2.7,3.6
	c-0.9,1.2-1.9,2.3-2.9,3.4c-1,1.1-2,2.2-3.1,3.3c-1,1.1-2.1,2.1-3.2,3.1c-1.1,1-2.2,2-3.3,3c-1.1,1-2.3,1.9-3.5,2.8
	c-1.2,0.9-2.4,1.8-3.6,2.6c-1.2,0.8-2.5,1.7-3.7,2.4c-1.3,0.8-2.5,1.5-3.8,2.2c-1.3,0.7-2.6,1.4-4,2c-1.3,0.6-2.7,1.3-4,1.8
	c-1.4,0.6-2.7,1.1-4.1,1.6c-1.4,0.5-2.8,1-4.2,1.4c-1.4,0.4-2.8,0.8-4.3,1.2s-2.9,0.7-4.3,1c-1.4,0.3-2.9,0.6-4.4,0.8
	c-1.5,0.2-2.9,0.4-4.4,0.6c-1.5,0.1-2.9,0.3-4.4,0.3c-1.5,0.1-2.9,0.1-4.4,0.1s-2.9,0-4.4-0.1c-1.5-0.1-2.9-0.2-4.4-0.3
	s-2.9-0.3-4.4-0.6c-1.5-0.2-2.9-0.5-4.4-0.8c-1.4-0.3-2.9-0.6-4.3-1c-1.4-0.4-2.8-0.8-4.3-1.2c-1.4-0.4-2.8-0.9-4.2-1.4
	c-1.4-0.5-2.8-1.1-4.1-1.6c-1.4-0.6-2.7-1.2-4-1.8s-2.7-1.3-3.9-2c-1.3-0.7-2.6-1.5-3.8-2.2s-2.5-1.6-3.7-2.4
	c-1.2-0.8-2.4-1.7-3.6-2.6c-1.2-0.9-2.3-1.8-3.5-2.8c-1.1-1-2.3-2-3.3-3c-1.1-1-2.2-2.1-3.2-3.1c-1-1.1-2.1-2.2-3.1-3.3
	c-1-1.1-2-2.3-2.9-3.4c-0.9-1.2-1.8-2.4-2.7-3.6c-0.9-1.2-1.7-2.5-2.5-3.7c-0.8-1.3-1.6-2.5-2.4-3.9c-0.8-1.3-1.5-2.6-2.2-4
	c-0.7-1.3-1.4-2.7-2-4.1c-0.6-1.4-1.2-2.8-1.8-4.2c-0.6-1.4-1.1-2.8-1.6-4.3c-0.5-1.4-1-2.9-1.4-4.3c-0.4-1.5-0.8-2.9-1.2-4.4
	c-0.4-1.5-0.7-3-1-4.4c-0.3-1.5-0.5-3-0.8-4.5c-0.2-1.5-0.4-3-0.5-4.5c-0.1-1.5-0.3-3-0.3-4.5c-0.1-1.5-0.1-3-0.1-4.6
	c0-1.5,0-3,0.1-4.6c0.1-1.5,0.2-3,0.3-4.5c0.1-1.5,0.3-3,0.5-4.5c0.2-1.5,0.5-3,0.8-4.5c0.3-1.5,0.6-3,1-4.5
	c0.4-1.5,0.8-2.9,1.2-4.4c0.4-1.5,0.9-2.9,1.4-4.3c0.5-1.4,1-2.8,1.6-4.3c0.6-1.4,1.2-2.8,1.8-4.2c0.6-1.4,1.3-2.7,2-4.1
	c0.7-1.3,1.4-2.7,2.2-4c0.8-1.3,1.5-2.6,2.4-3.8s1.7-2.5,2.5-3.7c0.9-1.2,1.8-2.4,2.7-3.6c0.9-1.2,1.9-2.3,2.9-3.5
	c1-1.1,2-2.2,3.1-3.3c1-1.1,2.1-2.1,3.2-3.1c1.1-1,2.2-2,3.3-3c1.1-1,2.3-1.9,3.5-2.8c1.2-0.9,2.4-1.8,3.6-2.6
	c1.2-0.8,2.5-1.7,3.7-2.4s2.5-1.5,3.8-2.2c1.3-0.7,2.6-1.4,3.9-2s2.7-1.3,4-1.8c1.4-0.6,2.7-1.1,4.1-1.6c1.4-0.5,2.8-1,4.2-1.4
	c1.4-0.4,2.8-0.8,4.3-1.2c1.4-0.4,2.9-0.7,4.3-1c1.4-0.3,2.9-0.6,4.4-0.8c1.5-0.2,2.9-0.4,4.4-0.6c1.5-0.1,2.9-0.3,4.4-0.3
	c1.5-0.1,2.9-0.1,4.4-0.1s2.9,0,4.4,0.1c1.5,0.1,2.9,0.2,4.4,0.3c1.5,0.1,2.9,0.3,4.4,0.6c1.5,0.2,2.9,0.5,4.4,0.8
	c1.4,0.3,2.9,0.6,4.3,1c1.4,0.4,2.9,0.8,4.3,1.2c1.4,0.4,2.8,0.9,4.2,1.4c1.4,0.5,2.8,1.1,4.1,1.6c1.4,0.6,2.7,1.2,4,1.8
	c1.3,0.6,2.7,1.3,4,2c1.3,0.7,2.6,1.5,3.8,2.2c1.3,0.8,2.5,1.6,3.7,2.4c1.2,0.8,2.4,1.7,3.6,2.6c1.2,0.9,2.3,1.8,3.5,2.8
	c1.1,1,2.3,2,3.3,3c1.1,1,2.2,2.1,3.2,3.1c1,1.1,2.1,2.2,3.1,3.3c1,1.1,2,2.3,2.9,3.5c0.9,1.2,1.8,2.4,2.7,3.6
	c0.9,1.2,1.7,2.5,2.5,3.7c0.8,1.3,1.6,2.5,2.4,3.8c0.8,1.3,1.5,2.6,2.2,4c0.7,1.3,1.4,2.7,2,4.1c0.6,1.4,1.2,2.8,1.8,4.2
	c0.6,1.4,1.1,2.8,1.6,4.3c0.5,1.4,1,2.9,1.4,4.3c0.4,1.5,0.8,2.9,1.2,4.4s0.7,3,1,4.5c0.3,1.5,0.5,3,0.8,4.5c0.2,1.5,0.4,3,0.5,4.5
	c0.1,1.5,0.3,3,0.3,4.5C237.8,129.2,237.8,130.7,237.8,132.3z"/>
<g>
	<defs>
		<rect id="SVGID_1_" x="28.5" y="6.7" width="243.2" height="251.5"/>
	</defs>
	<clipPath id="SVGID_00000114776326133437644280000017238184236650237107_">
		<use xlink:href="#SVGID_1_"  style="overflow:visible;"/>
	</clipPath>
	<g style="clip-path:url(#SVGID_00000114776326133437644280000017238184236650237107_);">
		<path class="st0" d="M271.8,132.3c0-68.9-54.5-125.2-121.5-125.2c-67,0-121.5,56.2-121.5,125.2c0,4.7,0.2,9.5,0.7,14.2
			s1.3,9.4,2.3,14c1,4.6,2.3,9.2,3.9,13.7c1.6,4.5,3.4,8.9,5.4,13.2c2,4.3,4.3,8.4,6.9,12.5c2.5,4,5.3,7.9,8.2,11.6
			c3,3.7,6.1,7.3,9.5,10.6c3.4,3.4,6.9,6.5,10.6,9.5c5.2,4.2,10.7,7.9,16.6,11.1c5.8,3.2,11.9,6,18.2,8.2c6.3,2.2,12.7,3.9,19.3,5
			c6.6,1.1,13.2,1.7,19.9,1.7C217.2,257.4,271.8,201.3,271.8,132.3z M147.7,232.4c-53.7,0-97.4-44.9-97.4-100.1
			c0-55.2,43.7-100.1,97.4-100.1c56.4,0,97.4,42.1,97.4,100.1C245.1,187.5,201.4,232.4,147.7,232.4z"/>
	</g>
</g>
<g>
	<defs>
		<rect id="SVGID_00000147200310087739227790000004199614978463990948_" x="76.5" y="85.1" width="143.7" height="97.5"/>
	</defs>
	<clipPath id="SVGID_00000012446441580605170190000001474641016810143625_">
		<use xlink:href="#SVGID_00000147200310087739227790000004199614978463990948_"  style="overflow:visible;"/>
	</clipPath>
</g>
<path class="st2" d="M184.3,113.1l-22.1-38.5h-23.5L105,132.8l33.3,58.2h24.4l21.6-39.4l-10.8-18.8L184.3,113.1z M161.3,151.6
	L151,170.4l-22.5-38l21.6-37.6l11.3,18.3L151,131.9L161.3,151.6z"/>
<g>
	<g>
		<path d="M43.3,391.9h5.4v6.2c0,1.2-0.2,2.3-0.5,3.3c-0.3,1.1-0.9,2-1.6,2.8c-0.7,0.8-1.7,1.5-2.8,1.9c-1.1,0.5-2.4,0.7-4,0.7
			c-1.6,0-3-0.2-4.1-0.7c-1.1-0.5-2.1-1.1-2.8-1.9c-0.7-0.8-1.3-1.7-1.6-2.8c-0.3-1.1-0.5-2.2-0.5-3.4v-19.6h5.7v5.9h12.1v4.1H36.6
			v9c0,1.4,0.3,2.5,0.8,3.2c0.5,0.8,1.4,1.1,2.6,1.1c1.2,0,2-0.4,2.6-1.1c0.5-0.7,0.8-1.8,0.8-3.2V391.9z"/>
		<path d="M67.4,406.3v-13.6c0-1.7-0.3-2.8-0.9-3.4c-0.6-0.6-1.5-0.9-2.9-0.9c-0.7,0-1.4,0.1-1.9,0.4c-0.6,0.3-1,0.7-1.4,1.2
			c-0.4,0.5-0.7,1.1-0.9,1.7c-0.2,0.6-0.3,1.3-0.3,2.1v12.6h-5.8v-30h5.8v10.9c0.2-0.5,0.5-0.9,1-1.4c0.4-0.4,0.9-0.8,1.5-1.1
			c0.6-0.3,1.2-0.5,1.9-0.7c0.7-0.2,1.4-0.3,2.1-0.3c2.3,0,4.1,0.6,5.5,1.9c1.4,1.2,2.1,3,2.1,5.2v15.5H67.4z"/>
		<path d="M83.4,396.9c0.1,1.7,0.6,3,1.4,4c0.9,1,2,1.5,3.5,1.5c1,0,1.8-0.2,2.5-0.6c0.7-0.4,1.2-1,1.4-1.8h6
			c-0.7,2.3-1.9,4-3.6,5.2c-1.7,1.2-3.7,1.8-6.1,1.8c-7.3,0-11-4-11-12c0-1.7,0.2-3.2,0.7-4.6c0.5-1.4,1.2-2.5,2.1-3.5
			c0.9-1,2-1.7,3.3-2.3c1.3-0.5,2.8-0.8,4.5-0.8c3.4,0,6,1.1,7.7,3.3c1.7,2.2,2.6,5.4,2.6,9.8H83.4z M92.6,393.2
			c0-0.8-0.2-1.5-0.4-2.1c-0.3-0.6-0.6-1.1-1-1.5c-0.4-0.4-0.9-0.7-1.4-0.9c-0.5-0.2-1.1-0.3-1.7-0.3c-1.2,0-2.2,0.4-3,1.3
			c-0.8,0.8-1.3,2-1.4,3.5H92.6z"/>
	</g>
	<g>
		<path class="st2" d="M30.7,444.7v-28.1h10.9c1.9,0,3.6,0.3,5.2,1c1.6,0.6,3,1.5,4.1,2.7c1.1,1.2,2,2.6,2.7,4.3
			c0.6,1.7,1,3.6,1,5.8c0,2.1-0.3,4.1-0.9,5.9c-0.6,1.8-1.4,3.3-2.5,4.5c-1.1,1.3-2.4,2.2-3.8,2.9c-1.5,0.7-3.1,1-4.9,1H30.7z
			 M41.3,439.9c2.6,0,4.4-0.8,5.6-2.4c1.2-1.6,1.7-4,1.7-7.2c0-1.6-0.1-2.9-0.4-4.1c-0.3-1.1-0.7-2.1-1.4-2.8
			c-0.6-0.7-1.4-1.2-2.4-1.6c-1-0.3-2.2-0.5-3.6-0.5h-4.4v18.4H41.3z"/>
		<path class="st2" d="M58.6,444.7v-28.1h20.6v4.9H64.3v6H78v4.9H64.3v7.2h15.6v5H58.6z"/>
		<path class="st2" d="M91.9,444.7l-9.5-28.1h6.3l6.1,19.7l6.1-19.7h6.1l-9.5,28.1H91.9z"/>
		<path class="st2" d="M110.5,444.7v-28.1h20.6v4.9h-14.9v6H130v4.9h-13.7v7.2h15.6v5H110.5z"/>
		<path class="st2" d="M135.2,444.7v-28.1h5.9v23H155v5.1H135.2z"/>
		<path class="st2" d="M170.2,445.7c-4.3,0-7.7-1.3-10-3.8c-2.3-2.5-3.5-6.2-3.5-11c0-2.4,0.3-4.5,0.9-6.4c0.6-1.9,1.5-3.5,2.6-4.8
			c1.2-1.3,2.6-2.3,4.2-3c1.7-0.7,3.6-1,5.8-1c2.1,0,4.1,0.3,5.7,1c1.7,0.7,3.1,1.7,4.2,3c1.1,1.3,2,2.9,2.6,4.8
			c0.6,1.9,0.9,4.1,0.9,6.5c0,4.8-1.1,8.5-3.4,11C177.8,444.4,174.5,445.7,170.2,445.7z M170.2,440.6c1,0,2-0.2,3-0.6
			c0.9-0.4,1.7-1,2.4-1.7c0.7-0.8,1.2-1.8,1.6-3c0.4-1.2,0.6-2.7,0.6-4.3c0-3.3-0.6-5.9-1.9-7.6c-1.3-1.7-3.2-2.6-5.7-2.6
			s-4.4,0.9-5.7,2.6c-1.3,1.7-2,4.2-2,7.6c0,3.3,0.7,5.8,2,7.3C165.8,439.9,167.7,440.6,170.2,440.6z"/>
		<path class="st2" d="M187.6,444.7v-28.1H200c1.4,0,2.6,0.2,3.7,0.7c1.1,0.5,2,1.1,2.8,1.9c0.8,0.8,1.4,1.8,1.8,2.9
			c0.4,1.1,0.6,2.3,0.6,3.6c0,1.3-0.2,2.4-0.6,3.5c-0.4,1.1-1,2-1.8,2.8c-0.8,0.8-1.7,1.4-2.8,1.8c-1.1,0.4-2.3,0.7-3.7,0.7h-6.5
			v10.2H187.6z M199.1,429.7c1.7,0,2.9-0.4,3.7-1.2c0.7-0.8,1.1-1.8,1.1-3c0-1.2-0.4-2.2-1.1-2.9c-0.7-0.8-2-1.1-3.7-1.1h-5.6v8.2
			H199.1z"/>
		<path class="st2" d="M212.4,444.7v-28.1H233v4.9h-14.9v6h13.7v4.9h-13.7v7.2h15.6v5H212.4z"/>
		<path class="st2" d="M253.5,444.7v-7.2c0-1.4-0.3-2.3-0.9-2.9c-0.6-0.6-1.8-0.9-3.5-0.9h-6.3v11h-5.7v-28.1h14.3
			c1.3,0,2.5,0.2,3.5,0.6c1.1,0.4,2,1,2.7,1.7c0.8,0.7,1.3,1.6,1.8,2.6c0.4,1,0.6,2.1,0.6,3.2c0,1.5-0.4,2.9-1.1,4
			c-0.7,1.2-1.8,2-3.1,2.5c1.2,0.4,2.1,1,2.6,1.8c0.5,0.8,0.8,2,0.8,3.7v8H253.5z M242.8,421.5v7.5h7.4c1.6,0,2.7-0.4,3.3-1.1
			c0.6-0.7,1-1.6,1-2.7c0-1.1-0.3-2-1-2.7c-0.6-0.7-1.7-1.1-3.2-1.1H242.8z"/>
	</g>
	<g>
		<path d="M41.7,458.6c-0.1-1-0.5-1.8-1.1-2.3c-0.6-0.5-1.6-0.8-2.9-0.8c-2.4,0-3.5,0.8-3.5,2.4c0,0.6,0.2,1.1,0.7,1.5
			c0.5,0.4,1.3,0.7,2.4,1c1.3,0.3,2.4,0.6,3.3,0.8c0.9,0.3,1.8,0.6,2.6,0.9c0.4,0.2,0.9,0.4,1.2,0.7c0.4,0.3,0.7,0.6,1,1
			c0.3,0.4,0.5,0.9,0.6,1.4c0.2,0.6,0.2,1.2,0.2,2c0,1-0.2,1.8-0.6,2.6c-0.4,0.7-0.9,1.4-1.6,1.9c-0.7,0.5-1.5,0.9-2.4,1.2
			c-0.9,0.3-1.9,0.4-2.9,0.4c-2.9,0-5.1-0.6-6.6-1.7c-1.5-1.1-2.2-2.8-2.3-5h4c0,1,0.4,1.8,1.2,2.4c0.8,0.6,1.8,0.9,3.1,0.9
			c1.3,0,2.3-0.2,3-0.7c0.7-0.5,1-1.1,1-2c0-0.3,0-0.6-0.1-0.9c-0.1-0.3-0.2-0.5-0.5-0.7c-0.2-0.2-0.5-0.4-0.9-0.6
			c-0.4-0.2-0.9-0.3-1.6-0.5c-1.5-0.3-2.8-0.6-4-1c-1.1-0.3-2-0.7-2.8-1.2c-0.7-0.5-1.3-1.1-1.6-1.8c-0.3-0.7-0.5-1.6-0.5-2.7
			c0-0.8,0.2-1.6,0.5-2.3c0.3-0.7,0.8-1.3,1.4-1.9c0.6-0.5,1.4-1,2.3-1.3c0.9-0.3,2-0.5,3.2-0.5c1.2,0,2.3,0.2,3.2,0.5
			c1,0.3,1.8,0.8,2.5,1.3s1.2,1.3,1.6,2.1c0.4,0.8,0.6,1.7,0.6,2.7H41.7z"/>
		<path d="M62.3,467.3c-0.1,0.9-0.3,1.6-0.7,2.3c-0.4,0.7-0.9,1.3-1.5,1.8c-0.6,0.5-1.3,0.9-2.1,1.2c-0.8,0.3-1.6,0.4-2.5,0.4
			c-1,0-1.9-0.2-2.8-0.5c-0.8-0.3-1.5-0.8-2.2-1.5c-0.6-0.7-1.1-1.5-1.4-2.5c-0.3-1-0.5-2.2-0.5-3.5c0-1.3,0.2-2.5,0.5-3.4
			c0.3-1,0.8-1.7,1.4-2.4c0.6-0.6,1.3-1.1,2.2-1.4c0.9-0.3,1.8-0.5,2.8-0.5c1,0,1.8,0.1,2.6,0.4c0.8,0.3,1.5,0.6,2.1,1.1
			c0.6,0.5,1.1,1.1,1.4,1.8c0.3,0.7,0.5,1.5,0.6,2.3h-3.9c-0.1-0.8-0.4-1.4-0.9-1.8c-0.5-0.4-1.1-0.6-1.9-0.6
			c-0.4,0-0.8,0.1-1.2,0.2c-0.4,0.1-0.7,0.4-0.9,0.7c-0.3,0.3-0.5,0.8-0.6,1.3c-0.2,0.6-0.2,1.2-0.2,2c0,1.6,0.3,2.8,0.9,3.6
			c0.6,0.8,1.3,1.2,2,1.2c0.8,0,1.4-0.2,2-0.6c0.5-0.4,0.9-1,0.9-1.8H62.3z"/>
		<path d="M74.5,472.6v-9.2c0-1.1-0.2-1.9-0.6-2.3c-0.4-0.4-1-0.6-1.9-0.6c-0.5,0-0.9,0.1-1.3,0.3c-0.4,0.2-0.7,0.5-1,0.8
			c-0.3,0.3-0.5,0.7-0.6,1.1c-0.1,0.4-0.2,0.9-0.2,1.4v8.5H65v-20.2h3.9v7.3c0.1-0.3,0.4-0.6,0.6-0.9c0.3-0.3,0.6-0.5,1-0.7
			c0.4-0.2,0.8-0.4,1.3-0.5c0.5-0.1,0.9-0.2,1.4-0.2c1.5,0,2.8,0.4,3.7,1.2c1,0.8,1.4,2,1.4,3.5v10.5H74.5z"/>
		<path d="M89,473c-1.2,0-2.3-0.2-3.2-0.6c-0.9-0.4-1.7-0.9-2.4-1.6c-0.7-0.7-1.1-1.5-1.5-2.5c-0.3-1-0.5-2-0.5-3.2
			c0-1.2,0.2-2.2,0.5-3.2c0.4-1,0.9-1.8,1.5-2.5c0.7-0.7,1.5-1.2,2.4-1.6c0.9-0.4,2-0.6,3.2-0.6c1.2,0,2.2,0.2,3.1,0.6
			c0.9,0.4,1.7,0.9,2.4,1.6c0.7,0.7,1.2,1.5,1.5,2.5c0.4,1,0.5,2,0.5,3.2c0,1.2-0.2,2.3-0.5,3.2c-0.4,1-0.9,1.8-1.5,2.5
			c-0.7,0.7-1.4,1.2-2.4,1.6C91.2,472.9,90.1,473,89,473z M89,469.8c2.4,0,3.6-1.5,3.6-4.5c0-3-1.2-4.5-3.6-4.5s-3.6,1.5-3.6,4.5
			C85.4,468.3,86.6,469.8,89,469.8z"/>
		<path d="M106.8,473c-1.2,0-2.3-0.2-3.2-0.6c-0.9-0.4-1.7-0.9-2.4-1.6c-0.7-0.7-1.1-1.5-1.5-2.5c-0.3-1-0.5-2-0.5-3.2
			c0-1.2,0.2-2.2,0.5-3.2c0.4-1,0.9-1.8,1.5-2.5c0.7-0.7,1.5-1.2,2.4-1.6c0.9-0.4,2-0.6,3.2-0.6c1.2,0,2.2,0.2,3.1,0.6
			c0.9,0.4,1.7,0.9,2.4,1.6c0.7,0.7,1.2,1.5,1.5,2.5c0.4,1,0.5,2,0.5,3.2c0,1.2-0.2,2.3-0.5,3.2c-0.4,1-0.9,1.8-1.5,2.5
			c-0.7,0.7-1.4,1.2-2.4,1.6C109,472.9,107.9,473,106.8,473z M106.8,469.8c2.4,0,3.6-1.5,3.6-4.5c0-3-1.2-4.5-3.6-4.5
			c-2.4,0-3.6,1.5-3.6,4.5C103.2,468.3,104.4,469.8,106.8,469.8z"/>
		<path d="M117.3,472.6v-20.2h3.9v20.2H117.3z"/>
	</g>
</g>
</svg>
