<?xml version="1.0" encoding="utf-8"?>
<!-- Generator: Adobe Illustrator 26.4.1, SVG Export Plug-In . SVG Version: 6.00 Build 0)  -->
<svg version="1.1" id="Capa_1" xmlns="http://www.w3.org/2000/svg" xmlns:xlink="http://www.w3.org/1999/xlink" x="0px" y="0px"
	 viewBox="0 0 300 805" style="enable-background:new 0 0 300 805;" xml:space="preserve">
<style type="text/css">
	.st0{fill:#0A0A23;}
	.st1{clip-path:url(#SVGID_00000183216691689920012470000000645997995444683432_);}
	.st2{fill:#3F5FEA;}
	.st3{fill:#00E39D;}
</style>
<path class="st0" d="M53.1,337.6l-19.8,49.8l51.3-37.8h0.1c0.1-0.1,0.2-0.2,0.4-0.2l0.3-0.1l0.3-0.1l0.3-0.1h1.4l0.4,0.1l0.3,0.1
	l0.3,0.2l0.3,0.2l0.3,0.2l0.3,0.2l0.3,0.3l0.1,0.2c0,0,0,0,0,0.1l0.2,0.3l0.2,0.3l0.1,0.3l0.1,0.4c0,0,0,0,0,0.1l11.2,62.8
	l19.8-49.7l23.9-60.4c-6.3-0.2-12.5-0.9-18.6-2.1c-6.1-1.2-12.2-2.8-18.1-4.9c-5.9-2.1-11.6-4.6-17.1-7.5c-5.5-2.9-10.8-6.3-15.8-10
	L53.1,337.6z"/>
<path class="st0" d="M226,279.2c-5.1,3.8-10.4,7.2-15.9,10.2c-5.6,3-11.3,5.6-17.3,7.7c-6,2.1-12,3.8-18.3,5.1
	c-6.2,1.2-12.5,2-18.8,2.3L199,412.8l11.2-62.8c0,0,0,0,0-0.1c0-0.1,0.1-0.3,0.1-0.4c0-0.1,0.1-0.2,0.1-0.3l0.2-0.3
	c0.1-0.1,0.1-0.2,0.2-0.3v-0.1l0.1-0.1c0.1-0.1,0.2-0.2,0.3-0.3l0.2-0.2l0.3-0.2l0.3-0.2l0.4-0.2l0.3-0.1l0.4-0.1h1.6l0.4,0.1
	l0.3,0.1l0.4,0.2h0.1l51.5,38l-19.9-49.7L226,279.2z"/>
<path class="st0" d="M237.8,172.2c0,1.5,0,3-0.1,4.6c-0.1,1.5-0.2,3-0.3,4.5c-0.1,1.5-0.3,3-0.5,4.5c-0.2,1.5-0.5,3-0.8,4.5
	c-0.3,1.5-0.6,3-1,4.4c-0.4,1.5-0.8,2.9-1.2,4.4c-0.4,1.5-0.9,2.9-1.4,4.3s-1,2.8-1.6,4.3c-0.6,1.4-1.2,2.8-1.8,4.2
	c-0.6,1.4-1.3,2.7-2,4.1c-0.7,1.3-1.4,2.7-2.2,4s-1.5,2.6-2.4,3.9c-0.8,1.3-1.7,2.5-2.5,3.7c-0.9,1.2-1.8,2.4-2.7,3.6
	c-0.9,1.2-1.9,2.3-2.9,3.4c-1,1.1-2,2.2-3.1,3.3c-1,1.1-2.1,2.1-3.2,3.1c-1.1,1-2.2,2-3.3,3c-1.1,1-2.3,1.9-3.5,2.8
	c-1.2,0.9-2.4,1.8-3.6,2.6c-1.2,0.8-2.5,1.7-3.7,2.4c-1.3,0.8-2.5,1.5-3.8,2.2c-1.3,0.7-2.6,1.4-4,2c-1.3,0.6-2.7,1.3-4,1.8
	c-1.4,0.6-2.7,1.1-4.1,1.6c-1.4,0.5-2.8,1-4.2,1.4c-1.4,0.4-2.8,0.8-4.3,1.2s-2.9,0.7-4.3,1c-1.4,0.3-2.9,0.6-4.4,0.8
	c-1.5,0.2-2.9,0.4-4.4,0.6c-1.5,0.1-2.9,0.3-4.4,0.3c-1.5,0.1-2.9,0.1-4.4,0.1s-2.9,0-4.4-0.1c-1.5-0.1-2.9-0.2-4.4-0.3
	c-1.5-0.1-2.9-0.3-4.4-0.6c-1.5-0.2-2.9-0.5-4.4-0.8c-1.4-0.3-2.9-0.6-4.3-1c-1.4-0.4-2.8-0.8-4.3-1.2c-1.4-0.4-2.8-0.9-4.2-1.4
	c-1.4-0.5-2.8-1.1-4.1-1.6c-1.4-0.6-2.7-1.2-4-1.8s-2.7-1.3-3.9-2c-1.3-0.7-2.6-1.5-3.8-2.2c-1.3-0.8-2.5-1.6-3.7-2.4
	c-1.2-0.8-2.4-1.7-3.6-2.6c-1.2-0.9-2.3-1.8-3.5-2.8c-1.1-1-2.3-2-3.3-3c-1.1-1-2.2-2.1-3.2-3.1c-1-1.1-2.1-2.2-3.1-3.3
	c-1-1.1-2-2.3-2.9-3.4c-0.9-1.2-1.8-2.4-2.7-3.6c-0.9-1.2-1.7-2.5-2.5-3.7c-0.8-1.3-1.6-2.5-2.4-3.9c-0.8-1.3-1.5-2.6-2.2-4
	c-0.7-1.3-1.4-2.7-2-4.1c-0.6-1.4-1.2-2.8-1.8-4.2c-0.6-1.4-1.1-2.8-1.6-4.3c-0.5-1.4-1-2.9-1.4-4.3c-0.4-1.5-0.8-2.9-1.2-4.4
	c-0.4-1.5-0.7-3-1-4.4c-0.3-1.5-0.5-3-0.8-4.5c-0.2-1.5-0.4-3-0.5-4.5c-0.1-1.5-0.3-3-0.3-4.5c-0.1-1.5-0.1-3-0.1-4.6
	c0-1.5,0-3,0.1-4.6c0.1-1.5,0.2-3,0.3-4.5c0.1-1.5,0.3-3,0.5-4.5c0.2-1.5,0.5-3,0.8-4.5c0.3-1.5,0.6-3,1-4.5
	c0.4-1.5,0.8-2.9,1.2-4.4c0.4-1.5,0.9-2.9,1.4-4.3c0.5-1.4,1-2.8,1.6-4.3c0.6-1.4,1.2-2.8,1.8-4.2c0.6-1.4,1.3-2.7,2-4.1
	c0.7-1.3,1.4-2.7,2.2-4c0.8-1.3,1.5-2.6,2.4-3.8c0.8-1.3,1.7-2.5,2.5-3.7c0.9-1.2,1.8-2.4,2.7-3.6c0.9-1.2,1.9-2.3,2.9-3.5
	c1-1.1,2-2.2,3.1-3.3c1-1.1,2.1-2.1,3.2-3.1s2.2-2,3.3-3c1.1-1,2.3-1.9,3.5-2.8c1.2-0.9,2.4-1.8,3.6-2.6c1.2-0.8,2.5-1.7,3.7-2.4
	c1.3-0.8,2.5-1.5,3.8-2.2c1.3-0.7,2.6-1.4,3.9-2c1.3-0.6,2.7-1.3,4-1.8c1.4-0.6,2.7-1.1,4.1-1.6c1.4-0.5,2.8-1,4.2-1.4
	c1.4-0.4,2.8-0.8,4.3-1.2c1.4-0.4,2.9-0.7,4.3-1c1.4-0.3,2.9-0.6,4.4-0.8c1.5-0.2,2.9-0.4,4.4-0.6c1.5-0.1,2.9-0.3,4.4-0.3
	c1.5-0.1,2.9-0.1,4.4-0.1s2.9,0,4.4,0.1c1.5,0.1,2.9,0.2,4.4,0.3c1.5,0.1,2.9,0.3,4.4,0.6c1.5,0.2,2.9,0.5,4.4,0.8
	c1.4,0.3,2.9,0.6,4.3,1c1.4,0.4,2.9,0.8,4.3,1.2c1.4,0.4,2.8,0.9,4.2,1.4c1.4,0.5,2.8,1.1,4.1,1.6c1.4,0.6,2.7,1.2,4,1.8
	c1.3,0.6,2.7,1.3,4,2c1.3,0.7,2.6,1.5,3.8,2.2c1.3,0.8,2.5,1.6,3.7,2.4c1.2,0.8,2.4,1.7,3.6,2.6c1.2,0.9,2.3,1.8,3.5,2.8
	c1.1,1,2.3,2,3.3,3c1.1,1,2.2,2.1,3.2,3.1c1,1.1,2.1,2.2,3.1,3.3c1,1.1,2,2.3,2.9,3.5c0.9,1.2,1.8,2.4,2.7,3.6
	c0.9,1.2,1.7,2.5,2.5,3.7c0.8,1.3,1.6,2.5,2.4,3.8s1.5,2.6,2.2,4c0.7,1.3,1.4,2.7,2,4.1c0.6,1.4,1.2,2.8,1.8,4.2
	c0.6,1.4,1.1,2.8,1.6,4.3s1,2.9,1.4,4.3c0.4,1.5,0.8,2.9,1.2,4.4s0.7,3,1,4.5c0.3,1.5,0.5,3,0.8,4.5c0.2,1.5,0.4,3,0.5,4.5
	c0.1,1.5,0.3,3,0.3,4.5C237.8,169.1,237.8,170.7,237.8,172.2z"/>
<g>
	<defs>
		<rect id="SVGID_1_" x="28.5" y="46.6" width="243.2" height="251.5"/>
	</defs>
	<clipPath id="SVGID_00000078038925508913883390000009234154521116249988_">
		<use xlink:href="#SVGID_1_"  style="overflow:visible;"/>
	</clipPath>
	<g style="clip-path:url(#SVGID_00000078038925508913883390000009234154521116249988_);">
		<path class="st0" d="M271.8,172.2c0-68.9-54.5-125.2-121.5-125.2c-67,0-121.5,56.2-121.5,125.2c0,4.7,0.2,9.5,0.7,14.2
			s1.3,9.4,2.3,14c1,4.6,2.3,9.2,3.9,13.7c1.6,4.5,3.4,8.9,5.4,13.2c2,4.3,4.3,8.4,6.9,12.5c2.5,4,5.3,7.9,8.2,11.6
			s6.1,7.3,9.5,10.6c3.4,3.4,6.9,6.5,10.6,9.5c5.2,4.2,10.7,7.9,16.6,11.1c5.8,3.2,11.9,6,18.2,8.2c6.3,2.2,12.7,3.9,19.3,5
			c6.6,1.1,13.2,1.7,19.9,1.7C217.2,297.3,271.8,241.2,271.8,172.2z M147.7,272.3c-53.7,0-97.4-44.9-97.4-100.1
			C50.3,117,94,72.1,147.7,72.1c56.4,0,97.4,42.1,97.4,100.1C245.1,227.4,201.4,272.3,147.7,272.3z"/>
	</g>
</g>
<g>
	<defs>
		<rect id="SVGID_00000061466073918495043810000016815958354779858068_" x="76.5" y="125.1" width="143.7" height="97.5"/>
	</defs>
	<clipPath id="SVGID_00000097481957299973496250000011589049227756042156_">
		<use xlink:href="#SVGID_00000061466073918495043810000016815958354779858068_"  style="overflow:visible;"/>
	</clipPath>
</g>
<g>
	<path d="M216.3,632c0,11.4-0.3,22.8,0.1,34.2c0.2,6.1-0.9,11.8-4.3,16.6c-5.9,8.3-11.7,16.7-18.7,23.9c-11.8,12.1-26,21.2-41,28.8
		c-1.6,0.8-4.2,1.1-5.7,0.4c-19.2-9.6-36.6-21.7-50.6-38.2c-2.8-3.3-5.3-6.9-7.7-10.5c-4.6-7-7-14.5-6.8-23.2
		c0.5-23.4,0.2-46.8,0.1-70.1c0-3.3,1-5.1,4.1-6.3c42.3-16.1,84.5-16.2,126.8,0.2c2.8,1.1,3.9,2.5,3.8,5.6
		C216.2,606.2,216.3,619.1,216.3,632z"/>
	<path class="st2" d="M180.8,629.8l-19.4-33.9h-20.7l-29.8,51.3l29.4,51.3h21.5l19-34.7l-9.5-16.5L180.8,629.8z M160.5,663.7
		l-9.1,16.5l-19.8-33.5l19-33.1l9.9,16.1l-9.1,16.5L160.5,663.7z"/>
</g>
<path class="st3" d="M184.3,153l-22.1-38.5h-23.5L105,172.7l33.3,58.2h24.4l21.6-39.4l-10.8-18.8L184.3,153z M161.3,191.5L151,210.3
	l-22.5-38l21.6-37.6l11.3,18.3L151,171.8L161.3,191.5z"/>
<g>
	<g>
		<path d="M90.9,476.9H94v3.6c0,0.7-0.1,1.3-0.3,1.9c-0.2,0.6-0.5,1.1-0.9,1.6c-0.4,0.5-0.9,0.8-1.6,1.1c-0.6,0.3-1.4,0.4-2.3,0.4
			c-0.9,0-1.7-0.1-2.4-0.4c-0.6-0.3-1.2-0.6-1.6-1.1c-0.4-0.5-0.7-1-0.9-1.6c-0.2-0.6-0.3-1.3-0.3-1.9v-11.3H87v3.4h7v2.4h-7v5.2
			c0,0.8,0.1,1.4,0.4,1.9c0.3,0.4,0.8,0.7,1.5,0.7c0.7,0,1.2-0.2,1.5-0.6c0.3-0.4,0.5-1,0.5-1.8V476.9z"/>
		<path d="M104.7,485.2v-7.8c0-1-0.2-1.6-0.5-2c-0.3-0.3-0.9-0.5-1.6-0.5c-0.4,0-0.8,0.1-1.1,0.2c-0.3,0.2-0.6,0.4-0.8,0.7
			c-0.2,0.3-0.4,0.6-0.5,1c-0.1,0.4-0.2,0.8-0.2,1.2v7.2h-3.3V468h3.3v6.2c0.1-0.3,0.3-0.5,0.5-0.8c0.2-0.2,0.5-0.5,0.9-0.6
			c0.3-0.2,0.7-0.3,1.1-0.4c0.4-0.1,0.8-0.2,1.2-0.2c1.3,0,2.3,0.4,3.2,1.1c0.8,0.7,1.2,1.7,1.2,3v8.9H104.7z"/>
		<path d="M113.9,479.7c0.1,1,0.3,1.7,0.8,2.3c0.5,0.6,1.2,0.8,2,0.8c0.5,0,1-0.1,1.4-0.4c0.4-0.2,0.7-0.6,0.8-1h3.4
			c-0.4,1.3-1.1,2.3-2,3c-1,0.7-2.1,1-3.5,1c-4.2,0-6.3-2.3-6.3-6.9c0-1,0.1-1.8,0.4-2.6c0.3-0.8,0.7-1.5,1.2-2
			c0.5-0.6,1.2-1,1.9-1.3c0.8-0.3,1.6-0.4,2.6-0.4c1.9,0,3.4,0.6,4.4,1.9c1,1.2,1.5,3.1,1.5,5.6H113.9z M119.1,477.6
			c0-0.5-0.1-0.9-0.2-1.2c-0.1-0.3-0.3-0.6-0.6-0.9c-0.2-0.2-0.5-0.4-0.8-0.5c-0.3-0.1-0.6-0.2-0.9-0.2c-0.7,0-1.2,0.2-1.7,0.7
			c-0.5,0.5-0.8,1.2-0.8,2H119.1z"/>
	</g>
	<g>
		<path class="st3" d="M83.6,507.2v-16.1h6.2c1.1,0,2.1,0.2,3,0.5c0.9,0.4,1.7,0.9,2.4,1.6c0.7,0.7,1.2,1.5,1.5,2.5
			c0.4,1,0.6,2.1,0.6,3.3c0,1.2-0.2,2.3-0.5,3.4c-0.3,1-0.8,1.9-1.4,2.6c-0.6,0.7-1.4,1.3-2.2,1.7c-0.9,0.4-1.8,0.6-2.8,0.6H83.6z
			 M89.7,504.4c1.5,0,2.5-0.5,3.2-1.4c0.7-0.9,1-2.3,1-4.1c0-0.9-0.1-1.7-0.2-2.3c-0.2-0.6-0.4-1.2-0.8-1.6
			c-0.4-0.4-0.8-0.7-1.4-0.9c-0.6-0.2-1.3-0.3-2.1-0.3h-2.5v10.6H89.7z"/>
		<path class="st3" d="M99.6,507.2v-16.1h11.8v2.8h-8.6v3.4h7.9v2.8h-7.9v4.1h9v2.9H99.6z"/>
		<path class="st3" d="M118.8,507.2l-5.5-16.1h3.6l3.5,11.3l3.5-11.3h3.5l-5.5,16.1H118.8z"/>
		<path class="st3" d="M129.4,507.2v-16.1h11.8v2.8h-8.6v3.4h7.9v2.8h-7.9v4.1h9v2.9H129.4z"/>
		<path class="st3" d="M143.6,507.2v-16.1h3.4v13.2h8v2.9H143.6z"/>
		<path class="st3" d="M163.6,507.7c-2.5,0-4.4-0.7-5.7-2.2c-1.3-1.5-2-3.5-2-6.3c0-1.4,0.2-2.6,0.5-3.7c0.3-1.1,0.8-2,1.5-2.8
			c0.7-0.8,1.5-1.3,2.4-1.7c1-0.4,2.1-0.6,3.3-0.6c1.2,0,2.3,0.2,3.3,0.6c1,0.4,1.8,1,2.4,1.7c0.6,0.8,1.1,1.7,1.5,2.8
			c0.3,1.1,0.5,2.3,0.5,3.7c0,2.8-0.7,4.9-2,6.3C168,507,166.1,507.7,163.6,507.7z M163.6,504.9c0.6,0,1.2-0.1,1.7-0.3
			c0.5-0.2,1-0.5,1.4-1c0.4-0.4,0.7-1,0.9-1.7c0.2-0.7,0.3-1.5,0.3-2.5c0-1.9-0.4-3.4-1.1-4.3c-0.7-1-1.8-1.5-3.3-1.5
			c-1.4,0-2.5,0.5-3.3,1.5c-0.8,1-1.1,2.4-1.1,4.3c0,1.9,0.4,3.3,1.2,4.2C161.1,504.4,162.2,504.9,163.6,504.9z"/>
		<path class="st3" d="M173.6,507.2v-16.1h7.1c0.8,0,1.5,0.1,2.1,0.4c0.6,0.3,1.2,0.6,1.6,1.1c0.5,0.5,0.8,1,1,1.7
			c0.2,0.6,0.4,1.3,0.4,2c0,0.7-0.1,1.4-0.4,2c-0.2,0.6-0.6,1.2-1,1.6c-0.5,0.4-1,0.8-1.6,1c-0.6,0.3-1.3,0.4-2.1,0.4H177v5.8H173.6
			z M180.2,498.6c1,0,1.7-0.2,2.1-0.7c0.4-0.4,0.6-1,0.6-1.7c0-0.7-0.2-1.2-0.6-1.7c-0.4-0.4-1.1-0.7-2.1-0.7H177v4.7H180.2z"/>
		<path class="st3" d="M187.8,507.2v-16.1h11.8v2.8h-8.6v3.4h7.9v2.8h-7.9v4.1h9v2.9H187.8z"/>
		<path class="st3" d="M211.4,507.2V503c0-0.8-0.2-1.3-0.5-1.7c-0.4-0.3-1-0.5-2-0.5h-3.6v6.3H202v-16.1h8.2c0.7,0,1.4,0.1,2,0.4
			c0.6,0.2,1.1,0.6,1.6,1c0.4,0.4,0.8,0.9,1,1.5c0.2,0.6,0.4,1.2,0.4,1.9c0,0.9-0.2,1.6-0.6,2.3c-0.4,0.7-1,1.1-1.8,1.4
			c0.7,0.2,1.2,0.6,1.5,1c0.3,0.5,0.4,1.2,0.4,2.1v4.6H211.4z M205.3,493.9v4.3h4.2c0.9,0,1.5-0.2,1.9-0.6c0.4-0.4,0.6-0.9,0.6-1.5
			c0-0.6-0.2-1.1-0.5-1.6c-0.4-0.4-1-0.6-1.8-0.6H205.3z"/>
	</g>
	<g>
		<path d="M90,515.1c-0.1-0.6-0.3-1-0.6-1.3c-0.4-0.3-0.9-0.4-1.7-0.4c-1.4,0-2,0.5-2,1.4c0,0.3,0.1,0.6,0.4,0.8
			c0.3,0.2,0.7,0.4,1.4,0.6c0.7,0.2,1.4,0.3,1.9,0.5c0.5,0.1,1,0.3,1.5,0.5c0.3,0.1,0.5,0.2,0.7,0.4c0.2,0.2,0.4,0.3,0.6,0.6
			c0.2,0.2,0.3,0.5,0.4,0.8c0.1,0.3,0.1,0.7,0.1,1.2c0,0.6-0.1,1-0.3,1.5c-0.2,0.4-0.5,0.8-0.9,1.1c-0.4,0.3-0.9,0.5-1.4,0.7
			c-0.5,0.2-1.1,0.2-1.7,0.2c-1.7,0-2.9-0.3-3.8-1c-0.8-0.6-1.3-1.6-1.3-2.9h2.3c0,0.6,0.3,1,0.7,1.4c0.5,0.3,1,0.5,1.8,0.5
			c0.8,0,1.3-0.1,1.7-0.4c0.4-0.3,0.6-0.6,0.6-1.1c0-0.2,0-0.4-0.1-0.5c0-0.2-0.1-0.3-0.3-0.4c-0.1-0.1-0.3-0.2-0.5-0.3
			c-0.2-0.1-0.5-0.2-0.9-0.3c-0.9-0.2-1.6-0.4-2.3-0.6c-0.6-0.2-1.2-0.4-1.6-0.7c-0.4-0.3-0.7-0.6-0.9-1c-0.2-0.4-0.3-0.9-0.3-1.5
			c0-0.5,0.1-0.9,0.3-1.3c0.2-0.4,0.4-0.8,0.8-1.1c0.4-0.3,0.8-0.5,1.3-0.7c0.5-0.2,1.1-0.3,1.9-0.3c0.7,0,1.3,0.1,1.9,0.3
			c0.6,0.2,1,0.4,1.4,0.8c0.4,0.3,0.7,0.7,0.9,1.2c0.2,0.5,0.3,1,0.4,1.5H90z"/>
		<path d="M101.8,520.1c-0.1,0.5-0.2,0.9-0.4,1.3c-0.2,0.4-0.5,0.7-0.9,1c-0.3,0.3-0.7,0.5-1.2,0.7c-0.4,0.2-0.9,0.2-1.4,0.2
			c-0.6,0-1.1-0.1-1.6-0.3c-0.5-0.2-0.9-0.5-1.2-0.9c-0.3-0.4-0.6-0.9-0.8-1.4c-0.2-0.6-0.3-1.2-0.3-2c0-0.8,0.1-1.4,0.3-2
			c0.2-0.6,0.5-1,0.8-1.4c0.3-0.4,0.8-0.6,1.3-0.8c0.5-0.2,1-0.3,1.6-0.3c0.6,0,1.1,0.1,1.5,0.2c0.5,0.1,0.9,0.4,1.2,0.7
			c0.3,0.3,0.6,0.6,0.8,1c0.2,0.4,0.3,0.9,0.3,1.3h-2.3c-0.1-0.4-0.2-0.8-0.5-1c-0.3-0.2-0.7-0.4-1.1-0.4c-0.2,0-0.5,0-0.7,0.1
			c-0.2,0.1-0.4,0.2-0.5,0.4c-0.2,0.2-0.3,0.4-0.4,0.8c-0.1,0.3-0.1,0.7-0.1,1.2c0,0.9,0.2,1.6,0.5,2.1c0.3,0.4,0.7,0.7,1.2,0.7
			c0.4,0,0.8-0.1,1.1-0.4c0.3-0.2,0.5-0.6,0.5-1.1H101.8z"/>
		<path d="M108.8,523.2V518c0-0.6-0.1-1.1-0.3-1.3c-0.2-0.2-0.6-0.4-1.1-0.4c-0.3,0-0.5,0.1-0.7,0.2c-0.2,0.1-0.4,0.3-0.6,0.4
			c-0.1,0.2-0.3,0.4-0.3,0.7c-0.1,0.2-0.1,0.5-0.1,0.8v4.9h-2.2v-11.6h2.2v4.2c0.1-0.2,0.2-0.4,0.4-0.5c0.2-0.2,0.4-0.3,0.6-0.4
			c0.2-0.1,0.5-0.2,0.7-0.3c0.3-0.1,0.5-0.1,0.8-0.1c0.9,0,1.6,0.2,2.1,0.7c0.5,0.5,0.8,1.1,0.8,2v6H108.8z"/>
		<path d="M117.1,523.4c-0.7,0-1.3-0.1-1.8-0.3c-0.5-0.2-1-0.5-1.4-0.9c-0.4-0.4-0.7-0.9-0.9-1.4c-0.2-0.6-0.3-1.2-0.3-1.8
			c0-0.7,0.1-1.3,0.3-1.8s0.5-1,0.9-1.4c0.4-0.4,0.8-0.7,1.4-0.9c0.5-0.2,1.1-0.3,1.8-0.3c0.7,0,1.3,0.1,1.8,0.3
			c0.5,0.2,1,0.5,1.4,0.9c0.4,0.4,0.7,0.9,0.9,1.4c0.2,0.6,0.3,1.2,0.3,1.8c0,0.7-0.1,1.3-0.3,1.8c-0.2,0.5-0.5,1-0.9,1.4
			c-0.4,0.4-0.8,0.7-1.4,0.9C118.3,523.3,117.7,523.4,117.1,523.4z M117.1,521.6c1.4,0,2.1-0.9,2.1-2.6c0-1.7-0.7-2.6-2.1-2.6
			c-1.4,0-2.1,0.9-2.1,2.6C115,520.7,115.7,521.6,117.1,521.6z"/>
		<path d="M127.3,523.4c-0.7,0-1.3-0.1-1.8-0.3c-0.5-0.2-1-0.5-1.4-0.9c-0.4-0.4-0.7-0.9-0.9-1.4c-0.2-0.6-0.3-1.2-0.3-1.8
			c0-0.7,0.1-1.3,0.3-1.8s0.5-1,0.9-1.4c0.4-0.4,0.8-0.7,1.4-0.9c0.5-0.2,1.1-0.3,1.8-0.3c0.7,0,1.3,0.1,1.8,0.3
			c0.5,0.2,1,0.5,1.4,0.9c0.4,0.4,0.7,0.9,0.9,1.4c0.2,0.6,0.3,1.2,0.3,1.8c0,0.7-0.1,1.3-0.3,1.8c-0.2,0.5-0.5,1-0.9,1.4
			c-0.4,0.4-0.8,0.7-1.4,0.9C128.5,523.3,127.9,523.4,127.3,523.4z M127.3,521.6c1.4,0,2.1-0.9,2.1-2.6c0-1.7-0.7-2.6-2.1-2.6
			c-1.4,0-2.1,0.9-2.1,2.6C125.2,520.7,125.9,521.6,127.3,521.6z"/>
		<path d="M133.3,523.2v-11.6h2.2v11.6H133.3z"/>
	</g>
</g>
</svg>
