<?xml version="1.0" encoding="utf-8"?>
<!-- Generator: Adobe Illustrator 26.4.1, SVG Export Plug-In . SVG Version: 6.00 Build 0)  -->
<svg version="1.1" id="Capa_1" xmlns="http://www.w3.org/2000/svg" xmlns:xlink="http://www.w3.org/1999/xlink" x="0px" y="0px"
	 viewBox="0 0 258.2 186.9" style="enable-background:new 0 0 258.2 186.9;" xml:space="preserve">
<style type="text/css">
	.st0{fill:url(#SVGID_1_);}
	.st1{fill:#FFFFFF;}
	.st2{fill:#00E39D;}
</style>
<g>
	<linearGradient id="SVGID_1_" gradientUnits="userSpaceOnUse" x1="-351.2572" y1="-474.9058" x2="166.7312" y2="-776.9918">
		<stop  offset="0" style="stop-color:#3F5FEA"/>
		<stop  offset="1" style="stop-color:#00E39D"/>
	</linearGradient>
	<path class="st0" d="M-412.2-602.8h-10.5v-10.5h10.5V-602.8z M-412.2-613.3v-10.5v-10.5v-10.5v-10.5h10.5v10.5v10.5v10.5v10.5
		H-412.2z M-401.7-560.7h-10.5v-10.5v-10.5v-10.5v-10.5h10.5v10.5v10.5v10.5V-560.7z M-391.2-665.9h10.5v10.5h-10.5h-10.5v-10.5
		H-391.2z M-391.2-560.7h10.5v10.5h-10.5h-10.5v-10.5H-391.2z M-349.1-581.8h-10.5v-10.5v-10.5v-10.5v-10.5v-10.5v-10.5v-10.5v-10.5
		h10.5v10.5v10.5v10.5v10.5v10.5v10.5v10.5V-581.8z M-317.5-581.8h10.5v10.5h-10.5h-10.5h-10.5h-10.5v-10.5h10.5h10.5H-317.5z
		 M-307-581.8v-10.5v-10.5v-10.5v-10.5v-10.5v-10.5v-10.5v-10.5h10.5v10.5v10.5v10.5v10.5v10.5v10.5v10.5v10.5H-307z M-275.5-571.2
		v-10.5v-10.5v-10.5v-10.5v-10.5v-10.5v-10.5h10.5v10.5h10.5v10.5h-10.5v10.5v10.5v10.5v10.5v10.5H-275.5z M-233.4-634.4h-10.5
		h-10.5v-10.5h10.5h10.5V-634.4z M-233.4-571.2v-10.5v-10.5v-10.5v-10.5v-10.5v-10.5h10.5v10.5v10.5v10.5v10.5v10.5v10.5H-233.4z
		 M-201.8-644.9v-10.5h10.5v10.5H-201.8z M-201.8-571.2v-10.5v-10.5v-10.5v-10.5v-10.5v-10.5h10.5v10.5v10.5v10.5v10.5v10.5v10.5
		H-201.8z M-159.7-581.8h-10.5v-10.5v-10.5v-10.5v-10.5v-10.5v-10.5v-10.5h10.5v10.5v10.5v10.5v10.5v10.5v10.5V-581.8z
		 M-117.7-655.4h-10.5h-10.5h-10.5h-10.5v-10.5h10.5h10.5h10.5h10.5V-655.4z M-128.2-581.8h10.5v10.5h-10.5h-10.5h-10.5h-10.5v-10.5
		h10.5h10.5H-128.2z M-117.7-644.9v-10.5h10.5v10.5H-117.7z M-117.7-581.8v-10.5h10.5v10.5H-117.7z M-75.6-581.8h-10.5v-10.5v-10.5
		v-10.5v-10.5v-10.5h10.5v10.5v10.5v10.5v10.5V-581.8z M-44-634.4h-10.5h-10.5h-10.5v-10.5h10.5h10.5H-44V-634.4z M-54.5-581.8H-44
		v10.5h-10.5h-10.5h-10.5v-10.5h10.5H-54.5z M-44-581.8v-10.5v-10.5v-10.5v-10.5v-10.5h10.5v10.5v10.5v10.5v10.5v10.5H-44z
		 M-1.9-581.8h-10.5v-10.5v-10.5v-10.5v-10.5v-10.5h10.5v10.5v10.5v10.5v10.5V-581.8z M29.6-571.2v-10.5H19.1v10.5H8.6H-1.9v-10.5
		H8.6h10.5v-10.5h10.5v-10.5v-10.5v-10.5H19.1v-10.5h10.5v-10.5v-10.5v-10.5h10.5v10.5v10.5v10.5v10.5v10.5v10.5v10.5v10.5v10.5
		H29.6z M19.1-634.4H8.6H-1.9v-10.5H8.6h10.5V-634.4z M71.7-581.8H61.2v-10.5v-10.5v-10.5v-10.5v-10.5h10.5v10.5v10.5h10.5h10.5
		h10.5v-10.5v-10.5h10.5v10.5v10.5v10.5h-10.5H92.7H82.2H71.7v10.5V-581.8z M103.3-634.4H92.7H82.2H71.7v-10.5h10.5h10.5h10.5
		V-634.4z M92.7-581.8h10.5v10.5H92.7H82.2H71.7v-10.5h10.5H92.7z M103.3-581.8v-10.5h10.5v10.5H103.3z M155.9-655.4h-10.5h-10.5
		v-10.5h10.5h10.5V-655.4z M145.3-560.7h10.5v10.5h-10.5h-10.5v-10.5H145.3z M166.4-613.3h-10.5v-10.5v-10.5v-10.5v-10.5h10.5v10.5
		v10.5v10.5V-613.3z M155.9-560.7v-10.5v-10.5v-10.5v-10.5h10.5v10.5v10.5v10.5v10.5H155.9z M166.4-602.8v-10.5h10.5v10.5H166.4z"/>
	<g>
		<path class="st1" d="M207.4-641.6h5.5v6.3c0,1.2-0.2,2.3-0.5,3.4c-0.3,1.1-0.9,2-1.6,2.8c-0.7,0.8-1.7,1.5-2.8,2
			c-1.1,0.5-2.5,0.7-4,0.7c-1.6,0-3-0.2-4.2-0.7c-1.1-0.5-2.1-1.1-2.8-1.9c-0.7-0.8-1.3-1.8-1.6-2.8c-0.3-1.1-0.5-2.2-0.5-3.4v-19.9
			h5.8v6h12.3v4.2h-12.3v9.1c0,1.4,0.3,2.5,0.8,3.3c0.5,0.8,1.4,1.2,2.6,1.2c1.2,0,2-0.4,2.6-1.1c0.6-0.8,0.8-1.8,0.8-3.2V-641.6z"
			/>
		<path class="st1" d="M231.8-627v-13.8c0-1.7-0.3-2.8-0.9-3.5c-0.6-0.6-1.6-0.9-2.9-0.9c-0.7,0-1.4,0.1-1.9,0.4
			c-0.6,0.3-1.1,0.7-1.4,1.2c-0.4,0.5-0.7,1.1-0.9,1.7c-0.2,0.6-0.3,1.3-0.3,2.1v12.7h-5.9v-30.3h5.9v11c0.2-0.5,0.5-0.9,1-1.4
			c0.4-0.4,0.9-0.8,1.5-1.1c0.6-0.3,1.2-0.5,1.9-0.7c0.7-0.2,1.4-0.3,2.2-0.3c2.3,0,4.1,0.6,5.6,1.9c1.4,1.2,2.1,3,2.1,5.2v15.7
			H231.8z"/>
		<path class="st1" d="M248-636.6c0.1,1.7,0.6,3,1.5,4c0.9,1,2.1,1.5,3.5,1.5c1,0,1.8-0.2,2.6-0.7c0.7-0.4,1.2-1,1.4-1.8h6
			c-0.7,2.3-1.9,4-3.6,5.3c-1.7,1.2-3.8,1.9-6.1,1.9c-7.4,0-11.1-4-11.1-12.1c0-1.7,0.2-3.3,0.7-4.6c0.5-1.4,1.2-2.6,2.1-3.6
			c0.9-1,2-1.8,3.4-2.3c1.3-0.5,2.8-0.8,4.6-0.8c3.4,0,6,1.1,7.8,3.3c1.8,2.2,2.6,5.5,2.6,9.9H248z M257.2-640.3
			c0-0.8-0.2-1.5-0.4-2.1c-0.3-0.6-0.6-1.1-1-1.5c-0.4-0.4-0.9-0.7-1.4-0.9c-0.5-0.2-1.1-0.3-1.7-0.3c-1.2,0-2.2,0.4-3,1.3
			c-0.9,0.9-1.3,2.1-1.5,3.6H257.2z"/>
	</g>
	<g>
		<path class="st2" d="M194.6-588.1v-28.4h11c1.9,0,3.7,0.3,5.3,1c1.6,0.6,3,1.6,4.2,2.8c1.2,1.2,2.1,2.7,2.7,4.4
			c0.7,1.7,1,3.7,1,5.8c0,2.2-0.3,4.1-0.9,5.9c-0.6,1.8-1.4,3.3-2.5,4.6c-1.1,1.3-2.4,2.3-3.9,3c-1.5,0.7-3.2,1-5,1H194.6z
			 M205.3-593c2.6,0,4.5-0.8,5.7-2.4c1.2-1.6,1.8-4,1.8-7.3c0-1.6-0.1-3-0.4-4.1c-0.3-1.1-0.7-2.1-1.4-2.8c-0.6-0.7-1.5-1.3-2.5-1.6
			c-1-0.3-2.2-0.5-3.6-0.5h-4.4v18.7H205.3z"/>
		<path class="st2" d="M222.8-588.1v-28.4h20.9v5h-15.1v6.1h13.9v5h-13.9v7.3h15.8v5.1H222.8z"/>
		<path class="st2" d="M256.6-588.1l-9.6-28.4h6.3l6.2,19.9l6.2-19.9h6.2l-9.6,28.4H256.6z"/>
		<path class="st2" d="M275.4-588.1v-28.4h20.9v5h-15.1v6.1h13.9v5h-13.9v7.3H297v5.1H275.4z"/>
		<path class="st2" d="M300.4-588.1v-28.4h6v23.2h14.1v5.2H300.4z"/>
		<path class="st2" d="M335.8-587.1c-4.4,0-7.8-1.3-10.1-3.9c-2.4-2.6-3.5-6.3-3.5-11.1c0-2.4,0.3-4.6,0.9-6.5
			c0.6-1.9,1.5-3.5,2.7-4.9c1.2-1.3,2.6-2.3,4.3-3c1.7-0.7,3.6-1,5.8-1c2.2,0,4.1,0.3,5.8,1c1.7,0.7,3.1,1.7,4.3,3.1
			c1.1,1.3,2,3,2.6,4.9c0.6,1.9,0.9,4.1,0.9,6.5c0,4.9-1.2,8.6-3.5,11.1C343.5-588.4,340.2-587.1,335.8-587.1z M335.8-592.2
			c1.1,0,2.1-0.2,3-0.6c0.9-0.4,1.8-1,2.5-1.8c0.7-0.8,1.2-1.8,1.6-3c0.4-1.2,0.6-2.7,0.6-4.4c0-3.4-0.7-5.9-2-7.7
			c-1.3-1.7-3.2-2.6-5.7-2.6s-4.4,0.9-5.8,2.6c-1.3,1.7-2,4.3-2,7.7c0,3.4,0.7,5.8,2,7.4C331.4-593,333.3-592.2,335.8-592.2z"/>
		<path class="st2" d="M353.4-588.1v-28.4H366c1.4,0,2.7,0.2,3.8,0.7c1.1,0.5,2.1,1.1,2.9,2c0.8,0.8,1.4,1.8,1.8,2.9
			c0.4,1.1,0.6,2.3,0.6,3.6c0,1.3-0.2,2.5-0.6,3.6c-0.4,1.1-1,2-1.8,2.8c-0.8,0.8-1.8,1.4-2.9,1.8c-1.1,0.4-2.4,0.7-3.8,0.7h-6.6
			v10.3H353.4z M365-603.3c1.7,0,2.9-0.4,3.7-1.2c0.8-0.8,1.1-1.8,1.1-3.1c0-1.2-0.4-2.2-1.1-3c-0.8-0.8-2-1.2-3.7-1.2h-5.6v8.3H365
			z"/>
		<path class="st2" d="M378.5-588.1v-28.4h20.9v5h-15.1v6.1h13.9v5h-13.9v7.3h15.8v5.1H378.5z"/>
		<path class="st2" d="M420.1-588.1v-7.3c0-1.4-0.3-2.3-0.9-2.9c-0.6-0.6-1.8-0.9-3.5-0.9h-6.3v11.1h-5.8v-28.4h14.4
			c1.3,0,2.5,0.2,3.6,0.6c1.1,0.4,2,1,2.8,1.7c0.8,0.7,1.4,1.6,1.8,2.6c0.4,1,0.6,2.1,0.6,3.3c0,1.5-0.4,2.9-1.1,4.1
			c-0.7,1.2-1.8,2-3.1,2.5c1.3,0.4,2.1,1,2.7,1.8c0.5,0.8,0.8,2.1,0.8,3.7v8H420.1z M409.3-611.6v7.6h7.4c1.6,0,2.7-0.4,3.4-1.1
			c0.7-0.7,1-1.6,1-2.7c0-1.1-0.3-2-1-2.7c-0.6-0.7-1.7-1.1-3.2-1.1H409.3z"/>
	</g>
	<g>
		<path class="st1" d="M205.8-574.1c-0.1-1-0.5-1.8-1.1-2.3c-0.6-0.5-1.6-0.8-2.9-0.8c-2.4,0-3.6,0.8-3.6,2.5c0,0.6,0.2,1.1,0.7,1.5
			c0.5,0.4,1.3,0.7,2.4,1c1.3,0.3,2.4,0.6,3.4,0.9c1,0.3,1.8,0.6,2.6,0.9c0.4,0.2,0.9,0.4,1.3,0.7c0.4,0.3,0.7,0.6,1,1
			c0.3,0.4,0.5,0.9,0.7,1.5c0.2,0.6,0.2,1.3,0.2,2.1c0,1-0.2,1.8-0.6,2.6c-0.4,0.8-1,1.4-1.6,1.9c-0.7,0.5-1.5,0.9-2.4,1.2
			c-0.9,0.3-1.9,0.4-3,0.4c-2.9,0-5.2-0.6-6.6-1.7c-1.5-1.1-2.3-2.8-2.3-5.1h4.1c0,1,0.4,1.9,1.3,2.5c0.8,0.6,1.9,0.9,3.1,0.9
			c1.3,0,2.4-0.2,3-0.7c0.7-0.5,1-1.1,1-2c0-0.3,0-0.6-0.1-0.9c-0.1-0.3-0.2-0.5-0.5-0.7c-0.2-0.2-0.6-0.4-1-0.6
			c-0.4-0.2-0.9-0.3-1.6-0.5c-1.5-0.3-2.9-0.7-4-1c-1.1-0.3-2.1-0.8-2.8-1.2c-0.7-0.5-1.3-1.1-1.6-1.8c-0.3-0.7-0.5-1.6-0.5-2.7
			c0-0.8,0.2-1.6,0.5-2.3c0.3-0.7,0.8-1.4,1.4-1.9c0.6-0.5,1.4-1,2.3-1.3c0.9-0.3,2-0.5,3.3-0.5c1.2,0,2.3,0.2,3.3,0.5
			c1,0.3,1.8,0.8,2.5,1.3c0.7,0.6,1.2,1.3,1.6,2.1c0.4,0.8,0.6,1.7,0.6,2.7H205.8z"/>
		<path class="st1" d="M226.6-565.3c-0.1,0.9-0.3,1.7-0.7,2.4c-0.4,0.7-0.9,1.3-1.5,1.8c-0.6,0.5-1.3,0.9-2.1,1.2
			c-0.8,0.3-1.6,0.4-2.5,0.4c-1,0-1.9-0.2-2.8-0.5c-0.8-0.3-1.6-0.8-2.2-1.5c-0.6-0.7-1.1-1.5-1.4-2.5c-0.3-1-0.5-2.2-0.5-3.5
			c0-1.3,0.2-2.5,0.5-3.5c0.3-1,0.8-1.8,1.4-2.4c0.6-0.6,1.3-1.1,2.2-1.4c0.9-0.3,1.8-0.5,2.9-0.5c1,0,1.9,0.1,2.7,0.4
			c0.8,0.3,1.5,0.6,2.1,1.2c0.6,0.5,1.1,1.1,1.4,1.8c0.3,0.7,0.5,1.5,0.6,2.4h-4c-0.1-0.8-0.4-1.4-0.9-1.8c-0.5-0.4-1.2-0.7-1.9-0.7
			c-0.4,0-0.8,0.1-1.2,0.2c-0.4,0.1-0.7,0.4-1,0.7c-0.3,0.3-0.5,0.8-0.7,1.3c-0.2,0.6-0.2,1.2-0.2,2.1c0,1.6,0.3,2.9,0.9,3.7
			c0.6,0.8,1.3,1.2,2,1.2c0.8,0,1.4-0.2,2-0.6c0.5-0.4,0.9-1,0.9-1.9H226.6z"/>
		<path class="st1" d="M239-559.9v-9.3c0-1.1-0.2-1.9-0.6-2.3c-0.4-0.4-1.1-0.6-2-0.6c-0.5,0-0.9,0.1-1.3,0.3
			c-0.4,0.2-0.7,0.5-1,0.8c-0.3,0.3-0.5,0.7-0.6,1.2c-0.1,0.4-0.2,0.9-0.2,1.4v8.6h-4v-20.5h4v7.4c0.1-0.3,0.4-0.6,0.7-0.9
			c0.3-0.3,0.6-0.5,1-0.7c0.4-0.2,0.8-0.4,1.3-0.5c0.5-0.1,1-0.2,1.5-0.2c1.5,0,2.8,0.4,3.8,1.3c1,0.8,1.4,2,1.4,3.5v10.6H239z"/>
		<path class="st1" d="M253.6-559.5c-1.2,0-2.3-0.2-3.3-0.6c-1-0.4-1.8-0.9-2.4-1.6c-0.7-0.7-1.2-1.5-1.5-2.5c-0.3-1-0.5-2-0.5-3.2
			c0-1.2,0.2-2.3,0.5-3.2c0.4-1,0.9-1.8,1.5-2.5c0.7-0.7,1.5-1.2,2.4-1.6c0.9-0.4,2-0.6,3.2-0.6c1.2,0,2.2,0.2,3.2,0.6
			c0.9,0.4,1.7,0.9,2.4,1.6c0.7,0.7,1.2,1.5,1.5,2.5c0.4,1,0.5,2.1,0.5,3.3c0,1.2-0.2,2.3-0.5,3.2c-0.4,1-0.9,1.8-1.5,2.5
			c-0.7,0.7-1.5,1.2-2.4,1.6C255.8-559.6,254.8-559.5,253.6-559.5z M253.6-562.8c2.4,0,3.6-1.5,3.6-4.6c0-3-1.2-4.5-3.6-4.5
			c-2.4,0-3.6,1.5-3.6,4.5C250-564.3,251.2-562.8,253.6-562.8z"/>
		<path class="st1" d="M271.6-559.5c-1.2,0-2.3-0.2-3.3-0.6c-1-0.4-1.8-0.9-2.4-1.6c-0.7-0.7-1.2-1.5-1.5-2.5c-0.3-1-0.5-2-0.5-3.2
			c0-1.2,0.2-2.3,0.5-3.2c0.4-1,0.9-1.8,1.5-2.5c0.7-0.7,1.5-1.2,2.4-1.6c0.9-0.4,2-0.6,3.2-0.6c1.2,0,2.2,0.2,3.2,0.6
			c0.9,0.4,1.7,0.9,2.4,1.6c0.7,0.7,1.2,1.5,1.5,2.5c0.4,1,0.5,2.1,0.5,3.3c0,1.2-0.2,2.3-0.5,3.2c-0.4,1-0.9,1.8-1.5,2.5
			c-0.7,0.7-1.5,1.2-2.4,1.6C273.8-559.6,272.8-559.5,271.6-559.5z M271.6-562.8c2.4,0,3.6-1.5,3.6-4.6c0-3-1.2-4.5-3.6-4.5
			s-3.6,1.5-3.6,4.5C268-564.3,269.2-562.8,271.6-562.8z"/>
		<path class="st1" d="M282.2-559.9v-20.5h4v20.5H282.2z"/>
	</g>
</g>
<g>
	<path d="M164.1,123.3c-4.3-8.9-10.6-16.3-16.6-23.1c-12-13.7-25.7-25.1-36.2-33.5c-0.2-0.2-0.5-0.4-0.7-0.6c3-4.4,5.9-8.9,8.8-13.3
		c5.7-8.7,11.5-17.6,17.9-25.9c0.8-1,1.1-2.1,1-3.2c-0.1-1-0.6-1.9-1.5-2.5c-0.8-0.6-1.8-0.9-2.8-0.8c-1,0.1-2,0.7-2.7,1.7
		c-0.6,0.7-1.1,1.5-1.7,2.2c-2,2.5-4,5.2-5.8,7.9c-4.5,6.7-9.1,13.6-13.5,20.3c-1.9,2.9-3.8,5.7-5.7,8.6c0,0-0.1,0.1-0.1,0.1
		c-3.3-2.9-6.8-5.6-10.2-8.1c-3.9-3-7.9-6-11.6-9.4c0.3-0.1,0.6-0.1,0.9-0.2c1.2-0.3,2.5-0.5,3.7-0.8c2.1-0.5,3.3-2.5,2.9-4.6
		c-0.2-1-0.9-2-1.7-2.5c-0.8-0.5-1.7-0.7-2.7-0.5c-3.6,0.8-6.6,1.5-9.7,2.4c-2.8,0.9-4.2,3.3-3.4,6c0.3,1.1,1.1,2.2,2,3.1l0.5,0.4
		c3.2,2.9,6.5,5.9,9.9,8.6c3.5,2.8,7.1,5.7,10.6,8.4c1.5,1.2,3.1,2.4,4.6,3.6c-1.3,1.9-2.6,3.9-3.9,5.8c-3.5,5.2-7.1,10.6-10.6,16
		c-1.3,2-2.2,2.4-4.5,2c-12-1.9-24.1-1.6-35.9-1.3l-0.4,0c-5.3,0.1-10.4,1.9-16.1,5.6c-0.9,0.6-1.7,1.3-2.4,2.2
		c-1.2,1.4-1.6,3.2-1.3,4.9c0.3,1.6,1.3,2.9,2.9,3.7c1.9,1,4,1.6,5.8,1.6c10.2,0.2,20.8,0.3,32.4,0.4c2,0,4-0.2,6-0.4l-38.5,47.3
		c-0.9-0.5-1.8-0.7-2.7-0.5c-0.9,0.1-1.7,0.7-2.3,1.5c-1.9,2.7-2.7,5.2-2.7,7.9c0,2.5,1.3,3.7,2.4,4.2c0.6,0.3,1.2,0.4,1.8,0.4
		c1.1,0,2.1-0.4,3.1-1.3c1-0.8,1.8-1.8,2.6-2.7c2-2.4,3.9-4.8,5.9-7.2c2.8-3.4,5.6-6.9,8.5-10.4l0.9-1.1
		c12.1-14.6,24.6-29.6,35.9-45.3c0.4-0.6,0.6-0.7,1.4-0.5c7.8,1.6,15.7,3.8,24,7c16.3,6.1,33.5,13.2,47.5,26
		c1.6,1.4,3.4,1.7,5.1,0.6c1.7-1.1,2.3-3,1.5-5C165.7,126.8,164.9,125,164.1,123.3z M150.9,116.8c-8.9-5.3-17.5-9.6-26.2-13.1
		c-9.4-3.8-20.5-8-32.3-10.4l13.8-20.8C122,85.1,138.1,99.2,150.9,116.8z M78.8,98.8c-0.4,0.4-0.9,0.7-1.6,0.8
		c-5.4,0.7-12.6,1.5-20,1.3c-7.1-0.2-14.2-0.3-21.2-0.5c2.7-1.4,5.5-2.4,8.6-2.5C55.2,97.7,67.2,97.4,78.8,98.8z"/>
	<path d="M241.2,91.8l-1.1-3.1c-2.2-5.9-4.4-12.1-6.6-18.1c-0.8-2-2.4-3.4-4.4-3.8c-2-0.4-4.1,0.4-5.5,2c-0.6,0.7-1.1,1.5-1.5,2.3
		c-0.2,0.4-0.4,0.7-0.6,1.1c-0.2,0.3-0.4,0.6-0.6,0.8c-1.1,1.1-2.2,2.1-3.3,3.2c-0.7,0.6-1.3,1.3-2,1.9c0-0.3,0-0.6-0.1-0.9
		c-0.2-1.7-1-3-2.2-3.7c-1.2-0.7-2.7-0.8-4.2-0.2c-1.8,0.7-3.2,1.6-4.2,2.7c-1.5,1.5-3,3.2-4.3,4.8c-0.5,0.6-1,1.1-1.5,1.7
		c-2.7-3.3-5.4-4.5-10-4.5c-1.1,0-2.1,0-3.2,0l-0.2,0c0,0,0,0,0,0c-0.3-1.6-1.2-2.9-2.4-3.5c-1.2-0.6-2.7-0.5-4.2,0.2
		c-0.6,0.3-1.1,0.6-1.5,0.9c-2,1.6-4,3.1-5.9,4.7l-5.4,4.3c-2.6,2.1-5.3,4.2-7.9,6.3c-1.6,1.3-3.5,1.2-5.8,1.2
		c0.2-0.8,0.3-1.5,0.6-2.1c1-2,2-3.6,3.1-5.1c5.4-7.1,11.4-13.7,17.9-19.5c1.3-1.2,3-2.1,4.6-3l0.5-0.3c2-1.1,2.9-3,2.2-4.9
		c-0.4-1.1-1.2-1.9-2.2-2.3c-0.9-0.4-2-0.4-2.9,0.1c-2,1-4.3,2-6.1,3.6c-5.8,4.9-11.4,10.7-16.9,17.5c-2.2,2.7-4.2,5.7-6.1,8.5
		l-0.5,0.7c-1.9,2.9-2.2,6.2-2.2,8.4c0,3.1,1.7,5.3,4.5,5.7c1.6,0.2,3.3,0.4,5,0.4c2.8,0,5.7-0.6,8.3-2.5c3.1-2.3,6.1-4.7,9-7
		c1.1-0.9,2.2-1.7,3.2-2.6c1.4-1.1,2.8-2.2,4.2-3.4c0.2-0.2,0.5-0.4,0.7-0.6c1,1.2,2.5,1.8,4.3,1.8c1,0,2.1,0,3.1,0
		c0.9,0,1.8,0,2.6,0c2.6,0,3.4,0.6,4.2,3c0.6,1.7,1.6,3.6,4.2,4.1c2.8,0.5,4.3-1.5,5.1-2.6c0.5-0.6,1-1.3,1.4-1.9c1-1.3,2-2.7,3.1-4
		c0.1-0.1,0.2-0.3,0.4-0.4c0,1,0.1,2.1,0.1,3.1c0,0.5,0,1,0,1.5c0,2.2,1.2,3.9,3.1,4.4c2.6,0.7,4.1-1.3,4.7-2.1l1.1-1.5
		c1.3-1.8,2.7-3.7,4-5.5c0.3-0.4,0.6-0.7,0.9-1.1c0.4,0.3,0.8,0.5,1.3,0.6c1.1,0.3,2.2,0.1,3.1-0.5c1-0.7,1.7-2,1.8-3.4
		c0-0.5,0.1-1,0.1-1.4l0.9,2.4c1.7,4.6,3.4,9.3,5.2,13.9c0.8,2.2,2.9,3.3,5,2.5C241.1,96.2,242,94,241.2,91.8z"/>
</g>
</svg>
